<?xml version="1.0" standalone="no"?>
<!DOCTYPE svg PUBLIC "-//W3C//DTD SVG 20010904//EN"
 "http://www.w3.org/TR/2001/REC-SVG-20010904/DTD/svg10.dtd">
<svg version="1.0" xmlns="http://www.w3.org/2000/svg"
 width="512.000000pt" height="512.000000pt" viewBox="0 0 512.000000 512.000000"
 preserveAspectRatio="xMidYMid meet">

<g transform="translate(0.000000,512.000000) scale(0.100000,-0.100000)"
fill="#000000" stroke="none">
<path d="M2698 3882 c-16 -9 -34 -30 -42 -47 -8 -16 -60 -262 -116 -545 l-101
-515 -39 -40 c-57 -60 -74 -100 -74 -175 0 -138 96 -234 234 -234 70 0 114 17
163 63 75 69 95 194 46 282 l-26 46 53 414 c29 228 60 467 69 533 18 136 15
165 -27 206 -23 24 -38 30 -71 30 -23 0 -54 -8 -69 -18z"/>
<path d="M1470 2052 l-30 -30 0 -502 0 -502 30 -30 30 -30 208 4 c235 4 262
10 346 88 69 63 101 137 100 230 0 86 -21 143 -74 203 l-32 37 32 37 c53 60
74 117 74 203 1 93 -31 167 -100 230 -84 78 -111 84 -346 88 l-208 4 -30 -30z
m451 -155 c52 -35 79 -82 79 -137 0 -55 -27 -102 -79 -137 -31 -21 -45 -23
-177 -23 l-144 0 0 160 0 160 144 0 c132 0 146 -2 177 -23z m0 -480 c52 -35
79 -82 79 -137 0 -55 -27 -102 -79 -137 -31 -21 -45 -23 -177 -23 l-144 0 0
160 0 160 144 0 c132 0 146 -2 177 -23z"/>
<path d="M2429 2051 l-29 -29 0 -502 0 -502 29 -29 c36 -35 61 -37 98 -5 l28
24 5 344 5 343 79 -140 c96 -171 108 -185 156 -185 48 0 60 14 156 185 l79
140 5 -343 5 -344 28 -24 c35 -30 59 -30 94 0 l28 24 3 499 c2 535 2 533 -49
562 -22 12 -32 12 -56 2 -24 -10 -52 -52 -153 -229 -68 -119 -128 -223 -133
-230 -7 -9 -44 48 -134 205 -68 120 -135 228 -149 241 -34 30 -60 28 -95 -7z"/>
<path d="M3549 2051 l-29 -29 0 -502 0 -502 29 -29 c37 -37 65 -37 102 0 l29
29 0 502 0 502 -29 29 c-16 16 -39 29 -51 29 -12 0 -35 -13 -51 -29z"/>
</g>
</svg>
