<?xml version="1.0" encoding="UTF-8"?>
<svg version="1.1" xmlns="http://www.w3.org/2000/svg" width="512" height="512">
<path d="M0 0 C132.66 0 265.32 0 402 0 C402 5.94 402 11.88 402 18 C401.67 18.33 401.34 18.66 401 19 C400.68649436 20.79955788 400.43300033 22.60959759 400.203125 24.42173767 C400.05174072 25.59820358 399.90035645 26.77466949 399.74438477 27.98678589 C399.58123779 29.28915192 399.41809082 30.59151794 399.25 31.93334961 C399.07451534 33.30959313 398.89864365 34.68578735 398.72241211 36.06193542 C398.34291471 39.03165933 397.96610068 42.00170736 397.59130859 44.97202873 C396.99901882 49.66533206 396.40038827 54.35781286 395.80078125 59.05018616 C394.63705603 68.16398262 393.47949597 77.27855665 392.32287598 86.39325714 C390.85095084 97.99193679 389.37738065 109.59040193 387.89601135 121.18787962 C387.29998823 125.8559034 386.70762988 130.52437354 386.11805725 135.1932162 C385.75098541 138.09439351 385.38092079 140.9951833 385.01004028 143.89587593 C384.75608362 145.88949792 384.50580415 147.88358723 384.25561523 149.87768555 C384.10423096 151.05697128 383.95284668 152.23625702 383.796875 153.45127869 C383.66635742 154.48054442 383.53583984 155.50981016 383.40136719 156.57026577 C383 159 383 159 382 161 C383.90507324 161.00616333 383.90507324 161.00616333 385.84863281 161.01245117 C390.61270362 161.03441263 395.37596832 161.08887612 400.13964844 161.15258789 C402.19165249 161.17562059 404.2437723 161.19012861 406.29589844 161.19555664 C419.28153148 161.23665042 430.47971777 161.28331754 441.375 169.25 C452.5383767 180.94496606 453.46346209 193.18117901 453.3984375 208.65234375 C453.40046293 210.36047998 453.40337825 212.06861536 453.40713501 213.77674866 C453.41153753 217.34303077 453.40519539 220.90908621 453.39111328 224.4753418 C453.37403566 229.0187002 453.3838667 233.56152622 453.40183067 238.10486507 C453.41273601 241.62846293 453.40919121 245.15193718 453.4014473 248.67553902 C453.39946321 250.34947334 453.40184067 252.02341934 453.40888596 253.69734001 C453.45629536 268.12563684 452.3576347 279.05586462 442.21875 289.90625 C433.14120816 298.68616752 422.71860992 299.5867551 410.58203125 299.390625 C409.23012641 299.38314395 407.87821056 299.37745986 406.52629089 299.37347412 C403.00634638 299.3583638 399.48708568 299.31921364 395.96740723 299.2746582 C392.36052698 299.23338534 388.75353382 299.21539555 385.14648438 299.1953125 C378.0973803 299.15270068 371.04873532 299.08463261 364 299 C363.94666504 300.01650635 363.89333008 301.0330127 363.83837891 302.08032227 C363.31967954 311.41655513 362.36071902 320.56923635 360.9296875 329.81445312 C360.795625 330.75095703 360.6615625 331.68746094 360.5234375 332.65234375 C360.39888184 333.46695068 360.27432617 334.28155762 360.14599609 335.12084961 C359.66182172 344.66912454 362.55524388 353.89490281 364.87719727 363.06054688 C365.28179021 364.67586729 365.68585939 366.29131898 366.08944702 367.90689087 C367.18124157 372.27124467 368.2802276 376.63375868 369.38048673 380.99598503 C370.53129724 385.56413983 371.67521062 390.13402088 372.81980896 394.70373535 C374.9861529 403.34844672 377.15829152 411.99169045 379.33270544 420.6343751 C382.52982361 433.34305286 385.71861639 446.05381993 388.90689754 458.7647171 C389.37656537 460.63713088 389.84623375 462.50954452 390.31590271 464.38195801 C390.54506014 465.29559002 390.77421758 466.20922204 391.01031917 467.15053988 C392.3758932 472.59411501 393.74330535 478.03722434 395.11231816 483.47993565 C395.96079026 486.85369673 396.80838892 490.22767688 397.6558342 493.60169601 C398.05048979 495.17202049 398.44556092 496.74224059 398.84106636 498.31235123 C399.37850256 500.44604851 399.91452856 502.58009516 400.45021057 504.7142334 C400.75125985 505.91101463 401.05230913 507.10779587 401.36248112 508.3408432 C402 511 402 511 402 512 C269.34 512 136.68 512 0 512 C0.59113959 506.08860414 1.14984001 500.62007826 2.25244141 494.85731506 C2.37509684 494.20976979 2.49775227 493.56222452 2.62412453 492.89505666 C3.02912762 490.76263907 3.4403081 488.63146416 3.8515625 486.50024414 C4.14602102 484.95692902 4.44009818 483.41354109 4.73382568 481.87008667 C5.5273216 477.70661314 6.32625918 473.54420121 7.12633514 469.38198781 C7.96426005 465.01843617 8.7974946 460.65398881 9.63134766 456.28965759 C11.03054195 448.97011855 12.43310798 441.65123213 13.83789062 434.33276367 C15.46237363 425.86959788 17.08233851 417.40557732 18.6997242 408.9410525 C20.42332639 399.92084434 22.15006291 390.90123835 23.87779999 381.88182139 C24.37527364 379.28372713 24.87217534 376.685524 25.36895752 374.08729744 C26.14839885 370.01162716 26.9299467 365.9363663 27.7131424 361.86141586 C28.00047153 360.3647385 28.28710199 358.86792681 28.57299042 357.37097359 C28.96260939 355.33154445 29.35474992 353.29261624 29.74755859 351.25379944 C29.9665683 350.11178102 30.185578 348.96976259 30.41122437 347.79313755 C31 345 31 345 32 342 C30.71424072 342.01047363 29.42848145 342.02094727 28.10375977 342.03173828 C23.30105408 342.06813295 18.49836042 342.09097097 13.69555664 342.10986328 C11.62294459 342.11987668 9.55034651 342.13349135 7.4777832 342.15087891 C4.48645566 342.17533313 1.49531606 342.18653 -1.49609375 342.1953125 C-2.87008583 342.21079636 -2.87008583 342.21079636 -4.27183533 342.22659302 C-15.47148095 342.22851505 -24.58334446 339.81662478 -33.046875 332.14453125 C-40.59914724 324.059727 -43.14364584 315.31347801 -43.16113281 304.4309082 C-43.16858017 303.31273964 -43.16858017 303.31273964 -43.17617798 302.17198181 C-43.19073707 299.71490541 -43.19759208 297.25789363 -43.203125 294.80078125 C-43.20595238 293.95730825 -43.20877975 293.11383526 -43.21169281 292.24480247 C-43.22666241 287.77883976 -43.23590518 283.31290914 -43.24023438 278.84692383 C-43.24570738 274.25517351 -43.26971697 269.66372146 -43.29820633 265.0720644 C-43.31692158 261.52279328 -43.32204308 257.97359263 -43.32357025 254.42427635 C-43.32657864 252.73275311 -43.33454515 251.04123057 -43.34775543 249.34975624 C-43.44141298 236.43291986 -42.72602353 225.22462323 -34 215 C-24.74946556 206.17773105 -15.38274847 203.84814271 -2.75390625 203.90234375 C-2.09792953 203.9037587 -1.44195282 203.90517365 -0.76609802 203.90663147 C1.30181702 203.91216969 3.36961842 203.92470998 5.4375 203.9375 C6.85090988 203.94252301 8.26432148 203.9470845 9.67773438 203.95117188 C13.11852568 203.96211874 16.55925172 203.97933962 20 204 C19.93895081 203.45135284 19.87790161 202.90270569 19.81500244 202.33743286 C18.95498391 194.60050806 18.10107716 186.86291315 17.25 179.125 C17.17698418 178.46126373 17.10396835 177.79752747 17.02873993 177.11367798 C13.02506599 140.69595684 9.21880336 104.25716618 5.4008007 67.81960487 C4.88278494 62.87658391 4.36426061 57.93361634 3.8457222 52.99065018 C3.48450076 49.54448347 3.12422272 46.09821903 2.76400757 42.65194702 C2.54404633 40.55376778 2.32404726 38.45559251 2.10400391 36.35742188 C1.95755873 34.95222133 1.95755873 34.95222133 1.80815506 33.51863289 C1.71594051 32.6410375 1.62372597 31.76344212 1.52871704 30.85925293 C1.45023844 30.10907646 1.37175983 29.35889999 1.29090309 28.58599091 C0.89352284 25.05346844 0.44091908 21.5273526 0 18 C0 12.06 0 6.12 0 0 Z " fill="#F5CFC6" transform="translate(51,0)"/>
<path d="M0 0 C132.66 0 265.32 0 402 0 C402 5.94 402 11.88 402 18 C401.67 18.33 401.34 18.66 401 19 C400.69560115 20.72322729 400.45096278 22.4570428 400.2300415 24.19294739 C400.08443787 25.32027786 399.93883423 26.44760834 399.78881836 27.60910034 C399.55352417 29.48252609 399.55352417 29.48252609 399.31347656 31.39379883 C399.14579773 32.70161819 398.9781189 34.00943756 398.80535889 35.35688782 C398.43892384 38.21521537 398.07521776 41.07387271 397.71356964 43.93280983 C397.13673668 48.49259985 396.55384215 53.05160262 395.97015381 57.61051941 C395.0414401 64.86995766 394.11676783 72.12990412 393.19380355 79.39007539 C391.55803289 92.25694135 389.91708242 105.12314546 388.27236533 117.9888708 C387.69860504 122.47847022 387.12705946 126.96834385 386.55734134 131.45845789 C384.29733898 149.25868446 381.91989907 167.03915333 379.42767334 184.80839539 C377.27105788 200.20363422 375.13857707 215.60224506 373 231 C311.95 231 250.9 231 188 231 C188 244.86 188 258.72 188 273 C135.2 273 82.4 273 28 273 C26.16713535 258.33708283 24.36012717 243.68648649 22.75 229 C22.5359773 227.05752604 22.32186213 225.11506227 22.10766602 223.17260742 C21.64444796 218.96854029 21.18249113 214.76433662 20.72119141 210.56005859 C20.12366157 205.11802648 19.52102812 199.67657331 18.91699219 194.23526001 C14.24442484 152.11009815 9.81625049 109.95948921 5.3993845 67.80685902 C4.88172949 62.86714321 4.36357077 57.92748028 3.84540749 52.98781776 C3.48432634 49.54282305 3.1241769 46.09773179 2.76408386 42.65263367 C2.5440974 40.55422552 2.32407291 38.45582136 2.10400391 36.35742188 C2.00637221 35.42060735 1.90874052 34.48379282 1.80815029 33.51858997 C1.71593732 32.64100875 1.62372435 31.76342752 1.52871704 30.85925293 C1.45023844 30.10907646 1.37175983 29.35889999 1.29090309 28.58599091 C0.89352284 25.05346844 0.44091908 21.5273526 0 18 C0 12.06 0 6.12 0 0 Z " fill="#F4CFC6" transform="translate(51,0)"/>
<path d="M0 0 C132.66 0 265.32 0 402 0 C402 5.94 402 11.88 402 18 C401.67 18.33 401.34 18.66 401 19 C396.71 52.33 392.42 85.66 388 120 C263.59 119.67 139.18 119.34 11 119 C0 18 0 18 0 0 Z " fill="#158CE1" transform="translate(51,0)"/>
<path d="M0 0 C6.04719439 0.019564 12.09296258 0.07171658 18.13964844 0.15258789 C20.19165249 0.17562059 22.2437723 0.19012861 24.29589844 0.19555664 C37.28153148 0.23665042 48.47971777 0.28331754 59.375 8.25 C70.5383767 19.94496606 71.46346209 32.18117901 71.3984375 47.65234375 C71.40046293 49.36047998 71.40337825 51.06861536 71.40713501 52.77674866 C71.41153753 56.34303077 71.40519539 59.90908621 71.39111328 63.4753418 C71.37403566 68.0187002 71.3838667 72.56152622 71.40183067 77.10486507 C71.41273601 80.62846293 71.40919121 84.15193718 71.4014473 87.67553902 C71.39946321 89.34947334 71.40184067 91.02341934 71.40888596 92.69734001 C71.45629536 107.12563684 70.3576347 118.05586462 60.21875 128.90625 C49.81803931 138.96595378 37.48792099 138.56661411 23.94262695 138.45410156 C22.02969893 138.45297164 20.11676918 138.45360976 18.20384216 138.45587158 C13.0392149 138.45701402 7.87496315 138.43358113 2.71042275 138.40557575 C-2.69741114 138.38048338 -8.10525469 138.37821393 -13.51313782 138.37347412 C-23.7409854 138.36106733 -33.9686609 138.32827684 -44.19643289 138.28807616 C-55.84577696 138.24328689 -67.49512947 138.22135343 -79.14453828 138.20129442 C-103.09647608 138.15954211 -127.04817815 138.08621847 -151 138 C-151 151.86 -151 165.72 -151 180 C-176.18646014 180.13159509 -201.37292476 180.26221669 -226.55939865 180.39115143 C-238.25916616 180.45107467 -249.95893129 180.51140287 -261.65869141 180.57275391 C-271.87997267 180.62635101 -282.10125787 180.67911762 -292.32254815 180.73096704 C-297.71299825 180.75833801 -303.10344583 180.78607009 -308.49388885 180.81480408 C-319.41375363 180.87277587 -330.33359547 180.92484085 -341.25354695 180.96357012 C-347.27850613 180.9859242 -353.30326476 181.02099819 -359.32811522 181.0633378 C-363.3909695 181.08994113 -367.45383372 181.10807019 -371.51674128 181.12432003 C-373.43033128 181.13375762 -375.34390777 181.14670105 -377.25744772 181.1634531 C-379.89753136 181.18608277 -382.53738631 181.19596678 -385.17755127 181.20300293 C-385.94152741 181.21262904 -386.70550355 181.22225515 -387.49263048 181.23217297 C-398.15744293 181.22419064 -407.04443656 178.39865007 -415.046875 171.14453125 C-422.59914724 163.059727 -425.14364584 154.31347801 -425.16113281 143.4309082 C-425.16609772 142.68546249 -425.17106262 141.94001678 -425.17617798 141.17198181 C-425.19073707 138.71490541 -425.19759208 136.25789363 -425.203125 133.80078125 C-425.20595238 132.95730825 -425.20877975 132.11383526 -425.21169281 131.24480247 C-425.22666241 126.77883976 -425.23590518 122.31290914 -425.24023438 117.84692383 C-425.24570738 113.25517351 -425.26971697 108.66372146 -425.29820633 104.0720644 C-425.31692158 100.52279328 -425.32204308 96.97359263 -425.32357025 93.42427635 C-425.32657864 91.73275311 -425.33454515 90.04123057 -425.34775543 88.34975624 C-425.44141298 75.43291986 -424.72602353 64.22462323 -416 54 C-406.67411251 45.10586656 -397.25685171 42.84955663 -384.53515625 42.90234375 C-383.51789711 42.90446617 -383.51789711 42.90446617 -382.48008728 42.90663147 C-380.34084422 42.91217255 -378.20171075 42.92471347 -376.0625 42.9375 C-374.60091298 42.94252264 -373.13932431 42.9470842 -371.67773438 42.95117188 C-368.11845474 42.96212255 -364.55923809 42.97934555 -361 43 C-360.08411372 51.25785915 -359.17116415 59.51603547 -358.26194 67.77463055 C-357.83963902 71.6095987 -357.41633539 75.4444506 -356.99072266 79.27905273 C-356.57986046 82.98109736 -356.1716552 86.68342625 -355.76527405 90.38596535 C-355.60993118 91.79701958 -355.45363859 93.20796959 -355.29637146 94.61881065 C-355.07591033 96.59805128 -354.85916815 98.57770506 -354.64257812 100.55737305 C-354.51822388 101.68322311 -354.39386963 102.80907318 -354.26574707 103.96903992 C-354 107 -354 107 -354 112 C-301.2 112 -248.4 112 -194 112 C-194 98.14 -194 84.28 -194 70 C-155.86419456 69.23461638 -117.75360496 68.8360702 -79.60913086 68.86962891 C-73.54761454 68.87488991 -67.48614093 68.87318562 -61.42462796 68.8678025 C-55.46099301 68.86272451 -49.49736826 68.86324712 -43.53373146 68.86618423 C-41.0406678 68.86684733 -38.54760328 68.86604686 -36.05454063 68.86370468 C-32.6231696 68.86117218 -29.19186416 68.86502009 -25.76049805 68.87060547 C-24.24876007 68.86756912 -24.24876007 68.86756912 -22.70648193 68.86447144 C-18.0228374 68.87863173 -13.6061932 69.02647652 -9 70 C-8.94630249 69.2121109 -8.89260498 68.4242218 -8.83728027 67.61245728 C-8.26836406 59.70979618 -7.43598339 51.87826958 -6.40625 44.0234375 C-6.17887146 42.26382187 -6.17887146 42.26382187 -5.94689941 40.46865845 C-5.62916617 38.01648979 -5.30977323 35.56453565 -4.98876953 33.11279297 C-4.4968021 29.35054455 -4.01173925 25.58744876 -3.52734375 21.82421875 C-3.21655412 19.43223858 -2.90537056 17.04030956 -2.59375 14.6484375 C-2.37652283 12.96105972 -2.37652283 12.96105972 -2.15490723 11.23959351 C-2.01806519 10.20065948 -1.88122314 9.16172546 -1.74023438 8.09130859 C-1.56155823 6.72116104 -1.56155823 6.72116104 -1.37927246 5.32333374 C-1 3 -1 3 0 0 Z " fill="#FEDA6F" transform="translate(433,161)"/>
<path d="M0 0 C132.66 0 265.32 0 402 0 C402 5.94 402 11.88 402 18 C400.35 17.773125 398.7 17.54625 397 17.3125 C389.79177846 17.30406933 385.96473227 20.26708372 380.41137695 24.37304688 C353.98752044 43.86966009 319.2650699 52.5040788 286.67236328 48.6015625 C261.73286576 44.82779887 233.43919831 36.43919831 215 18 C202.24480775 16.42412776 202.24480775 16.42412776 190.77978516 21.12231445 C188.68593884 22.92243417 186.63343618 24.76308501 184.59667969 26.62744141 C160.15468927 47.63858362 123.01969439 53.93341283 92 52 C64.58450845 49.10697431 32.86819557 37.86819557 13 18 C10.81360547 17.92741054 8.62499611 17.91626217 6.4375 17.9375 C3.2509375 17.9684375 3.2509375 17.9684375 0 18 C0 12.06 0 6.12 0 0 Z " fill="#002874" transform="translate(51,0)"/>
<path d="M0 0 C6.04719439 0.019564 12.09296258 0.07171658 18.13964844 0.15258789 C20.19165249 0.17562059 22.2437723 0.19012861 24.29589844 0.19555664 C37.28153148 0.23665042 48.47971777 0.28331754 59.375 8.25 C66.50785391 15.72251362 70.26000005 23.55142902 71.4375 33.8125 C70.9121104 45.07411181 66.08633802 54.13480711 58.125 61.75 C52.14534535 66.05535135 46.25826837 69.13125479 38.79418945 69.11352539 C37.20287956 69.11341209 37.20287956 69.11341209 35.579422 69.11329651 C34.43559555 69.10813522 33.2917691 69.10297394 32.11328125 69.09765625 C30.94113571 69.0962413 29.76899017 69.09482635 28.56132507 69.09336853 C24.81169093 69.08776388 21.06211615 69.07521056 17.3125 69.0625 C14.77278732 69.0574856 12.2330737 69.05292259 9.69335938 69.04882812 C3.46221927 69.03779294 -2.76888612 69.02105025 -9 69 C-7.77891686 55.06826384 -6.21795076 41.21288837 -4.34057617 27.35449219 C-3.92940234 24.31514303 -3.52587464 21.27484052 -3.12304688 18.234375 C-2.86241992 16.2890034 -2.60136911 14.34368853 -2.33984375 12.3984375 C-2.22003647 11.49547943 -2.10022919 10.59252136 -1.97679138 9.66220093 C-1.86319778 8.82927521 -1.74960419 7.99634949 -1.63256836 7.13818359 C-1.53423203 6.40876556 -1.43589569 5.67934753 -1.33457947 4.92782593 C-1 3 -1 3 0 0 Z " fill="#EC9821" transform="translate(433,161)"/>
<path d="M0 0 C1.01725914 0.00212242 1.01725914 0.00212242 2.05506897 0.00428772 C4.19431203 0.0098288 6.3334455 0.02236972 8.47265625 0.03515625 C9.93424327 0.04017889 11.39583194 0.04474045 12.85742188 0.04882812 C16.41670151 0.0597788 19.97591816 0.0770018 23.53515625 0.09765625 C24.45104253 8.3555154 25.3639921 16.61369172 26.27321625 24.8722868 C26.69551723 28.70725495 27.11882086 32.54210685 27.54443359 36.37670898 C27.95529579 40.07875361 28.36350105 43.7810825 28.7698822 47.4836216 C28.92522507 48.89467583 29.08151766 50.30562584 29.23878479 51.7164669 C29.45924592 53.69570753 29.6759881 55.67536131 29.89257812 57.6550293 C30.01693237 58.78087936 30.14128662 59.90672943 30.26940918 61.06669617 C30.50603934 63.76556528 30.58698867 66.39081029 30.53515625 69.09765625 C25.1640759 69.14748074 19.7931332 69.18357491 14.421875 69.20751953 C12.59860894 69.21751268 10.77535863 69.23111176 8.95214844 69.24853516 C-17.81285254 69.49771644 -17.81285254 69.49771644 -28.46484375 61.09765625 C-35.8475373 53.46517232 -40.12639558 44.13580037 -40.57421875 33.5 C-40.18272195 23.7824902 -36.24528578 15.31646521 -29.21484375 8.59765625 C-20.49649625 1.5378496 -11.0061074 -0.0456685 0 0 Z " fill="#EC9821" transform="translate(48.46484375,203.90234375)"/>
<path d="M0 0 C4.94204732 3.97512502 9.79210761 8.5540358 11 15 C11.95991533 23.93375741 11.59905981 31.67815255 6 39 C-0.67047149 45.45529499 -7.02999726 47.45855213 -16.25952148 47.43164062 C-22.25058278 47.25046965 -26.48060573 45.93319669 -31 42 C-37.79091885 34.70931656 -39.48405582 28.33311607 -39.30859375 18.4453125 C-38.6523692 11.11885609 -35.15302364 6.38307759 -29.83203125 1.4765625 C-21.9217157 -4.8989157 -8.65350339 -5.50010809 0 0 Z " fill="#E3A899" transform="translate(270,396)"/>
<path d="M0 0 C5.94 0 11.88 0 18 0 C18 14.19 18 28.38 18 43 C12.06 43 6.12 43 0 43 C0 28.81 0 14.62 0 0 Z " fill="#0F3273" transform="translate(102,273)"/>
<path d="M0 0 C5.61 0 11.22 0 17 0 C17 14.19 17 28.38 17 43 C11.39 43 5.78 43 0 43 C0 28.81 0 14.62 0 0 Z " fill="#062C73" transform="translate(171,273)"/>
<path d="M0 0 C5.61 0 11.22 0 17 0 C17 14.19 17 28.38 17 43 C11.39 43 5.78 43 0 43 C0 28.81 0 14.62 0 0 Z " fill="#012973" transform="translate(239,273)"/>
<path d="M0 0 C5.61 0 11.22 0 17 0 C17 14.19 17 28.38 17 43 C11.39 43 5.78 43 0 43 C0 28.81 0 14.62 0 0 Z " fill="#022A74" transform="translate(401,230)"/>
<path d="M0 0 C5.61 0 11.22 0 17 0 C17 14.19 17 28.38 17 43 C11.39 43 5.78 43 0 43 C0 28.81 0 14.62 0 0 Z " fill="#032A74" transform="translate(333,230)"/>
<path d="M0 0 C5.94 0 11.88 0 18 0 C18 8.58 18 17.16 18 26 C12.06 26 6.12 26 0 26 C0 17.42 0 8.84 0 0 Z " fill="#103373" transform="translate(136,273)"/>
<path d="M0 0 C5.61 0 11.22 0 17 0 C17 8.58 17 17.16 17 26 C11.39 26 5.78 26 0 26 C0 17.42 0 8.84 0 0 Z " fill="#052C73" transform="translate(205,273)"/>
<path d="M0 0 C5.61 0 11.22 0 17 0 C17 8.58 17 17.16 17 26 C11.39 26 5.78 26 0 26 C0 17.42 0 8.84 0 0 Z " fill="#072D73" transform="translate(68,273)"/>
<path d="M0 0 C5.61 0 11.22 0 17 0 C17 8.58 17 17.16 17 26 C11.39 26 5.78 26 0 26 C0 17.42 0 8.84 0 0 Z " fill="#052C73" transform="translate(435,230)"/>
<path d="M0 0 C5.61 0 11.22 0 17 0 C17 8.58 17 17.16 17 26 C11.39 26 5.78 26 0 26 C0 17.42 0 8.84 0 0 Z " fill="#032A74" transform="translate(367,230)"/>
<path d="M0 0 C5.61 0 11.22 0 17 0 C17 8.58 17 17.16 17 26 C11.39 26 5.78 26 0 26 C0 17.42 0 8.84 0 0 Z " fill="#072D74" transform="translate(299,230)"/>
<path d="M0 0 C2.5 1.5 2.5 1.5 4 4 C4.791013 8.02098277 4.62153384 10.96411027 2.5 14.5 C-1.03588973 16.62153384 -3.97901723 16.791013 -8 16 C-10.5 14.5 -10.5 14.5 -12 12 C-12.791013 7.97901723 -12.62153384 5.03588973 -10.5 1.5 C-6.96411027 -0.62153384 -4.02098277 -0.791013 0 0 Z " fill="#F4CFC6" transform="translate(260,410)"/>
</svg>
