<?xml version="1.0" encoding="UTF-8"?>
<svg version="1.1" xmlns="http://www.w3.org/2000/svg" width="512" height="512">
<path d="M0 0 C8.43418533 7.62284312 16.46669937 16.68606273 21.88696289 26.72949219 C21.88696289 27.38949219 21.88696289 28.04949219 21.88696289 28.72949219 C22.47557791 28.72672681 23.06419292 28.72396143 23.67064476 28.72111225 C38.02786351 28.65470687 52.38506851 28.60514103 66.74240685 28.57405567 C73.68566802 28.55862141 80.62882635 28.53759823 87.57202148 28.50317383 C94.27638788 28.46994954 100.98062551 28.45262329 107.68507767 28.44486046 C110.23904727 28.4393304 112.79301125 28.42853161 115.34693527 28.41230202 C118.93250762 28.39042898 122.51764283 28.38752946 126.10327148 28.38891602 C127.15200439 28.37813019 128.2007373 28.36734436 129.28125 28.35623169 C138.98057678 28.39664432 147.05832126 30.00712352 154.19555664 36.82714844 C165.95317196 50.05107144 160.75042831 72.08135989 159.79798484 88.38618779 C159.5545467 92.50921657 159.30575237 96.63191427 159.05633521 100.75458503 C158.78658576 105.232839 158.52304941 109.71145952 158.25866699 114.19003296 C157.74118868 122.93893905 157.21794584 131.68749098 156.69252814 140.4359235 C156.26546737 147.54817343 155.84044068 154.66054223 155.41683578 161.77299881 C155.35635528 162.78842825 155.29587478 163.8038577 155.23356154 164.85005773 C155.11067559 166.91333714 154.98779306 168.97661675 154.86491393 171.03989656 C153.71502897 190.34337435 152.55843863 209.64644594 151.39962755 228.94938965 C150.40653687 245.49473532 149.4196865 262.04044385 148.43725586 278.58642578 C147.29441334 297.8340379 146.14735684 317.08139173 144.99386489 336.32836878 C144.87081031 338.38187217 144.74776249 340.43537596 144.62472153 342.48888016 C144.56419253 343.49907441 144.50366352 344.50926867 144.44130031 345.55007487 C144.01601671 352.65284223 143.59376715 359.75578619 143.17273331 366.85880661 C142.65951439 375.51590409 142.14176069 384.17271612 141.61823024 392.82919638 C141.35148964 397.24165558 141.0867673 401.65421042 140.8276329 406.06712341 C140.59002955 410.11240457 140.34644998 414.15728151 140.09825228 418.20192607 C140.00985958 419.65906321 139.92358475 421.11633083 139.8397354 422.57373647 C138.3272676 448.78688843 138.3272676 448.78688843 130.88696289 456.72949219 C124.92856237 461.54908578 120.26947378 463.85099337 112.54868221 463.86650658 C111.89988115 463.8691584 111.25108009 463.87181023 110.58261839 463.87454242 C108.39351967 463.88224404 106.20447697 463.88279492 104.0153656 463.88339233 C102.43597892 463.8874064 100.85659327 463.89184453 99.27720886 463.89667189 C94.92508945 463.90864966 90.57298112 463.91428864 86.22084844 463.91885304 C81.53149713 463.92480464 76.84215912 463.93641564 72.15281677 463.94714355 C60.82133317 463.97167858 49.48984516 463.98629676 38.15834317 463.99920362 C34.95831363 464.00291489 31.75828453 464.00688818 28.55825543 464.01095629 C8.69102202 464.03619323 -11.17621207 464.05824869 -31.04345798 464.07068443 C-35.64648504 464.07361419 -40.24951207 464.07657584 -44.85253906 464.07958984 C-46.56865376 464.08070892 -46.56865376 464.08070892 -48.31943744 464.0818506 C-66.85206934 464.09450373 -85.3846053 464.12772548 -103.91719235 464.16939168 C-122.93996501 464.21180965 -141.96268855 464.23537936 -160.98550838 464.240605 C-171.66780372 464.24401937 -182.34994914 464.25577767 -193.03219795 464.28870773 C-202.13009985 464.31670754 -211.22782111 464.32770787 -220.32576276 464.31651227 C-224.96705255 464.31132538 -229.60796406 464.31421441 -234.24919891 464.33897781 C-238.50147036 464.36147628 -242.7530919 464.360726 -247.00537478 464.34177394 C-248.54045507 464.33897475 -250.07557949 464.34456809 -251.61058886 464.35958688 C-261.26050041 464.44820019 -269.61018723 463.81010844 -277.01436335 456.97405469 C-283.56648947 450.06625685 -284.62466618 442.62037754 -285.16586304 433.46469116 C-285.24262311 432.33303162 -285.31938319 431.20137208 -285.39846933 430.03541982 C-285.64993529 426.26751349 -285.88222927 422.49871656 -286.11303711 418.72949219 C-286.23896797 416.76476999 -286.36490771 414.80004823 -286.49170794 412.83538194 C-287.05903782 404.03002359 -287.5918884 395.22266975 -288.12057114 386.41492057 C-288.37530447 382.17900668 -288.63253709 377.94324434 -288.88938904 373.7074585 C-289.44739543 364.49734682 -290.00221926 355.28704519 -290.55633593 346.07669878 C-290.90326704 340.3103533 -291.25087769 334.54404891 -291.59861374 328.77775192 C-292.56439253 312.76103074 -293.5294326 296.74426551 -294.49147987 280.72731972 C-294.55272947 279.70760016 -294.61397906 278.68788061 -294.67708471 277.63726046 C-294.80119969 275.57088114 -294.9253145 273.50450181 -295.04942913 271.43812247 C-295.11102523 270.41262897 -295.17262134 269.38713547 -295.23608398 268.33056641 C-295.29775589 267.30380048 -295.3594278 266.27703456 -295.42296855 265.21915452 C-296.4239217 248.5568759 -297.43038415 231.89493501 -298.4392217 215.23313208 C-299.47889323 198.06081462 -300.51404503 180.88822956 -301.54468572 163.71536767 C-302.12189684 154.09938981 -302.70098064 144.48353328 -303.28505325 134.86796951 C-303.78178962 126.68983214 -304.27434721 118.51145605 -304.76162912 110.33274968 C-305.00976325 106.17000386 -305.25974711 102.00739294 -305.51506996 97.84508133 C-307.27043535 69.1869628 -307.27043535 69.1869628 -307.35653687 56.96859741 C-307.36617419 56.19292439 -307.37581151 55.41725137 -307.38574088 54.61807311 C-307.3478875 47.06935882 -305.18671596 42.28705396 -300.35131836 36.69042969 C-293.45924741 29.89621776 -285.03831173 28.37970383 -275.59619141 28.42607117 C-274.56002686 28.4463588 -273.5238623 28.46664642 -272.45629883 28.48754883 C-270.77626266 28.50117462 -270.77626266 28.50117462 -269.06228638 28.51507568 C-266.64731003 28.53531528 -264.2323793 28.56178133 -261.81753159 28.59388924 C-257.99181079 28.64026563 -254.16682752 28.66010689 -250.34085083 28.67149353 C-239.46925315 28.70444101 -228.59852148 28.75086212 -217.7277832 28.8972168 C-211.06326172 28.98664747 -204.4010079 29.01285626 -197.73578262 29.00338554 C-195.20234553 29.01085893 -192.66887372 29.0401106 -190.135952 29.09175301 C-177.79243814 29.97619375 -177.79243814 29.97619375 -166.31912994 26.57450485 C-163.19810451 23.45111919 -161.77415036 19.73572161 -160.11303711 15.72949219 C-157.3112282 12.20149385 -154.22766587 8.98218073 -151.11303711 5.72949219 C-150.48913086 5.04242188 -149.86522461 4.35535156 -149.22241211 3.64746094 C-110.39594657 -37.70761895 -41.25824901 -35.88931373 0 0 Z " fill="#788695" transform="translate(329.113037109375,37.2705078125)"/>
<path d="M0 0 C11.92860674 10.79263361 20.5156348 22.9974288 26.88818359 37.73217773 C27.17564453 38.39507812 27.46310547 39.05797852 27.75927734 39.7409668 C38.62290062 65.3605945 39.56817043 95.08937294 29.28320312 121.11230469 C28.50500852 122.99502596 27.70376017 124.86537957 26.88818359 126.73217773 C26.20949219 128.30225586 26.20949219 128.30225586 25.51708984 129.90405273 C13.30084432 156.06689017 -9.29078672 175.10409234 -36.04150391 185.27124023 C-61.7779629 194.45499047 -91.66102742 193.8387046 -116.55493164 182.4387207 C-118.41582208 181.55298473 -120.26551874 180.64788803 -122.11181641 179.73217773 C-123.13146484 179.23588867 -124.15111328 178.73959961 -125.20166016 178.22827148 C-131.84092394 174.81086642 -137.45905259 170.5863765 -143.11181641 165.73217773 C-144.32998047 164.73250977 -144.32998047 164.73250977 -145.57275391 163.71264648 C-162.22518224 149.55545584 -173.61068728 129.79691801 -179.11181641 108.73217773 C-179.38457397 107.69492554 -179.38457397 107.69492554 -179.6628418 106.63671875 C-181.50007385 98.76509432 -181.55079083 90.83584234 -181.54931641 82.79467773 C-181.55071625 82.06495758 -181.55211609 81.33523743 -181.55355835 80.58340454 C-181.53482904 68.69875914 -180.348845 57.9030623 -176.11181641 46.73217773 C-175.70447266 45.61584961 -175.29712891 44.49952148 -174.87744141 43.34936523 C-173.72269779 40.41751618 -172.45735032 37.58083061 -171.11181641 34.73217773 C-170.67224609 33.75120117 -170.23267578 32.77022461 -169.77978516 31.75952148 C-158.06958019 6.75839518 -135.68108101 -11.27492414 -110.11181641 -20.80688477 C-72.31076119 -34.17842965 -30.25859336 -26.29163074 0 0 Z " fill="#A4E1FA" transform="translate(329.11181640625,37.267822265625)"/>
<path d="M0 0 C10.70808517 -0.37449041 20.55619164 1.38356513 29.01171875 8.359375 C36.19780497 15.60741024 40.86682194 23.69967833 41.19921875 33.9375 C40.64019803 51.13813748 32.19503836 64.92822254 22.76171875 78.75 C7.7068193 100.90379642 1.03220896 123.6315125 4.44921875 150.5 C6.71820675 161.64151347 11.66453976 171.58479547 17.75219727 181.08911133 C23.13190103 189.54427306 24.21114893 197.53521812 22.171875 207.31640625 C18.9077201 218.28564782 13.30257826 224.7840499 3.66796875 230.77734375 C-4.89431763 235.02320279 -14.7669597 235.63970244 -24.0546875 233.53515625 C-35.03479939 229.53145348 -43.26278361 221.50814841 -48.31445312 211.08374023 C-50.54967126 205.91565577 -50.71407324 201.29164851 -50.64453125 195.72265625 C-50.65569491 193.69791539 -50.66709693 191.67317583 -50.67871094 189.6484375 C-50.67695862 188.07980957 -50.67695862 188.07980957 -50.6751709 186.47949219 C-50.67866469 167.99311869 -51.40426414 150.32655194 -55.17578125 132.1875 C-55.56616936 130.13977281 -55.95413887 128.09158323 -56.33984375 126.04296875 C-59.10350626 111.74827917 -62.81240117 97.76708734 -67.22265625 83.89453125 C-71.54689647 69.75916109 -69.31143738 54.59330072 -62.49072266 41.59033203 C-58.58899665 34.67061241 -53.82623671 28.76223746 -48.17578125 23.1875 C-47.41652344 22.41792969 -46.65726563 21.64835937 -45.875 20.85546875 C-33.46572951 8.93363278 -17.17904639 1.01426104 0 0 Z " fill="#56637B" transform="translate(135.17578125,222.8125)"/>
<path d="M0 0 C3.50812317 2.83464394 6.76471498 5.86070075 10 9 C10.93779297 9.82757813 10.93779297 9.82757813 11.89453125 10.671875 C21.06043281 19.03084618 29.08618736 32.7567481 30.20874023 45.33984375 C30.70966267 58.37117544 29.92634995 69.41169439 25.71875 81.75390625 C17.76151037 105.16205291 12.78701679 131.78460708 12.9296875 156.546875 C12.92110262 158.5468837 12.91062646 160.54688502 12.8984375 162.546875 C12.8818014 165.64510446 12.87493142 168.74165442 12.90039062 171.83984375 C12.9993585 185.96525822 12.57996921 197.58119797 2.69238281 208.56298828 C-1.63872592 212.7560814 -6.40796026 215.78648427 -12 218 C-13.546875 218.61875 -13.546875 218.61875 -15.125 219.25 C-26.91718428 221.53235825 -36.94316318 220.2105898 -47.08984375 213.6484375 C-54.6107624 207.75677694 -59.34498184 199.34196202 -61 190 C-62.22018125 178.62670567 -59.06727747 171.15438925 -53.0625 161.6875 C-41.8025104 143.86442522 -39.19955243 123.40562856 -43.38452148 102.8972168 C-47.07451036 87.02631263 -53.84662968 74.26199228 -63.19873047 61.03491211 C-73.19146896 46.7886067 -80.82445806 31.83458998 -79 14 C-76.49172323 3.71181392 -70.38988452 -3.81655732 -61.62109375 -9.5234375 C-42.00966619 -20.57130578 -17.1841931 -11.76999528 0 0 Z " fill="#56637B" transform="translate(415,237)"/>
<path d="M0 0 C11.92860674 10.79263361 20.5156348 22.9974288 26.88818359 37.73217773 C27.17564453 38.39507812 27.46310547 39.05797852 27.75927734 39.7409668 C38.62290062 65.3605945 39.56817043 95.08937294 29.28320312 121.11230469 C28.50500852 122.99502596 27.70376017 124.86537957 26.88818359 126.73217773 C26.20949219 128.30225586 26.20949219 128.30225586 25.51708984 129.90405273 C13.30084432 156.06689017 -9.29078672 175.10409234 -36.04150391 185.27124023 C-61.7779629 194.45499047 -91.66102742 193.8387046 -116.55493164 182.4387207 C-118.41582208 181.55298473 -120.26551874 180.64788803 -122.11181641 179.73217773 C-123.13146484 179.23588867 -124.15111328 178.73959961 -125.20166016 178.22827148 C-131.84092394 174.81086642 -137.45905259 170.5863765 -143.11181641 165.73217773 C-144.32998047 164.73250977 -144.32998047 164.73250977 -145.57275391 163.71264648 C-162.22518224 149.55545584 -173.61068728 129.79691801 -179.11181641 108.73217773 C-179.38457397 107.69492554 -179.38457397 107.69492554 -179.6628418 106.63671875 C-181.50007385 98.76509432 -181.55079083 90.83584234 -181.54931641 82.79467773 C-181.55071625 82.06495758 -181.55211609 81.33523743 -181.55355835 80.58340454 C-181.53482904 68.69875914 -180.348845 57.9030623 -176.11181641 46.73217773 C-175.70447266 45.61584961 -175.29712891 44.49952148 -174.87744141 43.34936523 C-173.72269779 40.41751618 -172.45735032 37.58083061 -171.11181641 34.73217773 C-170.67224609 33.75120117 -170.23267578 32.77022461 -169.77978516 31.75952148 C-158.06958019 6.75839518 -135.68108101 -11.27492414 -110.11181641 -20.80688477 C-72.31076119 -34.17842965 -30.25859336 -26.29163074 0 0 Z M-139.36572266 26.13452148 C-155.43077883 45.0290396 -160.72374092 68.42723778 -159.11181641 92.73217773 C-157.15986336 108.36792533 -150.09781744 123.68913529 -140.11181641 135.73217773 C-139.42345703 136.58295898 -138.73509766 137.43374023 -138.02587891 138.31030273 C-124.19547352 154.58724193 -104.22433122 164.87985566 -83.11181641 167.73217773 C-57.10661578 169.14373351 -33.47831049 161.96470599 -13.86181641 144.54467773 C1.48148931 130.20976915 12.38806318 108.83712022 13.18896484 87.68920898 C13.48736769 61.59776726 6.05456256 39.52187044 -12.30322266 20.51733398 C-23.46012469 9.45353544 -36.90484401 1.76754751 -52.11181641 -2.26782227 C-52.93166016 -2.49211914 -53.75150391 -2.71641602 -54.59619141 -2.94750977 C-86.76509751 -10.24046053 -117.47248752 2.79944417 -139.36572266 26.13452148 Z " fill="#5FA7EC" transform="translate(329.11181640625,37.267822265625)"/>
<path d="M0 0 C0.7031987 0.0028299 1.4063974 0.00565979 2.13090515 0.00857544 C4.36218767 0.01971099 6.59305892 0.04480253 8.82421875 0.0703125 C10.34309313 0.0803509 11.86197385 0.08947524 13.38085938 0.09765625 C17.09127796 0.11962837 20.80145817 0.15411203 24.51171875 0.1953125 C22.81720195 1.32499037 21.11529713 2.44426236 19.390625 3.52734375 C13.26461299 7.44261955 8.73441602 11.01429056 6.51171875 18.1953125 C6.40859375 19.3915625 6.30546875 20.5878125 6.19921875 21.8203125 C5.97234375 22.9340625 5.74546875 24.0478125 5.51171875 25.1953125 C4.66609375 25.6696875 3.82046875 26.1440625 2.94921875 26.6328125 C0.36996726 27.9020202 0.36996726 27.9020202 0.0078125 30.04296875 C-0.11735015 32.26763385 -0.0807138 34.04432663 0.51171875 36.1953125 C1.33671875 36.6903125 2.16171875 37.1853125 3.01171875 37.6953125 C3.83671875 38.1903125 4.66171875 38.6853125 5.51171875 39.1953125 C6.16095246 41.93136887 6.17248137 44.46416035 5.51171875 47.1953125 C5.01381836 47.63077393 4.51591797 48.06623535 4.00292969 48.51489258 C2.01180461 50.75865714 2.15116406 52.05249414 2.18359375 55.01953125 C2.18875 55.96634766 2.19390625 56.91316406 2.19921875 57.88867188 C2.21984375 58.87673828 2.24046875 59.86480469 2.26171875 60.8828125 C2.266875 61.85154297 2.27203125 62.82027344 2.27734375 63.81835938 C2.32274064 68.01473426 2.43935639 72.14656649 2.99609375 76.30859375 C3.69449453 81.57305416 3.88741133 86.8270339 4.1171875 92.12890625 C4.29254399 95.85976679 4.51959349 99.54296983 5.015625 103.24609375 C5.5459553 107.46785698 5.77194579 111.63549716 5.94921875 115.8828125 C6.29383863 123.17239915 6.82728563 130.4297432 7.51171875 137.6953125 C7.59478271 138.59725342 7.67784668 139.49919434 7.76342773 140.4284668 C7.84536377 141.26933838 7.9272998 142.11020996 8.01171875 142.9765625 C8.08390625 143.71970703 8.15609375 144.46285156 8.23046875 145.22851562 C8.4816131 147.40290998 8.4816131 147.40290998 9.51171875 150.1953125 C10.50171875 150.5253125 11.49171875 150.8553125 12.51171875 151.1953125 C15.73927117 192.87112106 15.73927117 192.87112106 16.22045898 210.06201172 C16.37782402 215.57313605 16.74259568 221.01455414 17.27539062 226.50195312 C17.65529191 230.83157189 17.79462184 235.16533088 17.94921875 239.5078125 C18.56347257 254.96376665 19.68174684 270.38613437 20.76611328 285.81494141 C21.8790705 301.6773043 22.80335782 317.5361275 23.56832886 333.41824341 C24.30341888 348.62092954 25.16453232 363.81461876 26.07421875 379.0078125 C26.13833954 380.08857056 26.20246033 381.16932861 26.26852417 382.28283691 C26.45302256 385.38529888 26.64009067 388.48759428 26.828125 391.58984375 C26.88223541 392.49976578 26.93634583 393.40968781 26.99209595 394.34718323 C27.15287019 396.96425745 27.32751561 399.57978572 27.51171875 402.1953125 C27.57890106 403.16391205 27.64608337 404.1325116 27.71530151 405.13046265 C27.79112457 406.09634308 27.86694763 407.06222351 27.94506836 408.05737305 C28.01140976 408.92678024 28.07775116 409.79618744 28.14610291 410.69194031 C29.13724415 417.47828575 32.5987201 423.49592249 37.51171875 428.1953125 C40.75570112 430.07891517 44.07816454 431.6885489 47.51171875 433.1953125 C47.51171875 433.5253125 47.51171875 433.8553125 47.51171875 434.1953125 C43.28004391 434.3202711 39.04938702 434.41027727 34.81640625 434.4699707 C33.38099427 434.49489105 31.94570618 434.52884125 30.51074219 434.57250977 C20.70009571 434.8632716 12.20834967 434.46224382 4.61181641 427.4387207 C-1.94501329 420.53728786 -3.0001077 413.08285882 -3.54110718 403.93051147 C-3.61786725 402.79885193 -3.69462733 401.66719239 -3.77371347 400.50124013 C-4.02517943 396.7333338 -4.25747341 392.96453687 -4.48828125 389.1953125 C-4.61421211 387.2305903 -4.74015185 385.26586854 -4.86695208 383.30120225 C-5.43428196 374.4958439 -5.96713254 365.68849007 -6.49581528 356.88074088 C-6.75054862 352.644827 -7.00778123 348.40906466 -7.26463318 344.17327881 C-7.82263957 334.96316713 -8.3774634 325.7528655 -8.93158007 316.54251909 C-9.27851118 310.77617361 -9.62612183 305.00986922 -9.97385788 299.24357224 C-10.93963667 283.22685106 -11.90467675 267.21008583 -12.86672401 251.19314003 C-12.92797361 250.17342047 -12.9892232 249.15370092 -13.05232885 248.10308077 C-13.17644383 246.03670145 -13.30055864 243.97032212 -13.42467327 241.90394278 C-13.48626937 240.87844928 -13.54786548 239.85295578 -13.61132812 238.79638672 C-13.70383599 237.25623784 -13.70383599 237.25623784 -13.79821269 235.68497483 C-14.79916584 219.02269622 -15.80562829 202.36075532 -16.81446584 185.69895239 C-17.85413737 168.52663493 -18.88928917 151.35404987 -19.91992986 134.18118799 C-20.49714098 124.56521012 -21.07622478 114.94935359 -21.66029739 105.33378983 C-22.15703377 97.15565245 -22.64959135 88.97727636 -23.13687326 80.79856999 C-23.38500739 76.63582417 -23.63499125 72.47321326 -23.8903141 68.31090164 C-25.64567949 39.65278311 -25.64567949 39.65278311 -25.73178101 27.43441772 C-25.74141833 26.6587447 -25.75105565 25.88307168 -25.76098502 25.08389342 C-25.7231405 17.53694538 -23.63176502 12.56061468 -18.55078125 7.12109375 C-12.67471011 1.6345349 -8.11341277 -0.06464871 0 0 Z " fill="#616D77" transform="translate(47.48828125,66.8046875)"/>
<path d="M0 0 C16.76786841 14.63529662 28.54470938 34.05572802 30.94140625 56.46484375 C32.39477919 80.1019496 27.30619932 101.9350184 11.94140625 120.46484375 C11.25304687 121.315625 10.5646875 122.16640625 9.85546875 123.04296875 C-4.6629227 140.12959551 -25.82396133 150.45021407 -48.05859375 152.46484375 C-72.17009384 154.20900315 -94.19985989 146.39555613 -112.65698242 130.69335938 C-128.38362166 116.74989417 -139.54831547 96.0437777 -141.26416016 74.93603516 C-142.20026042 50.21818756 -136.19867509 28.17220244 -119.68359375 9.27734375 C-118.15977901 7.65620975 -116.6185229 6.05125727 -115.05859375 4.46484375 C-114.37152344 3.76488281 -113.68445313 3.06492187 -112.9765625 2.34375 C-82.1640038 -26.98248862 -32.13337598 -26.63417754 0 0 Z M-106.80859375 21.33984375 C-120.71259702 37.44694613 -124.4026011 55.76173919 -123.05859375 76.46484375 C-120.91693081 94.06627034 -110.88722799 109.31533317 -97.58984375 120.55078125 C-81.74984769 132.32792118 -64.37648467 135.91905985 -45.05859375 134.46484375 C-41.16777828 133.87226383 -37.72040421 132.8872943 -34.05859375 131.46484375 C-33.07761719 131.11292969 -32.09664063 130.76101562 -31.0859375 130.3984375 C-23.97508137 127.67455708 -18.04753663 124.14211663 -12.05859375 119.46484375 C-11.37152344 118.954375 -10.68445313 118.44390625 -9.9765625 117.91796875 C-0.30865589 110.21415362 6.0262544 99.02605686 9.94140625 87.46484375 C10.25980469 86.54574219 10.57820312 85.62664062 10.90625 84.6796875 C16.24614941 66.7897941 12.89549437 48.41294265 4.17578125 32.26953125 C-4.05913844 17.81155053 -16.04060174 9.00520411 -31.05859375 2.46484375 C-32.05246094 2.02785156 -33.04632813 1.59085938 -34.0703125 1.140625 C-60.25293592 -8.61368568 -88.4671371 1.83869434 -106.80859375 21.33984375 Z " fill="#5FCCA5" transform="translate(311.05859375,52.53515625)"/>
<path d="M0 0 C5.94 0 11.88 0 18 0 C18.2475 2.2275 18.495 4.455 18.75 6.75 C21.0894597 25.05622248 29.18806049 41.04805746 43.40625 53.02734375 C59.30216235 64.82025275 76.61650786 68.45915444 96 67 C99.89081547 66.40742008 103.33818954 65.42245055 107 64 C108.47146484 63.47212891 108.47146484 63.47212891 109.97265625 62.93359375 C117.08550654 60.20894946 122.99246792 56.65268656 129 52 C129.92039062 51.34451172 129.92039062 51.34451172 130.859375 50.67578125 C144.24265862 40.45414491 151.05168961 22.33552259 153.40234375 6.24609375 C153.63973934 4.16806931 153.826307 2.08431595 154 0 C159.94 0 165.88 0 172 0 C173.08254853 19.48587362 165.35172858 39.10390785 153 54 C152.31164062 54.85078125 151.62328125 55.7015625 150.9140625 56.578125 C136.39567105 73.66475176 115.23463242 83.98537032 93 86 C68.88849991 87.7441594 46.85873386 79.93071238 28.40161133 64.22851562 C13.10331225 50.66482299 2.77320564 31.30795379 0 11 C-0.14915119 7.31316898 -0.09467875 3.69247123 0 0 Z " fill="#E67188" transform="translate(170,119)"/>
<path d="M0 0 C1.48983398 -0.01836914 1.48983398 -0.01836914 3.00976562 -0.03710938 C4.44545898 -0.04000977 4.44545898 -0.04000977 5.91015625 -0.04296875 C6.77906494 -0.04707764 7.64797363 -0.05118652 8.54321289 -0.05541992 C11.1023405 0.20422441 12.73203988 0.89808038 14.9375 2.1875 C14.19886719 2.40664063 13.46023438 2.62578125 12.69921875 2.8515625 C-5.03027022 8.3934358 -20.06500193 18.42899647 -29.09521484 35.09326172 C-38.43260555 53.54690628 -39.46894441 72.62002452 -33.03125 92.34765625 C-27.19026201 107.64078359 -15.65181497 120.71583295 -1.0625 128.1875 C2.6225414 129.6910595 6.37183755 130.93940987 10.1640625 132.14453125 C12.9375 133.1875 12.9375 133.1875 13.9375 135.1875 C-1.10396945 139.39284681 -18.31711871 135.84285446 -31.875 128.9375 C-49.04668559 119.0469458 -60.66975675 104.98567551 -66.5625 86.0625 C-71.06568715 66.90385109 -68.20075161 48.06111784 -58.0625 31.1875 C-47.29084323 15.42466606 -32.31682754 4.95313595 -13.68505859 0.63671875 C-9.14492621 -0.14096172 -4.5954051 0.00299375 0 0 Z " fill="#89BCCC" transform="translate(256.0625,50.8125)"/>
<path d="M0 0 C0.84817291 -0.00990463 1.69634583 -0.01980927 2.57022095 -0.03001404 C3.49757553 -0.02551239 4.42493011 -0.02101074 5.38038635 -0.01637268 C6.35950989 -0.02323593 7.33863342 -0.03009918 8.34742737 -0.03717041 C11.59106356 -0.05550437 14.83421912 -0.0515914 18.07789612 -0.0459137 C20.32847248 -0.05047239 22.57904744 -0.05577703 24.82962036 -0.0617981 C29.54988759 -0.07074223 34.26998575 -0.06829128 38.99024963 -0.05836487 C45.04452607 -0.04687494 51.0982193 -0.06708089 57.15241909 -0.09628201 C61.80122598 -0.114613 66.44989232 -0.11435769 71.09872627 -0.10864449 C73.33108908 -0.10849088 75.56346118 -0.1145671 77.79578972 -0.12693596 C80.91550838 -0.14178489 84.03413963 -0.13121317 87.15382385 -0.11402893 C88.07915421 -0.1236969 89.00448456 -0.13336487 89.95785522 -0.14332581 C96.17946909 -0.07142836 96.17946909 -0.07142836 99.44058228 2.22372437 C100.83180237 4.38768005 100.83180237 4.38768005 100.76930237 7.51268005 C99.83180237 10.38768005 99.83180237 10.38768005 96.83180237 12.38768005 C94.89368439 12.64494896 94.89368439 12.64494896 92.65687561 12.65510559 C91.80725754 12.66363556 90.95763947 12.67216553 90.08227539 12.68095398 C88.68888695 12.67959442 88.68888695 12.67959442 87.26734924 12.6782074 C86.28661942 12.68492462 85.30588959 12.69164185 84.29544067 12.69856262 C81.04709334 12.7175921 77.798952 12.72146905 74.55055237 12.72361755 C72.29758111 12.73004105 70.04461071 12.73676907 67.79164124 12.74378967 C63.06721562 12.75577414 58.34286321 12.75946919 53.61842346 12.75828552 C47.5551077 12.75808205 41.49225915 12.78540906 35.42905426 12.81982994 C30.7760145 12.84202902 26.12308853 12.84612525 21.47000122 12.84506607 C19.23401272 12.84743163 16.99802153 12.85630846 14.76208496 12.8717308 C11.63980517 12.89125316 8.51855061 12.88560721 5.39625549 12.8735199 C4.46732986 12.88475891 3.53840424 12.89599792 2.58132935 12.90757751 C-3.65990484 12.84595268 -3.65990484 12.84595268 -6.24253845 10.51747131 C-7.38601666 7.88651389 -7.60499011 6.22683118 -7.16819763 3.38768005 C-4.97930007 0.56583886 -3.52364615 0.01161989 0 0 Z " fill="#4B565E" transform="translate(209.16819763183594,351.61231994628906)"/>
<path d="M0 0 C2.5625 0.5 2.5625 0.5 4.65985107 2.55938721 C6.92964046 6.06742887 7.3232564 8.98901554 7.56738281 13.04980469 C7.62648834 13.79375992 7.68559387 14.53771515 7.74649048 15.30421448 C7.93699211 17.75913874 8.10163721 20.21504854 8.265625 22.671875 C8.39303708 24.39530614 8.52186541 26.11863311 8.65203857 27.84185791 C8.92159686 31.4591426 9.17932507 35.07700313 9.42773438 38.69580078 C9.74297798 43.28579198 10.07886214 47.87394618 10.42284012 52.46186447 C10.68919736 56.02731215 10.94838786 59.59325136 11.20516205 63.15940094 C11.32678361 64.84799897 11.44955142 66.53651491 11.57358551 68.22493744 C12.19676139 76.80269257 12.70087166 85.38595763 12.88574219 93.98535156 C12.9148531 94.69882626 12.943964 95.41230095 12.97395706 96.14739609 C13.00687248 99.38067116 12.97602061 101.05190294 10.73760986 103.47747803 C7.6493503 104.92927286 5.77762844 104.47851735 2.5625 103.5 C0.59261416 100.54517125 0.26680989 99.63303785 -0.03515625 96.28125 C-0.11386963 95.44037842 -0.19258301 94.59950684 -0.27368164 93.7331543 C-0.3483667 92.83121338 -0.42305176 91.92927246 -0.5 91 C-0.58306396 90.07034424 -0.66612793 89.14068848 -0.75170898 88.18286133 C-1.36232541 81.09502765 -1.79853205 74.00222524 -2.09594727 66.89453125 C-2.27636769 62.74532286 -2.64695456 58.69068655 -3.19897461 54.56958008 C-3.73454806 49.92264438 -3.84053827 45.23730222 -4.04296875 40.56640625 C-4.24738133 36.21735235 -4.63710502 31.97576642 -5.21484375 27.65673828 C-5.67717499 23.17841129 -5.66355788 18.68562651 -5.6875 14.1875 C-5.708125 13.19943359 -5.72875 12.21136719 -5.75 11.19335938 C-5.75515625 10.24654297 -5.7603125 9.29972656 -5.765625 8.32421875 C-5.7749707 7.46916748 -5.78431641 6.61411621 -5.79394531 5.7331543 C-5.21117509 2.08205893 -3.54533473 0.72724815 0 0 Z " fill="#EFF3F7" transform="translate(54.4375,113.5)"/>
<path d="M0 0 C4.88049925 3.9419417 9.0580583 8.11950075 13 13 C12.56429687 13.46148437 12.12859375 13.92296875 11.6796875 14.3984375 C-0.72666428 27.98634659 -5.26559903 43.025299 -7 61 C-12.94 61 -18.88 61 -25 61 C-25.97916745 39.78470534 -17.48932957 19.60277859 -3.5625 3.8125 C-2.38285861 2.53436863 -1.1983527 1.26060479 0 0 Z " fill="#5FCCA5" transform="translate(195,58)"/>
<path d="M0 0 C9.88958522 4.13524692 15.89420831 17.58375027 20 27 C24.20436676 37.91228844 26.16047951 48.28499571 26 60 C20.06 60 14.12 60 8 60 C7.649375 57.195 7.29875 54.39 6.9375 51.5 C4.70859921 36.397927 -1.27128326 24.64798739 -11 13 C-9.46356148 9.31930113 -7.21849055 7.01224796 -4.375 4.25 C-3.55773437 3.45078125 -2.74046875 2.6515625 -1.8984375 1.828125 C-0.95871094 0.92320313 -0.95871094 0.92320313 0 0 Z " fill="#4CA988" transform="translate(316,59)"/>
<path d="M0 0 C1.505625 0.020625 3.01125 0.04125 4.5625 0.0625 C4.5625 6.0025 4.5625 11.9425 4.5625 18.0625 C2.21125 18.289375 -0.14 18.51625 -2.5625 18.75 C-17.96785737 20.54510575 -30.89083332 26.76412161 -42.4375 37.0625 C-46.11819887 35.52606148 -48.42525204 33.28099055 -51.1875 30.4375 C-51.98671875 29.62023437 -52.7859375 28.80296875 -53.609375 27.9609375 C-54.21265625 27.33445312 -54.8159375 26.70796875 -55.4375 26.0625 C-51.30225308 16.17291478 -37.85374973 10.16829169 -28.4375 6.0625 C-19.25280449 2.52375295 -9.92265443 -0.13592677 0 0 Z " fill="#4CA988" transform="translate(251.4375,32.9375)"/>
<path d="M0 0 C2.5 0.375 2.5 0.375 4.3125 1.4375 C6.21786443 4.54625249 5.88183213 6.778505 5.5 10.375 C4.02215671 13.21385392 2.12243234 15.63320316 0.125 18.125 C-0.88291158 19.43221528 -1.89072772 20.73950415 -2.8984375 22.046875 C-3.34880371 22.6150293 -3.79916992 23.18318359 -4.26318359 23.76855469 C-5.4080303 25.25554468 -6.45902217 26.81353326 -7.5 28.375 C-7.21281674 30.0502357 -6.86871088 31.71580104 -6.5 33.375 C-6.14173066 39.01774215 -6.29387476 42.51053412 -9.5 47.375 C-14.59369001 51.97174464 -17.90411735 52.83732535 -24.6640625 52.79296875 C-29.13575386 52.13391782 -31.75489985 49.86439844 -34.5 46.375 C-36.80405737 42.47284224 -37.16556716 38.8259804 -36.5 34.375 C-34.61351762 29.06926831 -31.56548426 25.90774213 -26.5 23.375 C-25.25347656 23.36984375 -24.00695312 23.3646875 -22.72265625 23.359375 C-19.84423431 23.04292696 -18.76040772 22.6341487 -16.68212891 20.56591797 C-14.89249529 18.10562109 -13.27189246 15.59711643 -11.6875 13 C-10.57920587 11.2614994 -9.46861689 9.52445912 -8.35546875 7.7890625 C-7.87746826 7.0151416 -7.39946777 6.2412207 -6.90698242 5.44384766 C-3.56878856 0.53531828 -3.56878856 0.53531828 0 0 Z " fill="#7FBACC" transform="translate(278.5,82.625)"/>
<path d="M0 0 C0.80771347 -0.00945648 1.61542694 -0.01891296 2.44761658 -0.02865601 C3.31640945 -0.02258331 4.18520233 -0.01651062 5.08032227 -0.01025391 C5.97662857 -0.01312408 6.87293488 -0.01599426 7.79640198 -0.01895142 C9.69191113 -0.02099276 11.58744131 -0.015458 13.48291016 -0.00292969 C16.38239789 0.01310435 19.2804877 -0.00276615 22.17993164 -0.02197266 C24.02173159 -0.01998987 25.86353067 -0.01614546 27.70532227 -0.01025391 C29.00547523 -0.01936295 29.00547523 -0.01936295 30.33189392 -0.02865601 C36.37355374 0.04180307 36.37355374 0.04180307 39.53759766 1.91308594 C40.24130493 2.64325928 40.24130493 2.64325928 40.95922852 3.38818359 C40.64672852 6.76318359 40.64672852 6.76318359 39.95922852 10.38818359 C36.02633249 13.01011427 32.62394976 12.71211915 28.05688477 12.72412109 C27.18277451 12.73077789 26.30866425 12.73743469 25.4080658 12.74429321 C23.55966293 12.75441648 21.71122353 12.75911033 19.86279297 12.75878906 C17.03560165 12.76316213 14.2099717 12.79948362 11.38305664 12.83740234 C9.58683802 12.8432706 7.79061199 12.84723994 5.99438477 12.84912109 C5.1494899 12.86349213 4.30459503 12.87786316 3.43409729 12.89266968 C-2.41757648 12.84714006 -2.41757648 12.84714006 -5.578125 10.51953125 C-7.39761248 7.86819997 -7.60666746 6.54103262 -7.04077148 3.38818359 C-4.87767854 0.62562819 -3.47106352 0.01167456 0 0 Z " fill="#4B565E" transform="translate(239.040771484375,391.61181640625)"/>
<path d="M0 0 C0.87411026 -0.0066568 1.74822052 -0.0133136 2.64881897 -0.02017212 C4.49722184 -0.03029538 6.34566123 -0.03498924 8.1940918 -0.03466797 C11.02128312 -0.03904104 13.84691307 -0.07536252 16.67382812 -0.11328125 C18.47004674 -0.11914951 20.26627278 -0.12311884 22.0625 -0.125 C22.90739487 -0.13937103 23.75228973 -0.15374207 24.62278748 -0.16854858 C28.47609271 -0.1385675 30.46404968 -0.11633751 33.66625977 2.16943359 C35.09765625 4.3359375 35.09765625 4.3359375 35.03515625 7.4609375 C34.09765625 10.3359375 34.09765625 10.3359375 31.09765625 12.3359375 C29.20056152 12.60336304 29.20056152 12.60336304 27.04101562 12.62646484 C25.82460388 12.6456044 25.82460388 12.6456044 24.58361816 12.66513062 C23.71168823 12.66735626 22.8397583 12.66958191 21.94140625 12.671875 C21.04272827 12.6785318 20.14405029 12.6851886 19.21813965 12.69204712 C17.31846158 12.70217021 15.41874798 12.70686424 13.51904297 12.70654297 C10.60845681 12.71092125 7.69938081 12.74725764 4.7890625 12.78515625 C2.94401561 12.79102339 1.09896151 12.79499347 -0.74609375 12.796875 C-1.61802368 12.81124603 -2.48995361 12.82561707 -3.38830566 12.84042358 C-9.38160255 12.79494765 -9.38160255 12.79494765 -11.98242188 10.50244141 C-13.29217357 7.41785103 -12.865301 5.49993989 -11.90234375 2.3359375 C-7.96944773 -0.28599318 -4.56706499 0.01200194 0 0 Z " fill="#4B565E" transform="translate(244.90234375,311.6640625)"/>
<path d="M0 0 C2.5625 0.3125 2.5625 0.3125 4.375 1.375 C6.27693384 4.47815521 5.93671894 6.72290476 5.5625 10.3125 C4.12978677 13.13219774 2.27345966 15.52759412 0.3125 18 C-0.17863281 18.65033203 -0.66976563 19.30066406 -1.17578125 19.97070312 C-3.73305467 23.31561676 -6.36293446 26.42094432 -9.4375 29.3125 C-10.18 28.69375 -10.9225 28.075 -11.6875 27.4375 C-13.94265319 25.69488162 -15.89405832 24.51900438 -18.4375 23.3125 C-7.18530262 0.92119264 -7.18530262 0.92119264 0 0 Z " fill="#6E7688" transform="translate(278.4375,82.6875)"/>
<path d="M0 0 C2.46324069 3.69486103 2.38991688 5.63293092 2 10 C0.875 11.9375 0.875 11.9375 -1 13 C-4.08815875 13.38601984 -6.10184376 13.47901666 -8.875 12 C-10.68755546 8.77767918 -10.53166222 5.60182435 -10 2 C-7.76411593 -2.34024556 -4.18639275 -1.06562725 0 0 Z " fill="#ECF1F5" transform="translate(57,93)"/>
</svg>
