<?xml version="1.0" encoding="UTF-8"?>
<svg version="1.1" xmlns="http://www.w3.org/2000/svg" width="512" height="512">
<path d="M0 0 C16.00043661 13.17222488 26.13920944 29.61419798 28.21386719 50.45507812 C29.20497099 69.72888399 23.84105208 87.3348878 11.02636719 101.95507812 C7.12151729 106.24748803 2.79849703 109.99464866 -1.59863281 113.76757812 C-0.90415039 113.77692383 -0.20966797 113.78626953 0.50585938 113.79589844 C19.94751617 114.12498058 35.28295092 115.19694545 50.21386719 129.08007812 C59.15418748 138.6620482 64.50097297 151.34647449 64.54180908 164.41958618 C64.54751923 165.52116058 64.55322937 166.62273499 64.55911255 167.75769043 C64.56078934 169.54850037 64.56078934 169.54850037 64.5625 171.37548828 C64.5674649 172.64456024 64.57242981 173.9136322 64.57754517 175.22116089 C64.59061582 178.6925745 64.597104 182.16396881 64.60155582 185.63540316 C64.60449602 187.80947277 64.60860264 189.98353722 64.61306 192.15760422 C64.62672271 198.97490272 64.63639458 205.79218929 64.64026189 212.60950053 C64.64473565 220.45056662 64.66225687 228.29145779 64.69126248 236.13247073 C64.7129617 242.2117134 64.72297059 248.29090717 64.72430301 254.37018812 C64.72534543 257.99230976 64.73113171 261.61426671 64.74912262 265.2363472 C64.7688442 269.28543758 64.76428173 273.33416744 64.7578125 277.38330078 C64.76702728 278.56502869 64.77624207 279.74675659 64.78573608 280.96429443 C64.70622851 296.93237791 59.88744796 309.80098129 48.90527344 321.47070312 C43.25877424 326.6503311 35.37350582 332.76757812 27.40136719 332.76757812 C27.40413257 333.56602961 27.40689795 334.36448109 27.40974712 335.18712807 C27.47600539 354.61683924 27.52564702 374.04652785 27.5568037 393.4763279 C27.57227139 402.87244347 27.59335906 412.26848362 27.62768555 421.66455078 C27.65759088 429.85433642 27.67694291 438.04406743 27.68363267 446.23390615 C27.687543 450.57021749 27.6967308 454.90637257 27.71855736 459.24263382 C27.73894043 463.32524963 27.74519732 467.40764499 27.74069023 471.49030685 C27.74151462 472.9874771 27.74746952 474.48465481 27.75898361 475.98178101 C27.77395681 478.02935236 27.77030399 480.07609639 27.76213074 482.12368774 C27.76489612 483.26855463 27.7676615 484.41342152 27.77051067 485.59298134 C27.19590212 490.53455702 25.51637918 493.76134779 21.83886719 497.08007812 C18.47854569 499.40645454 16.79568093 499.89453174 12.75946045 499.91474915 C11.78092606 499.92190445 10.80239166 499.92905975 9.79420471 499.93643188 C8.71678513 499.93912079 7.63936554 499.94180969 6.52929688 499.94458008 C4.8315638 499.95443687 4.8315638 499.95443687 3.09953308 499.9644928 C-0.65923116 499.98426046 -4.41795539 499.99589614 -8.17675781 500.00585938 C-9.45824455 500.0099349 -10.73973129 500.01401043 -12.06005096 500.01820946 C-18.14265421 500.03693065 -24.22523733 500.05149292 -30.30786347 500.05982143 C-37.32558872 500.06958917 -44.34299816 500.09589524 -51.36061215 500.13632232 C-57.4410732 500.17014633 -63.5214017 500.18196858 -69.6019516 500.18602562 C-72.18714286 500.19090282 -74.77233047 500.2025488 -77.35746002 500.22106361 C-80.97489158 500.24536125 -84.59149652 500.24450661 -88.20898438 500.23754883 C-89.27830704 500.25035889 -90.3476297 500.26316895 -91.44935608 500.27636719 C-97.49527131 500.23395342 -100.99131032 499.79569186 -105.59863281 495.76757812 C-109.32701626 491.52493489 -109.72333453 488.02121961 -109.71888733 482.48445129 C-109.72026199 481.16771927 -109.72163666 479.85098724 -109.72305298 478.49435425 C-109.7195138 477.03179909 -109.71587899 475.56924416 -109.7121582 474.10668945 C-109.71187618 472.5693207 -109.71203435 471.03195181 -109.71260071 469.49458313 C-109.71288811 465.3171963 -109.70700059 461.13983807 -109.70002675 456.9624579 C-109.69378372 452.59823898 -109.69318866 448.23401944 -109.69200134 443.86979675 C-109.68889084 435.60380356 -109.68068121 427.33782355 -109.67065185 419.07183617 C-109.65948203 409.66203209 -109.65397807 400.25222738 -109.64895642 390.84241831 C-109.63849838 371.48413076 -109.62090434 352.1258555 -109.59863281 332.76757812 C-110.53868164 332.62513672 -111.47873047 332.48269531 -112.44726562 332.3359375 C-122.16673902 330.5829987 -131.68334952 322.03556659 -137.41894531 314.31835938 C-143.12049251 305.19301876 -146.70523884 295.94765203 -146.73907471 285.11557007 C-146.74478485 284.01399567 -146.750495 282.91242126 -146.75637817 281.77746582 C-146.75749603 280.58359253 -146.75861389 279.38971924 -146.75976562 278.15966797 C-146.76473053 276.89059601 -146.76969543 275.62152405 -146.77481079 274.31399536 C-146.78788144 270.84258175 -146.79436962 267.37118744 -146.79882145 263.89975309 C-146.80176164 261.72568348 -146.80586826 259.55161903 -146.81032562 257.37755203 C-146.82398834 250.56025353 -146.83366021 243.74296696 -146.83752751 236.92565572 C-146.84200127 229.08458963 -146.85952249 221.24369846 -146.88852811 213.40268552 C-146.91022733 207.32344285 -146.92023622 201.24424908 -146.92156863 195.16496813 C-146.92261106 191.54284649 -146.92839734 187.92088954 -146.94638824 184.29880905 C-146.96610983 180.24971867 -146.96154736 176.20098881 -146.95507812 172.15185547 C-146.96429291 170.97012756 -146.97350769 169.78839966 -146.98300171 168.57086182 C-146.90359551 152.62313902 -142.10455076 139.67619569 -131.07519531 128.05664062 C-116.13176526 114.24457436 -99.9050208 114.02738567 -80.59863281 113.76757812 C-81.37207031 113.08953125 -82.14550781 112.41148438 -82.94238281 111.71289062 C-98.34098473 98.03901142 -108.33978334 82.98999149 -110.41113281 62.01757812 C-111.35287537 44.08523018 -106.69879983 25.84255301 -94.75952148 12.13330078 C-70.96293955 -14.06393996 -29.6855606 -22.88526419 0 0 Z " fill="#BEE75E" transform="translate(393.5986328125,12.232421875)"/>
<path d="M0 0 C0.74007294 -0.00817749 1.48014587 -0.01635498 2.24264526 -0.02478027 C4.69796947 -0.04964134 7.1532357 -0.06615466 9.60864258 -0.08056641 C10.44757868 -0.08589008 11.28651478 -0.09121376 12.15087318 -0.09669876 C16.59389965 -0.12343723 21.036898 -0.14280729 25.47998047 -0.15722656 C30.06222495 -0.17384946 34.6437467 -0.21860484 39.2257185 -0.26959801 C42.7542856 -0.30331528 46.28268238 -0.31480901 49.81139565 -0.32045364 C51.49985572 -0.32715696 53.18830494 -0.34235517 54.87660789 -0.36634445 C57.24645487 -0.39808841 59.61436983 -0.39801961 61.984375 -0.390625 C62.67607285 -0.40703033 63.36777069 -0.42343567 64.08042908 -0.44033813 C69.57192334 -0.37055606 72.87522625 1.60915193 76.81567383 5.19287109 C79.37951832 8.84197931 80.08179862 12.91092833 79.75317383 17.31787109 C78.52476653 22.39528793 76.81454094 25.75167021 72.53181458 28.83955383 C69.45050062 30.37481866 67.53156468 30.55663559 64.10742188 30.53344727 C62.98663742 30.53322067 61.86585297 30.53299408 60.71110535 30.53276062 C59.51198013 30.51727676 58.31285492 30.50179291 57.07739258 30.48583984 C55.8414888 30.481595 54.60558502 30.47735016 53.33222961 30.47297668 C50.05891301 30.45904889 46.78604475 30.43213087 43.51287842 30.39886475 C40.16788868 30.36808357 36.82287936 30.35471028 33.4777832 30.33935547 C26.92339059 30.308851 20.37010576 30.2501243 13.81567383 30.19287109 C13.81567383 40.09287109 13.81567383 49.99287109 13.81567383 60.19287109 C16.34481445 60.14646484 18.87395508 60.10005859 21.47973633 60.05224609 C23.94211828 60.02100883 26.40447776 59.99674493 28.86694336 59.97314453 C30.57212276 59.9530874 32.27723389 59.92583452 33.98217773 59.89111328 C36.43986907 59.84233248 38.89664749 59.81984391 41.35473633 59.80224609 C42.11122467 59.78160095 42.86771301 59.76095581 43.64712524 59.73968506 C48.83201202 59.73751028 51.67916991 60.81427647 55.81567383 64.19287109 C59.75194314 68.54348455 60.45451301 72.11064115 60.19848633 77.79443359 C59.41795733 82.68468672 56.91834664 85.29223507 53.19604492 88.33251953 C48.9810305 90.65220824 46.06614609 90.71207405 41.35473633 90.58349609 C40.5641684 90.5778363 39.77360046 90.57217651 38.95907593 90.56634521 C36.45230656 90.54408597 33.9470057 90.49391263 31.44067383 90.44287109 C29.73366333 90.42279243 28.02663026 90.40454405 26.31958008 90.38818359 C22.15060064 90.34766873 17.98476631 90.2693682 13.81567383 90.19287109 C13.81567383 100.09287109 13.81567383 109.99287109 13.81567383 120.19287109 C17.77696289 120.13486328 21.73825195 120.07685547 25.81958008 120.01708984 C29.66534423 119.97807198 33.51108614 119.9477255 37.35693359 119.91821289 C40.02571853 119.89592912 42.69315803 119.85901479 45.36181641 119.81567383 C49.20207659 119.75487627 53.04142566 119.72662552 56.88208008 119.70458984 C58.66528404 119.6658802 58.66528404 119.6658802 60.48451233 119.62638855 C67.64482581 119.62397551 71.51678705 120.24842334 76.81567383 125.19287109 C79.37951832 128.84197931 80.08179862 132.91092833 79.75317383 137.31787109 C78.52476653 142.39528793 76.81454094 145.75167021 72.53181458 148.83955383 C69.45050062 150.37481866 67.53156468 150.55663559 64.10742188 150.53344727 C62.98663742 150.53322067 61.86585297 150.53299408 60.71110535 150.53276062 C59.51198013 150.51727676 58.31285492 150.50179291 57.07739258 150.48583984 C55.8414888 150.481595 54.60558502 150.47735016 53.33222961 150.47297668 C50.05891301 150.45904889 46.78604475 150.43213087 43.51287842 150.39886475 C40.16788868 150.36808357 36.82287936 150.35471028 33.4777832 150.33935547 C26.92339059 150.308851 20.37010576 150.2501243 13.81567383 150.19287109 C13.81567383 160.09287109 13.81567383 169.99287109 13.81567383 180.19287109 C16.34481445 180.14646484 18.87395508 180.10005859 21.47973633 180.05224609 C23.94211828 180.02100883 26.40447776 179.99674493 28.86694336 179.97314453 C30.57212276 179.9530874 32.27723389 179.92583452 33.98217773 179.89111328 C36.43986907 179.84233248 38.89664749 179.81984391 41.35473633 179.80224609 C42.11122467 179.78160095 42.86771301 179.76095581 43.64712524 179.73968506 C48.83201202 179.73751028 51.67916991 180.81427647 55.81567383 184.19287109 C59.75194314 188.54348455 60.45451301 192.11064115 60.19848633 197.79443359 C59.41795733 202.68468672 56.91834664 205.29223507 53.19604492 208.33251953 C48.9810305 210.65220824 46.06614609 210.71207405 41.35473633 210.58349609 C40.5641684 210.5778363 39.77360046 210.57217651 38.95907593 210.56634521 C36.45230656 210.54408597 33.9470057 210.49391263 31.44067383 210.44287109 C29.73366333 210.42279243 28.02663026 210.40454405 26.31958008 210.38818359 C22.15060064 210.34766873 17.98476631 210.2693682 13.81567383 210.19287109 C13.81567383 220.09287109 13.81567383 229.99287109 13.81567383 240.19287109 C17.77696289 240.13486328 21.73825195 240.07685547 25.81958008 240.01708984 C29.66534423 239.97807198 33.51108614 239.9477255 37.35693359 239.91821289 C40.02571853 239.89592912 42.69315803 239.85901479 45.36181641 239.81567383 C49.20207659 239.75487627 53.04142566 239.72662552 56.88208008 239.70458984 C58.66528404 239.6658802 58.66528404 239.6658802 60.48451233 239.62638855 C67.64482581 239.62397551 71.51678705 240.24842334 76.81567383 245.19287109 C79.37951832 248.84197931 80.08179862 252.91092833 79.75317383 257.31787109 C78.52476653 262.39528793 76.81454094 265.75167021 72.53181458 268.83955383 C69.45050062 270.37481866 67.53156468 270.55663559 64.10742188 270.53344727 C62.98663742 270.53322067 61.86585297 270.53299408 60.71110535 270.53276062 C59.51198013 270.51727676 58.31285492 270.50179291 57.07739258 270.48583984 C55.8414888 270.481595 54.60558502 270.47735016 53.33222961 270.47297668 C50.05891301 270.45904889 46.78604475 270.43213087 43.51287842 270.39886475 C40.16788868 270.36808357 36.82287936 270.35471028 33.4777832 270.33935547 C26.92339059 270.308851 20.37010576 270.2501243 13.81567383 270.19287109 C13.81567383 280.09287109 13.81567383 289.99287109 13.81567383 300.19287109 C16.34481445 300.14646484 18.87395508 300.10005859 21.47973633 300.05224609 C23.94211828 300.02100883 26.40447776 299.99674493 28.86694336 299.97314453 C30.57212276 299.9530874 32.27723389 299.92583452 33.98217773 299.89111328 C36.43986907 299.84233248 38.89664749 299.81984391 41.35473633 299.80224609 C42.11122467 299.78160095 42.86771301 299.76095581 43.64712524 299.73968506 C48.83201202 299.73751028 51.67916991 300.81427647 55.81567383 304.19287109 C59.75194314 308.54348455 60.45451301 312.11064115 60.19848633 317.79443359 C59.41795733 322.68468672 56.91834664 325.29223507 53.19604492 328.33251953 C48.9810305 330.65220824 46.06614609 330.71207405 41.35473633 330.58349609 C40.5641684 330.5778363 39.77360046 330.57217651 38.95907593 330.56634521 C36.45230656 330.54408597 33.9470057 330.49391263 31.44067383 330.44287109 C29.73366333 330.42279243 28.02663026 330.40454405 26.31958008 330.38818359 C22.15060064 330.34766873 17.98476631 330.2693682 13.81567383 330.19287109 C13.81567383 340.09287109 13.81567383 349.99287109 13.81567383 360.19287109 C17.77696289 360.13486328 21.73825195 360.07685547 25.81958008 360.01708984 C29.66534423 359.97807198 33.51108614 359.9477255 37.35693359 359.91821289 C40.02571853 359.89592912 42.69315803 359.85901479 45.36181641 359.81567383 C49.20207659 359.75487627 53.04142566 359.72662552 56.88208008 359.70458984 C58.66528404 359.6658802 58.66528404 359.6658802 60.48451233 359.62638855 C67.64482581 359.62397551 71.51678705 360.24842334 76.81567383 365.19287109 C79.37951832 368.84197931 80.08179862 372.91092833 79.75317383 377.31787109 C78.52476653 382.39528793 76.81454094 385.75167021 72.53181458 388.83955383 C69.45050062 390.37481866 67.53156468 390.55663559 64.10742188 390.53344727 C62.98663742 390.53322067 61.86585297 390.53299408 60.71110535 390.53276062 C59.51198013 390.51727676 58.31285492 390.50179291 57.07739258 390.48583984 C55.8414888 390.481595 54.60558502 390.47735016 53.33222961 390.47297668 C50.05891301 390.45904889 46.78604475 390.43213087 43.51287842 390.39886475 C40.16788868 390.36808357 36.82287936 390.35471028 33.4777832 390.33935547 C26.92339059 390.308851 20.37010576 390.2501243 13.81567383 390.19287109 C13.81567383 400.09287109 13.81567383 409.99287109 13.81567383 420.19287109 C16.34481445 420.14646484 18.87395508 420.10005859 21.47973633 420.05224609 C23.94211828 420.02100883 26.40447776 419.99674493 28.86694336 419.97314453 C30.57212276 419.9530874 32.27723389 419.92583452 33.98217773 419.89111328 C36.43986907 419.84233248 38.89664749 419.81984391 41.35473633 419.80224609 C42.11122467 419.78160095 42.86771301 419.76095581 43.64712524 419.73968506 C48.83201202 419.73751028 51.67916991 420.81427647 55.81567383 424.19287109 C59.75194314 428.54348455 60.45451301 432.11064115 60.19848633 437.79443359 C59.41795733 442.68468672 56.91834664 445.29223507 53.19604492 448.33251953 C48.9810305 450.65220824 46.06614609 450.71207405 41.35473633 450.58349609 C40.5641684 450.5778363 39.77360046 450.57217651 38.95907593 450.56634521 C36.45230656 450.54408597 33.9470057 450.49391263 31.44067383 450.44287109 C29.73366333 450.42279243 28.02663026 450.40454405 26.31958008 450.38818359 C22.15060064 450.34766873 17.98476631 450.2693682 13.81567383 450.19287109 C13.81567383 460.75287109 13.81567383 471.31287109 13.81567383 482.19287109 C17.77696289 482.13486328 21.73825195 482.07685547 25.81958008 482.01708984 C29.66534423 481.97807198 33.51108614 481.9477255 37.35693359 481.91821289 C40.02571853 481.89592912 42.69315803 481.85901479 45.36181641 481.81567383 C49.20207659 481.75487627 53.04142566 481.72662552 56.88208008 481.70458984 C58.66528404 481.6658802 58.66528404 481.6658802 60.48451233 481.62638855 C67.64482581 481.62397551 71.51678705 482.24842334 76.81567383 487.19287109 C79.37951832 490.84197931 80.08179862 494.91092833 79.75317383 499.31787109 C78.5344646 504.35520256 76.81500842 507.67888166 72.64634705 510.83558655 C69.13538799 512.51906256 66.08645516 512.62169738 62.27490234 512.59692383 C61.16172638 512.6072187 61.16172638 512.6072187 60.02606201 512.61772156 C57.582038 512.63596679 55.13865734 512.63215544 52.69458008 512.62646484 C50.98973889 512.63102784 49.28489955 512.63633376 47.58006287 512.64234924 C44.01000488 512.65127592 40.44017064 512.64886243 36.87011719 512.63891602 C32.30247358 512.62742829 27.73560329 512.64763666 23.16806126 512.67683315 C19.6480776 512.69520849 16.1282788 512.69490004 12.6082592 512.68919563 C10.92459974 512.68904257 9.24092763 512.69507428 7.55731392 512.70748711 C5.1996672 512.72242069 2.84344305 512.71170417 0.48583984 512.69458008 C-0.20474014 512.70424805 -0.89532013 512.71391602 -1.60682678 512.72387695 C-6.56245284 512.6487754 -9.34415305 511.2510607 -13.18432617 508.19287109 C-17.29357979 503.51682387 -17.32939404 499.17394278 -17.31575394 493.18797588 C-17.31780657 492.35900882 -17.3198592 491.53004176 -17.32197404 490.67595449 C-17.3276676 487.87401746 -17.3261839 485.07212921 -17.32476807 482.27018738 C-17.32735035 480.25072161 -17.33036312 478.23125636 -17.33377147 476.21179181 C-17.34186073 470.64337983 -17.34363211 465.07498071 -17.34436893 459.50656354 C-17.34621613 453.50848695 -17.35376174 447.51041708 -17.36050415 441.51234436 C-17.37481066 427.70396348 -17.38061563 413.89558438 -17.3851961 400.0871979 C-17.38753101 393.26585792 -17.39113353 386.44451879 -17.39489147 379.62317947 C-17.40772734 356.27983735 -17.41844683 332.93649571 -17.42189407 309.59315014 C-17.42211571 308.12747865 -17.42233749 306.66180715 -17.42255943 305.19613566 C-17.42278007 303.7268958 -17.42300055 302.25765594 -17.42322087 300.78841609 C-17.42366343 297.84079627 -17.42411054 294.89317646 -17.42456055 291.94555664 C-17.42466994 291.21471693 -17.42477933 290.48387723 -17.42489203 289.73089086 C-17.42852364 266.02697797 -17.4444474 242.32309565 -17.46775091 218.61919447 C-17.49233533 193.56664099 -17.50606625 168.51410499 -17.50726199 143.46153909 C-17.50743345 140.71252683 -17.50764888 137.96351458 -17.50789642 135.21450233 C-17.50798008 134.19915279 -17.50798008 134.19915279 -17.50806542 133.16329113 C-17.50921703 122.26047388 -17.52024834 111.35768794 -17.53478348 100.45488127 C-17.54913493 89.50062578 -17.55214017 78.54640521 -17.5443435 67.59214207 C-17.54042632 61.65528224 -17.54141857 55.71852801 -17.55540085 49.78168106 C-17.56807573 44.35043355 -17.56699894 38.91937167 -17.55481014 33.48812465 C-17.55284198 31.51974737 -17.55598276 29.55135722 -17.5646545 27.58299806 C-17.57567355 24.91353439 -17.56831121 22.24473437 -17.55626297 19.57528973 C-17.56385816 18.80578008 -17.57145336 18.03627044 -17.57927871 17.24344233 C-17.53269076 12.48293179 -16.70810242 9.23333952 -14.18432617 5.19287109 C-9.34484639 0.82553568 -6.3516882 0.03855391 0 0 Z " fill="#FDBE00" transform="translate(71.184326171875,-0.19287109375)"/>
<path d="M0 0 C1.31711346 0.24357144 1.31711346 0.24357144 2.66083527 0.49206352 C5.65335583 0.94727028 8.40653404 1.12573026 11.42663574 1.12698364 C12.47798203 1.12980347 13.52932831 1.13262329 14.61253357 1.13552856 C16.31930016 1.13249222 16.31930016 1.13249222 18.06054688 1.12939453 C19.2709816 1.13114685 20.48141632 1.13289917 21.72853088 1.13470459 C25.0363463 1.13834388 28.34409892 1.13750171 31.65191078 1.1343255 C35.12043973 1.13178641 38.58896606 1.13414376 42.05749512 1.13571167 C47.88127115 1.13752884 53.70503449 1.13513891 59.52880859 1.13037109 C66.25324951 1.12492934 72.9776601 1.12669232 79.70210028 1.1321975 C85.48486003 1.13674151 91.26761068 1.13737287 97.05037165 1.13475883 C100.50009311 1.13320315 103.94980034 1.13298285 107.39952087 1.13629532 C111.24617687 1.1397312 115.09279913 1.13496325 118.93945312 1.12939453 C120.07729752 1.13141876 121.21514191 1.13344299 122.38746643 1.13552856 C123.96448586 1.13129883 123.96448586 1.13129883 125.57336426 1.12698364 C126.48183357 1.12660662 127.39030289 1.12622959 128.32630157 1.12584114 C131.2780833 0.98691164 134.09642831 0.53695234 137 0 C137.07008671 20.23622607 137.12298653 40.47242749 137.15543652 60.70874977 C137.1709042 70.10486534 137.19199187 79.50090549 137.22631836 88.89697266 C137.2562237 97.08675829 137.27557572 105.2764893 137.28226548 113.46632802 C137.28617582 117.80263937 137.29536361 122.13879444 137.31719017 126.47505569 C137.33757324 130.55767151 137.34383013 134.64006687 137.33932304 138.72272873 C137.34014743 140.21989897 137.34610233 141.71707669 137.35761642 143.21420288 C137.37258962 145.26177423 137.3689368 147.30851827 137.36076355 149.35610962 C137.36352893 150.50097651 137.36629431 151.64584339 137.36914349 152.82540321 C136.79453493 157.76697889 135.11501199 160.99376967 131.4375 164.3125 C128.07717851 166.63887642 126.39431375 167.12695362 122.35809326 167.14717102 C121.37955887 167.15432632 120.40102448 167.16148163 119.39283752 167.16885376 C118.31541794 167.17154266 117.23799835 167.17423157 116.12792969 167.17700195 C114.99610764 167.18357315 113.86428558 167.19014435 112.69816589 167.19691467 C108.93940165 167.21668234 105.18067742 167.22831801 101.421875 167.23828125 C100.14038826 167.24235678 98.85890152 167.2464323 97.53858185 167.25063133 C91.4559786 167.26935252 85.37339549 167.28391479 79.29076934 167.2922433 C72.27304409 167.30201104 65.25563465 167.32831711 58.23802066 167.36874419 C52.15755962 167.4025682 46.07723111 167.41439045 39.99668121 167.41844749 C37.41148996 167.42332469 34.82630235 167.43497067 32.24117279 167.45348549 C28.62374123 167.47778312 25.00713629 167.47692849 21.38964844 167.4699707 C19.78566444 167.48918579 19.78566444 167.48918579 18.14927673 167.50878906 C12.1033615 167.46637529 8.6073225 167.02811373 4 163 C0.27161655 158.75735676 -0.12470172 155.25364149 -0.12025452 149.71687317 C-0.12162918 148.40014114 -0.12300385 147.08340912 -0.12442017 145.72677612 C-0.12088099 144.26422096 -0.11724618 142.80166604 -0.11352539 141.33911133 C-0.11324337 139.80174257 -0.11340154 138.26437368 -0.1139679 136.727005 C-0.1142553 132.54961817 -0.10836778 128.37225994 -0.10139394 124.19487977 C-0.09515091 119.83066086 -0.09455585 115.46644132 -0.09336853 111.10221863 C-0.09025802 102.83622543 -0.0820484 94.57024543 -0.07201904 86.30425805 C-0.06084922 76.89445396 -0.05534526 67.48464925 -0.05032361 58.07484019 C-0.03986557 38.71655264 -0.02227153 19.35827738 0 0 Z " fill="#4792FE" transform="translate(284,345)"/>
<path d="M0 0 C12.45579742 1.88251384 24.47098693 8.48439008 32.3972168 18.36230469 C39.14969107 28.01801669 43.50054702 38.13352877 43.53765869 50.01431274 C43.54336884 51.11588715 43.54907898 52.21746155 43.55496216 53.35241699 C43.55663895 55.14322693 43.55663895 55.14322693 43.55834961 56.97021484 C43.56579697 58.87382278 43.56579697 58.87382278 43.57339478 60.81588745 C43.58646543 64.28730106 43.59295361 67.75869537 43.59740543 71.23012972 C43.60034563 73.40419933 43.60445225 75.57826378 43.60890961 77.75233078 C43.62257232 84.56962928 43.63224419 91.38691585 43.6361115 98.20422709 C43.64058526 106.04529318 43.65810648 113.88618435 43.68711209 121.72719729 C43.70881131 127.80643997 43.7188202 133.88563373 43.72015262 139.96491468 C43.72119504 143.58703632 43.72698132 147.20899327 43.74497223 150.83107376 C43.76469381 154.88016414 43.76013134 158.928894 43.75366211 162.97802734 C43.76287689 164.15975525 43.77209167 165.34148315 43.78158569 166.559021 C43.70207812 182.52710447 38.88329757 195.39570785 27.90112305 207.06542969 C3.44082624 229.50326826 -31.653432 220.36230469 -62.6027832 220.36230469 C-62.6027832 170.53230469 -62.6027832 120.70230469 -62.6027832 69.36230469 C-59.6327832 68.37230469 -56.6627832 67.38230469 -53.6027832 66.36230469 C-51.35763991 64.72392406 -51.35763991 64.72392406 -49.8840332 62.68261719 C-49.32329102 61.97524414 -48.76254883 61.26787109 -48.18481445 60.5390625 C-45.72890267 57.15990981 -43.36732668 53.74782753 -41.1027832 50.23730469 C-40.06232572 48.65057364 -39.02059924 47.06467417 -37.9777832 45.47949219 C-37.43250977 44.64901367 -36.88723633 43.81853516 -36.32543945 42.96289062 C-32.67905538 37.45817362 -28.93857516 32.01600065 -25.18212891 26.5859375 C-22.10084562 22.11398654 -19.11988703 17.62617124 -16.33325195 12.96386719 C-15.55981445 11.70316406 -15.55981445 11.70316406 -14.77075195 10.41699219 C-13.81219161 8.84384038 -12.88160601 7.25315404 -11.9855957 5.64355469 C-8.72128951 0.3621996 -6.16228549 -0.49872856 0 0 Z " fill="#01CB74" transform="translate(414.602783203125,126.6376953125)"/>
<path d="M0 0 C16.00043661 13.17222488 26.13920944 29.61419798 28.21386719 50.45507812 C29.20497099 69.72888399 23.84105208 87.3348878 11.02636719 101.95507812 C7.06223321 106.21534435 2.86319418 110.03586828 -1.59863281 113.76757812 C3.35136719 114.09757812 8.30136719 114.42757812 13.40136719 114.76757812 C11.79444729 118.78487788 10.42381959 121.42000617 7.98730469 124.86523438 C7.3128833 125.82526367 6.63846191 126.78529297 5.94360352 127.77441406 C5.22841553 128.7827832 4.51322754 129.79115234 3.77636719 130.83007812 C2.30809229 132.91934094 0.84063382 135.00917778 -0.62597656 137.09960938 C-1.67180908 138.58775146 -1.67180908 138.58775146 -2.73876953 140.10595703 C-4.79674148 143.05108832 -6.80605502 146.01966337 -8.78613281 149.01757812 C-12.21748131 154.20272696 -15.67577195 159.36860403 -19.16113281 164.51757812 C-19.69182373 165.31067383 -20.22251465 166.10376953 -20.76928711 166.92089844 C-30.48834783 181.23047311 -30.48834783 181.23047311 -36.59863281 183.76757812 C-41.0407701 184.46216687 -44.62911888 184.21355454 -48.72363281 182.33007812 C-55.10734906 176.64024408 -59.58056386 169.41065404 -64.25097656 162.31054688 C-67.04436408 158.07344093 -69.91659068 153.89081872 -72.78613281 149.70507812 C-73.33398438 148.90448975 -73.88183594 148.10390137 -74.44628906 147.27905273 C-77.36030121 143.02312788 -80.2840617 138.77422287 -83.21972656 134.53320312 C-83.80665283 133.68250244 -84.3935791 132.83180176 -84.99829102 131.95532227 C-86.11993974 130.32990771 -87.24461495 128.70657604 -88.37280273 127.08569336 C-89.13814331 125.9749646 -89.13814331 125.9749646 -89.91894531 124.84179688 C-90.36512207 124.19815186 -90.81129883 123.55450684 -91.27099609 122.89135742 C-92.89737664 120.28968688 -94.22649555 117.51185264 -95.59863281 114.76757812 C-90.64863281 114.43757813 -85.69863281 114.10757813 -80.59863281 113.76757812 C-82.41363281 112.15882812 -84.22863281 110.55007812 -86.09863281 108.89257812 C-101.12644258 95.20210929 -109.52338719 78.92173437 -110.59863281 58.44726562 C-110.59863281 38.82729704 -104.13706083 21.58056591 -90.45019531 7.56054688 C-66.83295065 -15.57141194 -27.18750879 -20.95946004 0 0 Z " fill="#FEE3C0" transform="translate(393.5986328125,12.232421875)"/>
<path d="M0 0 C0.07008671 20.23622607 0.12298653 40.47242749 0.15543652 60.70874977 C0.1709042 70.10486534 0.19199187 79.50090549 0.22631836 88.89697266 C0.2562237 97.08675829 0.27557572 105.2764893 0.28226548 113.46632802 C0.28617582 117.80263937 0.29536361 122.13879444 0.31719017 126.47505569 C0.33757324 130.55767151 0.34383013 134.64006687 0.33932304 138.72272873 C0.34014743 140.21989897 0.34610233 141.71707669 0.35761642 143.21420288 C0.37258962 145.26177423 0.3689368 147.30851827 0.36076355 149.35610962 C0.36352893 150.50097651 0.36629431 151.64584339 0.36914349 152.82540321 C-0.20546507 157.76697889 -1.88498801 160.99376967 -5.5625 164.3125 C-22.69021927 176.1701518 -47.16822923 167 -68 167 C-68 112.55 -68 58.1 -68 2 C-37.31 1.505 -37.31 1.505 -6 1 C-3 0 -3 0 0 0 Z " fill="#515CDD" transform="translate(421,345)"/>
<path d="M0 0 C19.19560872 0 34.54714486 5.63275435 48.27734375 19.18359375 C62.0377923 33.41785976 68.97927336 50.14387892 69 70 C67.94779446 89.55189194 60.64194371 105.05123057 47 119 C46.12988281 119.94166016 46.12988281 119.94166016 45.2421875 120.90234375 C33.60155297 132.41247789 15.82049811 137 0 137 C0 91.79 0 46.58 0 0 Z " fill="#FDD1A3" transform="translate(353,0)"/>
<path d="M0 0 C19.87278757 -1.06040566 19.87278757 -1.06040566 29.23828125 4.46484375 C42.13102594 11.6315321 59.63140768 10.39947945 73.45898438 6.78393555 C77.350854 5.66662682 80.76065149 4.1679982 84.3125 2.25 C91.90500699 -1.56961505 100.73808652 -0.38527058 109 0 C107.63564187 3.78353194 105.90535818 6.81799908 103.5859375 10.09765625 C102.91151611 11.05768555 102.23709473 12.01771484 101.54223633 13.00683594 C100.82704834 14.01520508 100.11186035 15.02357422 99.375 16.0625 C97.9067251 18.15176282 96.43926664 20.24159965 94.97265625 22.33203125 C94.27543457 23.32412598 93.57821289 24.3162207 92.85986328 25.33837891 C90.80189133 28.2835102 88.79257779 31.25208524 86.8125 34.25 C83.38115151 39.43514883 79.92286086 44.6010259 76.4375 49.75 C75.90680908 50.5430957 75.37611816 51.33619141 74.8293457 52.15332031 C65.11028498 66.46289499 65.11028498 66.46289499 59 69 C54.55786271 69.69458874 50.96951394 69.44597641 46.875 67.5625 C40.49128375 61.87266595 36.01806895 54.64307592 31.34765625 47.54296875 C28.55426873 43.3058628 25.68204214 39.1232406 22.8125 34.9375 C22.26464844 34.13691162 21.71679688 33.33632324 21.15234375 32.51147461 C18.2383316 28.25554975 15.31457111 24.00664475 12.37890625 19.765625 C11.79197998 18.91492432 11.20505371 18.06422363 10.6003418 17.18774414 C9.47869307 15.56232959 8.35401787 13.93899791 7.22583008 12.31811523 C4.47296636 8.32292016 2.03241066 4.40822864 0 0 Z " fill="#F4EEE9" transform="translate(298,127)"/>
<path d="M0 0 C19.96248609 -1.06519195 19.96248609 -1.06519195 29.203125 4.46875 C36.68866268 8.56697733 45.6848964 9.0760996 54 10 C54 29.14 54 48.28 54 68 C47.52145264 68 46.93774447 67.82101758 42.69628906 63.84130859 C39.84709093 60.74852617 37.61356226 57.36159202 35.375 53.8125 C34.33065086 52.20233061 33.28503557 50.59298186 32.23828125 48.984375 C31.70541504 48.16001953 31.17254883 47.33566406 30.62353516 46.48632812 C27.99979871 42.46826316 25.28199414 38.5161124 22.5625 34.5625 C22.03011719 33.78535645 21.49773437 33.00821289 20.94921875 32.20751953 C18.10794531 28.06086536 15.25541013 23.92221278 12.39453125 19.7890625 C11.80534912 18.93497803 11.21616699 18.08089355 10.60913086 17.20092773 C9.4842852 15.5705904 8.35637337 13.94236267 7.22485352 12.31665039 C4.47229031 8.32197619 2.03215829 4.40768126 0 0 Z " fill="#FEF3F3" transform="translate(298,127)"/>
<path d="M0 0 C5.01801728 -0.09207371 10.03307904 -0.17163196 15.05126953 -0.21972656 C16.75644894 -0.23978369 18.46156006 -0.26703657 20.16650391 -0.30175781 C22.62419524 -0.35053861 25.08097366 -0.37302719 27.5390625 -0.390625 C28.29555084 -0.41127014 29.05203918 -0.43191528 29.83145142 -0.45318604 C35.0163382 -0.45536081 37.86349608 0.62140538 42 4 C45.93626932 8.35061345 46.63883919 11.91777006 46.3828125 17.6015625 C45.6022835 22.49181562 43.10267281 25.09936398 39.38037109 28.13964844 C35.16535668 30.45933715 32.25047227 30.51920295 27.5390625 30.390625 C26.74849457 30.38496521 25.95792664 30.37930542 25.1434021 30.37347412 C22.63663273 30.35121487 20.13133187 30.30104153 17.625 30.25 C15.9179895 30.22992133 14.21095643 30.21167296 12.50390625 30.1953125 C8.33492682 30.15479764 4.16909248 30.07649711 0 30 C0 20.1 0 10.2 0 0 Z " fill="#FF8856" transform="translate(85,420)"/>
<path d="M0 0 C5.01801728 -0.09207371 10.03307904 -0.17163196 15.05126953 -0.21972656 C16.75644894 -0.23978369 18.46156006 -0.26703657 20.16650391 -0.30175781 C22.62419524 -0.35053861 25.08097366 -0.37302719 27.5390625 -0.390625 C28.29555084 -0.41127014 29.05203918 -0.43191528 29.83145142 -0.45318604 C35.0163382 -0.45536081 37.86349608 0.62140538 42 4 C45.93626932 8.35061345 46.63883919 11.91777006 46.3828125 17.6015625 C45.6022835 22.49181562 43.10267281 25.09936398 39.38037109 28.13964844 C35.16535668 30.45933715 32.25047227 30.51920295 27.5390625 30.390625 C26.74849457 30.38496521 25.95792664 30.37930542 25.1434021 30.37347412 C22.63663273 30.35121487 20.13133187 30.30104153 17.625 30.25 C15.9179895 30.22992133 14.21095643 30.21167296 12.50390625 30.1953125 C8.33492682 30.15479764 4.16909248 30.07649711 0 30 C0 20.1 0 10.2 0 0 Z " fill="#FF8856" transform="translate(85,300)"/>
<path d="M0 0 C5.01801728 -0.09207371 10.03307904 -0.17163196 15.05126953 -0.21972656 C16.75644894 -0.23978369 18.46156006 -0.26703657 20.16650391 -0.30175781 C22.62419524 -0.35053861 25.08097366 -0.37302719 27.5390625 -0.390625 C28.29555084 -0.41127014 29.05203918 -0.43191528 29.83145142 -0.45318604 C35.0163382 -0.45536081 37.86349608 0.62140538 42 4 C45.93626932 8.35061345 46.63883919 11.91777006 46.3828125 17.6015625 C45.6022835 22.49181562 43.10267281 25.09936398 39.38037109 28.13964844 C35.16535668 30.45933715 32.25047227 30.51920295 27.5390625 30.390625 C26.74849457 30.38496521 25.95792664 30.37930542 25.1434021 30.37347412 C22.63663273 30.35121487 20.13133187 30.30104153 17.625 30.25 C15.9179895 30.22992133 14.21095643 30.21167296 12.50390625 30.1953125 C8.33492682 30.15479764 4.16909248 30.07649711 0 30 C0 20.1 0 10.2 0 0 Z " fill="#FF8856" transform="translate(85,180)"/>
<path d="M0 0 C5.01801728 -0.09207371 10.03307904 -0.17163196 15.05126953 -0.21972656 C16.75644894 -0.23978369 18.46156006 -0.26703657 20.16650391 -0.30175781 C22.62419524 -0.35053861 25.08097366 -0.37302719 27.5390625 -0.390625 C28.29555084 -0.41127014 29.05203918 -0.43191528 29.83145142 -0.45318604 C35.0163382 -0.45536081 37.86349608 0.62140538 42 4 C45.93626932 8.35061345 46.63883919 11.91777006 46.3828125 17.6015625 C45.6022835 22.49181562 43.10267281 25.09936398 39.38037109 28.13964844 C35.16535668 30.45933715 32.25047227 30.51920295 27.5390625 30.390625 C26.74849457 30.38496521 25.95792664 30.37930542 25.1434021 30.37347412 C22.63663273 30.35121487 20.13133187 30.30104153 17.625 30.25 C15.9179895 30.22992133 14.21095643 30.21167296 12.50390625 30.1953125 C8.33492682 30.15479764 4.16909248 30.07649711 0 30 C0 20.1 0 10.2 0 0 Z " fill="#FF8856" transform="translate(85,60)"/>
</svg>
