<?xml version="1.0" encoding="UTF-8"?>
<svg version="1.1" xmlns="http://www.w3.org/2000/svg" width="512" height="512">
<path d="M0 0 C1.00514648 0.21430664 2.01029297 0.42861328 3.04589844 0.64941406 C49.15552583 10.82522968 90.58767963 36.88634905 116.5625 76.6875 C118.08474403 79.1004657 119.55363916 81.54087686 121 84 C121.4007373 84.68094727 121.80147461 85.36189453 122.21435547 86.06347656 C149.69831934 133.60504625 155.00877547 192.38258864 141 245 C131.934247 278.61776397 112.70319614 308.05199626 94.140625 337.07421875 C73.18075128 369.89758133 57.91952657 401.76513289 57.83133507 441.27459145 C57.82409963 443.84306842 57.80838673 446.41136199 57.78999329 448.9797821 C57.737816 456.27564178 57.68947593 463.57138879 57.67407227 470.86743164 C57.66400286 475.3454253 57.63472472 479.82293761 57.59275246 484.3007412 C57.58044257 486.00275221 57.57532119 487.70483108 57.57755089 489.40688515 C57.57989896 491.78130508 57.55778424 494.15433259 57.5300293 496.52856445 C57.53663071 497.22940155 57.54323212 497.93023865 57.55003357 498.65231323 C57.48499227 502.03695615 57.20873761 503.73400147 55.09187317 506.43156433 C52.20826346 508.59362482 50.40673285 508.62811254 46.90625 508.46484375 C45 508 45 508 42.5 505.625 C41 503 41 503 41 501 C20.45104821 501.01379429 -0.0976699 501.05596458 -20.64648914 501.13209057 C-30.18728515 501.16677127 -39.72793621 501.19210012 -49.26879883 501.19555664 C-57.58282762 501.19859227 -65.89659848 501.2190284 -74.2105276 501.26052457 C-78.61440796 501.281893 -83.01792129 501.29443563 -87.42185402 501.28615379 C-91.56461293 501.27863771 -95.70662668 501.29433556 -99.84924889 501.32806015 C-101.37183307 501.33632315 -102.89449096 501.33600848 -104.41706848 501.32659721 C-106.49258067 501.31503544 -108.56562591 501.33399349 -110.64094543 501.36076355 C-111.80332639 501.36352893 -112.96570734 501.36629431 -114.16331196 501.36914349 C-117.21331011 501.72234264 -117.21331011 501.72234264 -118.83494091 504.47745228 C-119.21941041 505.30989303 -119.60387991 506.14233377 -120 507 C-121.8503199 508.8503199 -124.42472082 508.29140132 -126.89453125 508.42578125 C-129.95524876 507.80682354 -131.04592174 506.3932224 -133 504 C-133.48101807 501.39300537 -133.48101807 501.39300537 -133.45410156 498.40527344 C-133.45379944 497.28441345 -133.45349731 496.16355347 -133.45318604 495.00872803 C-133.43254089 493.80444153 -133.41189575 492.60015503 -133.390625 491.359375 C-133.38496521 490.12205627 -133.37930542 488.88473755 -133.37347412 487.60992432 C-133.35488251 484.32822064 -133.31897498 481.04730719 -133.2746582 477.76586914 C-133.23366165 474.41429933 -133.21579501 471.06269556 -133.1953125 467.7109375 C-133.15119904 461.14031609 -133.08425077 454.57022268 -133 448 C-134.05694313 448.17242973 -134.05694313 448.17242973 -135.13523865 448.3483429 C-138.38016222 448.87640464 -141.62562004 449.40111172 -144.87109375 449.92578125 C-145.97916382 450.10661255 -147.08723389 450.28744385 -148.22888184 450.47375488 C-157.79180502 452.01570811 -167.34813232 453.19531226 -177 454 C-178.04075684 454.08677002 -178.04075684 454.08677002 -179.10253906 454.17529297 C-202.39080694 456.03416229 -227.80912772 457.57202106 -247.45703125 443.203125 C-265.79341215 427.31722818 -271.55093095 397.87771497 -276.8125 375.4375 C-277.10253906 374.20185303 -277.39257812 372.96620605 -277.69140625 371.69311523 C-279.29698449 364.64646334 -280.51035653 357.73197214 -281.1862793 350.53149414 C-281.74599866 347.77313598 -281.74599866 347.77313598 -284.41333008 346.73999023 C-285.26693115 346.49579346 -286.12053223 346.25159668 -287 346 C-292.68383713 342.44760179 -295.94058506 337.06459953 -297.61425781 330.64331055 C-298.51390498 323.98864376 -297.30256487 319.11343602 -295.06843567 312.82324219 C-290.22624353 300.59413344 -290.22624353 300.59413344 -291.17236328 288.07275391 C-294.89793527 282.94276742 -299.76936913 279.26448608 -304.88867188 275.59863281 C-312.1162966 270.12609734 -316.94986908 260.34041313 -318.4140625 251.5 C-318.81790103 244.69850899 -316.78594248 239.57595555 -313 234 C-307.0811296 227.76160784 -300.06329569 223.23510363 -292.75 218.8125 C-290.62715059 217.51767042 -288.50476392 216.22208192 -286.3828125 214.92578125 C-285.3196582 214.27818848 -284.25650391 213.6305957 -283.16113281 212.96337891 C-280.10605955 211.06587356 -277.10776485 209.10272912 -274.1171875 207.10546875 C-273.19067383 206.49791748 -272.26416016 205.89036621 -271.30957031 205.2644043 C-269.56906514 204.12047643 -267.84083069 202.95756767 -266.12792969 201.77270508 C-260.72959541 198.27937469 -257.22335019 197.50863023 -250.84912109 198.58789062 C-250.23891113 198.72388672 -249.62870117 198.85988281 -249 199 C-245.94673573 195.30216803 -245.94673573 195.30216803 -245.125 190.8125 C-246.07518163 188.73794089 -246.07518163 188.73794089 -248 186 C-248.16699219 183.36230469 -248.16699219 183.36230469 -248.046875 180.171875 C-248.00594727 178.99125488 -247.96501953 177.81063477 -247.92285156 176.59423828 C-247.83729004 174.69134033 -247.83729004 174.69134033 -247.75 172.75 C-247.69553711 171.44401855 -247.64107422 170.13803711 -247.58496094 168.79248047 C-247.41386065 164.86023561 -247.21086046 160.93031732 -247 157 C-246.91492188 155.3927002 -246.91492188 155.3927002 -246.828125 153.75292969 C-244.35452186 110.87245702 -229.37623923 70.72835131 -197.20751953 41.36376953 C-170.42903912 17.84439242 -136.71259337 5.16051528 -102 -1 C-101.12617676 -1.16371094 -100.25235352 -1.32742188 -99.35205078 -1.49609375 C-67.71140632 -7.18377134 -31.41621532 -6.80978339 0 0 Z " fill="#EDF8F9" transform="translate(341,4)"/>
<path d="M0 0 C1.00514648 0.21430664 2.01029297 0.42861328 3.04589844 0.64941406 C49.15552583 10.82522968 90.58767963 36.88634905 116.5625 76.6875 C118.08474403 79.1004657 119.55363916 81.54087686 121 84 C121.4007373 84.68094727 121.80147461 85.36189453 122.21435547 86.06347656 C149.69831934 133.60504625 155.00877547 192.38258864 141 245 C131.934247 278.61776397 112.70319614 308.05199626 94.140625 337.07421875 C73.18075128 369.89758133 57.91952657 401.76513289 57.83133507 441.27459145 C57.82409963 443.84306842 57.80838673 446.41136199 57.78999329 448.9797821 C57.737816 456.27564178 57.68947593 463.57138879 57.67407227 470.86743164 C57.66400286 475.3454253 57.63472472 479.82293761 57.59275246 484.3007412 C57.58044257 486.00275221 57.57532119 487.70483108 57.57755089 489.40688515 C57.57989896 491.78130508 57.55778424 494.15433259 57.5300293 496.52856445 C57.53663071 497.22940155 57.54323212 497.93023865 57.55003357 498.65231323 C57.48499227 502.03695615 57.20873761 503.73400147 55.09187317 506.43156433 C52.83452452 508.1240695 51.78757497 508.56794448 49 508.5625 C48.34 508.58441406 47.68 508.60632813 47 508.62890625 C43.80250042 507.62344252 42.78926112 505.78119194 41 503 C40.65083703 500.23116961 40.52787568 497.88335995 40.60595703 495.12719727 C40.61489235 493.96014503 40.61489235 493.96014503 40.62400818 492.76951599 C40.64884301 490.20114182 40.70283439 487.63429827 40.7578125 485.06640625 C40.78267147 483.26865127 40.80599289 481.47087443 40.82785034 479.67308044 C40.87793538 475.90095803 40.94153705 472.12939204 41.015625 468.35766602 C41.10952004 463.56032708 41.1781081 458.76307483 41.23733711 453.96519566 C41.28475397 450.24750455 41.34193692 446.53001475 41.40230942 442.81251335 C41.43061355 441.04619389 41.45692483 439.27984119 41.48108292 437.51346016 C41.67807229 424.01345597 42.6246293 410.92448378 46.125 397.8125 C46.33455322 397.02278809 46.54410645 396.23307617 46.76000977 395.41943359 C49.31539253 386.26060866 53.07099577 377.63992881 57 369 C57.31211426 368.3095459 57.62422852 367.6190918 57.94580078 366.90771484 C59.60033308 363.25735257 61.28347668 359.62160413 63 356 C62.35675781 356.03480469 61.71351563 356.06960938 61.05078125 356.10546875 C38.33940111 356.7858382 16.89729875 346.45657782 0 332 C-0.57234375 331.54882812 -1.1446875 331.09765625 -1.734375 330.6328125 C-11.30040134 323.08847214 -11.30040134 323.08847214 -12.48046875 317.87890625 C-12.59181871 314.98910971 -12.29927905 312.59855809 -11 310 C-7.74411093 308.37205547 -4.50799602 308.32576349 -1 309 C1.4648194 310.61420072 3.22200175 312.70678025 5.125 314.9375 C17.86537758 328.71859848 34.55698956 336.85282246 53 340 C53.82338867 340.15098145 54.64677734 340.30196289 55.49511719 340.45751953 C61.36792596 341.41270875 67.32616309 342.17596936 73 340 C77.76042987 336.00946518 80.14575981 330.08921647 82.72705078 324.57421875 C84.79392483 320.39448726 87.37845398 316.57769244 89.9375 312.6875 C109.92325363 281.29286178 123.85569635 250.50992233 131 214 C129.83984375 214.54269531 128.6796875 215.08539063 127.484375 215.64453125 C103.4037043 226.73941225 75.73930044 230.68402479 50.1328125 221.6875 C47.05545922 220.52273833 44.01885896 219.3078276 41 218 C40.95875 219.155 40.9175 220.31 40.875 221.5 C38.96364804 238.20469245 28.88783021 255.63691035 18 268 C17.32453125 268.81855469 16.6490625 269.63710938 15.953125 270.48046875 C5.65138478 282.60569218 -6.848726 290.1416139 -21 297 C-21.85851562 297.43183594 -22.71703125 297.86367188 -23.6015625 298.30859375 C-46.07816896 308.51440269 -75.31679511 307.72199361 -98.1875 299.3125 C-113.25309873 293.40212107 -125.54803497 285.54387486 -137 274 C-137.64582031 273.40058594 -138.29164063 272.80117188 -138.95703125 272.18359375 C-144.51635781 266.95197486 -149.83129129 260.99643661 -153 254 C-152.69910371 247.86043534 -152.69910371 247.86043534 -150.375 245 C-146.58671112 243.404931 -144.91677557 243.62912855 -141 245 C-137.98389468 248.07547747 -135.53508331 251.52562288 -133 255 C-118.52852068 272.97370948 -98.94799934 284.94387107 -76.125 288.625 C-52.02136441 290.86913159 -28.8473332 286.27522094 -9 272 C-6.48481346 269.89442955 -4.06732538 267.74584267 -1.70703125 265.46875 C0 264 0 264 2 264 C2.26554688 263.40960938 2.53109375 262.81921875 2.8046875 262.2109375 C4.03090304 259.94283948 5.33351588 258.46647902 7.125 256.625 C18.33447017 243.9706501 24.91382927 226.65339734 27 210 C26.26910156 209.73960937 25.53820312 209.47921875 24.78515625 209.2109375 C4.02507705 200.18481611 -10.02878998 175.79041438 -18.28125 155.9140625 C-22.65327505 143.8247508 -24.21729706 130.76715277 -25 118 C-28.28553392 116.83605222 -31.57930923 115.69733692 -34.875 114.5625 C-36.25171875 114.07426758 -36.25171875 114.07426758 -37.65625 113.57617188 C-43.78877367 111.48161273 -49.52665842 110.33695159 -56 110 C-55.67 110.99 -55.34 111.98 -55 113 C-52.91340869 144.04594956 -61.17950193 172.33755954 -81.37011719 196.19262695 C-82.52935738 197.5082425 -83.75904423 198.76116552 -85 200 C-85.66 200 -86.32 200 -87 200 C-87 200.66 -87 201.32 -87 202 C-86.12018463 201.99111755 -85.24036926 201.98223511 -84.33389282 201.9730835 C-76.00772431 201.8926504 -67.68168789 201.83189037 -59.35521889 201.79275131 C-55.07534723 201.77195241 -50.79579891 201.7437773 -46.51611328 201.69824219 C-42.37933589 201.65450733 -38.24286782 201.63080513 -34.10587692 201.62049103 C-32.53433748 201.61314888 -30.96281333 201.59881234 -29.39140701 201.57707977 C-19.62587615 201.44749877 -10.61990725 201.56804062 -2.59765625 207.89453125 C2.79950898 214.63755448 5.68024044 220.35637274 5.4140625 229.15234375 C4.51952391 235.30440629 1.69441027 240.8202815 -2.9375 245 C-9.15056419 249.05751131 -14.737927 249.2976069 -21.93334961 249.29052734 C-22.91784592 249.29724457 -23.90234222 249.30396179 -24.91667175 249.31088257 C-28.16194747 249.32983677 -31.40701617 249.33378523 -34.65234375 249.3359375 C-36.91386499 249.34236629 -39.17538541 249.34909471 -41.43690491 249.35610962 C-46.17369516 249.36807528 -50.9104125 249.37179107 -55.6472168 249.37060547 C-61.71117331 249.37040211 -67.77466205 249.39772507 -73.83850765 249.43214989 C-78.50800212 249.45440449 -83.17738366 249.45844347 -87.84692574 249.45738602 C-90.08239926 249.45974333 -92.31787584 249.46857417 -94.55329704 249.48405075 C-97.68161555 249.50368464 -100.80892042 249.49788278 -103.93725586 249.48583984 C-104.85643799 249.49707886 -105.77562012 249.50831787 -106.72265625 249.51989746 C-114.03308765 249.44852017 -118.04082043 247.47745266 -123.6875 242.75 C-127.78946854 237.87198336 -130.30326737 233.46970398 -130 227 C-130.85722656 227.20496094 -131.71445313 227.40992188 -132.59765625 227.62109375 C-133.74105469 227.89050781 -134.88445312 228.15992188 -136.0625 228.4375 C-137.18785156 228.70433594 -138.31320313 228.97117188 -139.47265625 229.24609375 C-167.72795017 235.28515436 -195.85910506 228.58647189 -219.875 213.15234375 C-230.07892687 205.95691162 -241.05178585 196.42232122 -248 186 C-248.16699219 183.36230469 -248.16699219 183.36230469 -248.046875 180.171875 C-247.9854834 178.40094482 -247.9854834 178.40094482 -247.92285156 176.59423828 C-247.86581055 175.32563965 -247.80876953 174.05704102 -247.75 172.75 C-247.69553711 171.44401855 -247.64107422 170.13803711 -247.58496094 168.79248047 C-247.41386065 164.86023561 -247.21086046 160.93031732 -247 157 C-246.94328125 155.9284668 -246.8865625 154.85693359 -246.828125 153.75292969 C-244.35452186 110.87245702 -229.37623923 70.72835131 -197.20751953 41.36376953 C-170.42903912 17.84439242 -136.71259337 5.16051528 -102 -1 C-101.12617676 -1.16371094 -100.25235352 -1.32742188 -99.35205078 -1.49609375 C-67.71140632 -7.18377134 -31.41621532 -6.80978339 0 0 Z " fill="#020202" transform="translate(341,4)"/>
<path d="M0 0 C0.54382324 0.44520996 1.08764648 0.89041992 1.64794922 1.34912109 C38.88121066 31.87216597 58.46997566 75.13225419 63.3125 122.625 C63.51358398 125.00105947 63.69032937 127.37632614 63.84472656 129.75585938 C63.9974278 131.96282445 64.21235265 134.15798328 64.4296875 136.359375 C65.13912555 145.43220352 65.13912555 145.43220352 62.515625 149.04296875 C60.09995187 150.80931621 57.77492152 151.87453316 55 153 C53.88625 153.50660156 52.7725 154.01320312 51.625 154.53515625 C28.6885528 164.65654474 4.22281414 166.62557795 -19.47900391 157.69213867 C-32.01431542 152.6993543 -42.38394132 145.45763926 -52 136 C-52.77214844 135.24074219 -53.54429687 134.48148438 -54.33984375 133.69921875 C-69.6835029 117.67361919 -78.57585527 93.96686511 -78.28564453 71.89501953 C-77.46845331 45.7385656 -67.19028576 23.5300336 -48.5703125 5.4296875 C-46.46486386 3.5127865 -44.22899318 1.77008282 -42 0 C-40.58558126 -2.82883747 -40.68099668 -4.87376745 -41 -8 C-43.15309133 -10.48433615 -44.53778353 -10.93776609 -47.78515625 -11.375 C-51.96164019 -10.88782812 -53.95260766 -8.98063443 -56.8125 -6.125 C-57.33239502 -5.62323242 -57.85229004 -5.12146484 -58.38793945 -4.60449219 C-59.94356783 -3.08687594 -61.47348356 -1.54682936 -63 0 C-64.21816406 1.20269531 -64.21816406 1.20269531 -65.4609375 2.4296875 C-79.12009524 16.66396767 -86.49490062 35.0785826 -91 54 C-91.57105469 53.81824219 -92.14210938 53.63648437 -92.73046875 53.44921875 C-97.51545926 51.96579562 -102.3186816 50.61855001 -107.1875 49.4375 C-108.27804687 49.169375 -109.36859375 48.90125 -110.4921875 48.625 C-114.04325896 47.88648521 -114.04325896 47.88648521 -117.8828125 48 C-122.13323134 47.93239891 -125.09296539 47.71186834 -129 46 C-132.5858209 41.50181847 -134.15462571 35.70129857 -136.06982422 30.35351562 C-140.05341046 20.27431055 -147.55207575 11.66942385 -155 4 C-155.82371094 3.08347656 -155.82371094 3.08347656 -156.6640625 2.1484375 C-167.6617423 -9.7160545 -183.44728746 -17.70257666 -198.76953125 -22.17578125 C-201 -23 -201 -23 -202 -25 C-138.67897019 -46.57867496 -53.45275841 -44.33564419 0 0 Z " fill="#B8E4ED" transform="translate(410,52)"/>
<path d="M0 0 C13.68382919 4.59597116 25.13483051 10.70965918 35.98779297 20.36572266 C37.14601562 21.38085938 37.14601562 21.38085938 38.32763672 22.41650391 C54.24203993 37.2680823 64.25510527 59.12234983 65.30029297 80.78759766 C66.05133535 105.98831223 58.70769396 129.42941019 41.22216797 148.02978516 C40.48482422 148.80064453 39.74748047 149.57150391 38.98779297 150.36572266 C38.06740234 151.39826172 38.06740234 151.39826172 37.12841797 152.45166016 C22.88515255 167.85143004 0.00385383 176.78575148 -20.69189453 177.60400391 C-46.55387172 178.15611074 -68.16873918 170.43483833 -87.56298828 152.83447266 C-88.37123047 152.01978516 -89.17947266 151.20509766 -90.01220703 150.36572266 C-90.62169189 149.83881836 -91.23117676 149.31191406 -91.85913086 148.76904297 C-94.9161968 145.84686454 -96.79275233 143.664154 -97.51000977 139.42041016 C-97.54978514 135.95137343 -97.36166541 132.57303275 -97.07470703 129.11572266 C-96.99913574 127.87733643 -96.92356445 126.6389502 -96.84570312 125.36303711 C-96.60879586 121.69287352 -96.31842949 118.03067895 -96.01220703 114.36572266 C-95.93760254 113.37169434 -95.86299805 112.37766602 -95.78613281 111.35351562 C-92.92239985 73.51854952 -78.96267025 37.84998953 -49.75439453 12.56103516 C-32.77308602 -1.03368761 -21.98936477 -6.9313722 0 0 Z " fill="#FDDE7C" transform="translate(206.01220703125,42.63427734375)"/>
<path d="M0 0 C-3.04259969 37.39389543 -22.15034222 71.00321601 -42 102 C-43.28740401 104.0293483 -44.57383299 106.05931541 -45.859375 108.08984375 C-54.86685748 122.30028623 -54.86685748 122.30028623 -58 127 C-59.80908203 127.40405273 -59.80908203 127.40405273 -62.0078125 127.43359375 C-62.8215332 127.44519531 -63.63525391 127.45679688 -64.47363281 127.46875 C-65.34858398 127.4584375 -66.22353516 127.448125 -67.125 127.4375 C-68.47609863 127.42396484 -68.47609863 127.42396484 -69.85449219 127.41015625 C-88.69732802 126.93059309 -109.03731493 119.29158512 -122.38525391 105.57666016 C-123.32946939 104.5588356 -124.27307256 103.54044267 -125.21606445 102.52148438 C-129.06168116 97.85150293 -129.06168116 97.85150293 -134.375 95.79296875 C-135.1175 95.92316406 -135.86 96.05335938 -136.625 96.1875 C-138.78515625 96.54296875 -138.78515625 96.54296875 -141 96 C-144.61650777 91.65466929 -147.32135889 86.96466816 -150 82 C-147.10147062 79.70139879 -144.16821103 77.98790911 -140.875 76.3125 C-134.99993523 73.14840261 -130.05849873 69.32526357 -125 65 C-123.87464844 64.09314453 -123.87464844 64.09314453 -122.7265625 63.16796875 C-105.45235214 48.77279345 -93.81335546 26.01346105 -90 4 C-89.42894531 4.18175781 -88.85789062 4.36351562 -88.26953125 4.55078125 C-81.25802618 6.72445929 -74.18284545 8.48686251 -67 10 C-65.6696875 10.28423828 -65.6696875 10.28423828 -64.3125 10.57421875 C-59.4572366 11.19830331 -54.64024207 11.18435313 -49.75 11.1875 C-48.76386719 11.19974609 -47.77773438 11.21199219 -46.76171875 11.22460938 C-40.25677692 11.23746499 -34.3216236 10.49935944 -28 9 C-26.46085937 8.68289062 -26.46085937 8.68289062 -24.890625 8.359375 C-17.7898893 6.72074368 -11.44646608 4.2058472 -4.8359375 1.20703125 C-2 0 -2 0 0 0 Z " fill="#F4C2C6" transform="translate(472,218)"/>
<path d="M0 0 C7.7107567 -0.51809754 13.83363312 0.83061858 21.0625 3.4375 C22.01060547 3.76298828 22.95871094 4.08847656 23.93554688 4.42382812 C30.81593407 6.81593407 30.81593407 6.81593407 32 8 C32.33180561 10.70874031 32.61461171 13.4092854 32.875 16.125 C36.36228142 48.44047449 49.50524777 74.41939276 75 95 C77.61453321 96.81104252 80.23842602 98.41465197 83 100 C83.31354032 119.93220582 71.18505082 139.9573849 58 154 C38.83365945 171.99587701 15.41799816 180.72475851 -10.66796875 180.1875 C-31.51767703 179.46276541 -51.75675934 171.17975876 -67 157 C-67.86238281 156.2059375 -68.72476563 155.411875 -69.61328125 154.59375 C-74.06204759 150.32725482 -77.74494768 146.05498642 -81.1875 140.9375 C-84.02831722 136.68614604 -84.02831722 136.68614604 -88.8125 135 C-89.864375 135 -90.91625 135 -92 135 C-95.09972888 132.72944859 -95.97497881 129.86644142 -97.1875 126.3125 C-97.53167969 125.31863281 -97.87585938 124.32476562 -98.23046875 123.30078125 C-98.48441406 122.54152344 -98.73835937 121.78226562 -99 121 C-95.39662187 120.32902306 -91.79217704 119.66396043 -88.1875 119 C-87.16333984 118.80921875 -86.13917969 118.6184375 -85.08398438 118.421875 C-84.10107422 118.24140625 -83.11816406 118.0609375 -82.10546875 117.875 C-81.19949951 117.70742187 -80.29353027 117.53984375 -79.36010742 117.3671875 C-77 117 -77 117 -74 117 C-73.81824219 117.67546875 -73.63648438 118.3509375 -73.44921875 119.046875 C-73.19785156 119.93890625 -72.94648438 120.8309375 -72.6875 121.75 C-72.44386719 122.63171875 -72.20023438 123.5134375 -71.94921875 124.421875 C-70.97717017 127.06200695 -69.71145395 128.79476522 -68 131 C-68 131.66 -68 132.32 -68 133 C-67.46375 133.268125 -66.9275 133.53625 -66.375 133.8125 C-64 135 -64 135 -61.47041321 136.54896545 C-56.89696548 138.46119615 -53.00518883 138.4281128 -48.09838867 138.40405273 C-47.11710495 138.41091599 -46.13582123 138.41777924 -45.12480164 138.42485046 C-41.88904239 138.44311338 -38.65376836 138.43928082 -35.41796875 138.43359375 C-33.16123803 138.4381565 -30.90450869 138.44346235 -28.64778137 138.44947815 C-23.91934564 138.45840882 -19.19107881 138.45598735 -14.46264648 138.44604492 C-8.41679534 138.43456848 -2.3715294 138.45474716 3.67424488 138.48396206 C8.33525775 138.50235181 12.99613119 138.5020258 17.65717125 138.49632454 C19.88540148 138.4961716 22.11364132 138.50219355 24.34183693 138.51461601 C27.46499396 138.52957235 30.58708044 138.51881339 33.71020508 138.50170898 C34.62219666 138.51137695 35.53418823 138.52104492 36.47381592 138.53100586 C42.67836569 138.46021664 47.63026285 137.18322131 53 134 C55.20248522 131.87369882 55.20248522 131.87369882 56.5 129.4375 C56.9640625 128.67308594 57.428125 127.90867187 57.90625 127.12109375 C60.60579459 121.88590549 60.66298882 116.76348233 60 111 C57.86232621 104.46719517 54.76293635 99.72895882 49 96 C41.16765807 92.04940248 33.0310591 92.52226627 24.46875 92.48828125 C22.86591228 92.47141528 21.26308763 92.45326248 19.66027832 92.43388367 C15.46496669 92.38658546 11.26970809 92.35664614 7.07421875 92.33044434 C2.7837477 92.30053637 -1.50654103 92.25404147 -5.796875 92.20898438 C-14.19782665 92.12318116 -22.59879528 92.05573438 -31 92 C-31 90 -31 90 -28.9375 87.875 C-28.47730469 87.42511719 -28.01710938 86.97523438 -27.54296875 86.51171875 C-10.61179694 69.92345675 -0.20507102 44.37769095 0.171875 20.83984375 C0.21439791 13.89151254 0.14180252 6.94686931 0 0 Z " fill="#859DAC" transform="translate(285,114)"/>
<path d="M0 0 C2.08246499 2.25600374 2.06019863 4.29004795 2.6875 7.3125 C1.63220784 12.97270342 -2.43406717 14.82575482 -7 18 C-10.1147518 20.01034507 -13.2932278 21.89081707 -16.5 23.75 C-23.22409957 27.7174522 -29.88165487 31.75951287 -36.4375 36 C-37.47390625 36.66660645 -37.47390625 36.66660645 -38.53125 37.34667969 C-45.19380817 41.28108025 -45.19380817 41.28108025 -50 47 C-50.84358525 52.90509672 -49.23898711 56.00440612 -45.8828125 60.625 C-41.48885616 66.16758393 -36.94002246 71.40636171 -31.53125 75.984375 C-22.59875295 83.57554741 -22.59875295 83.57554741 -21.03125 87.3046875 C-20.92212003 89.78739435 -21.29241463 91.61532003 -22 94 C-22.26425781 94.95132813 -22.52851562 95.90265625 -22.80078125 96.8828125 C-23.45045182 99.05907522 -24.13316243 101.22567167 -24.84375 103.3828125 C-26.11914096 107.372718 -27.21685607 111.37945691 -28.25 115.4375 C-28.42499023 116.09951416 -28.59998047 116.76152832 -28.78027344 117.44360352 C-30.08382586 122.62043771 -31.13553137 126.80250691 -28.61328125 131.68359375 C-24.86236425 135.00839761 -20.98278354 135.8559201 -16.1875 137.0625 C-15.25494385 137.31435059 -14.3223877 137.56620117 -13.36157227 137.82568359 C-9.06137567 138.98032161 -4.74582032 140.06717168 -0.421875 141.12890625 C0.59749146 141.38498657 0.59749146 141.38498657 1.63745117 141.64624023 C3.44318399 142.0953261 5.25465543 142.52115679 7.06640625 142.9453125 C10.32558856 144.11705581 11.86469361 145.29766249 14 148 C14.76876191 152.01464553 14.32068052 153.51380695 12.0625 156.9375 C8.60662723 159.26492452 6.81578143 159.36560967 2.7578125 158.6640625 C-2.88799074 157.30459147 -8.44778418 155.69804609 -14 154 C-13.71640625 155.27101563 -13.4328125 156.54203125 -13.140625 157.8515625 C-12.38663434 161.23922932 -11.64914593 164.62994408 -10.921875 168.0234375 C-3.62403922 204.33359121 -3.62403922 204.33359121 17.0703125 233.78515625 C20.47201096 235.92671135 24.13099464 237.00593023 28 238 C28.84715576 238.25910156 28.84715576 238.25910156 29.71142578 238.5234375 C32.74552727 239.15524528 35.63096699 239.14865527 38.73046875 239.16796875 C39.38901352 239.17224884 40.04755829 239.17652893 40.72605896 239.18093872 C42.87994084 239.19098615 45.03359889 239.19097317 47.1875 239.1875 C47.92885193 239.18656342 48.67020386 239.18562683 49.434021 239.18466187 C70.1046724 239.12821507 90.19259907 237.26149469 110.54736328 233.67700195 C123.7926623 231.38022352 123.7926623 231.38022352 129 232 C131.91529268 234.17033693 132.88846031 235.38125225 133.53916931 238.99095154 C133.55710037 240.15723587 133.57503143 241.3235202 133.59350586 242.52514648 C133.60866241 243.17118835 133.62381897 243.81723022 133.63943481 244.48284912 C133.68411852 246.612425 133.70024307 248.74111517 133.71484375 250.87109375 C133.73745627 252.35557523 133.76136561 253.84003747 133.78651428 255.32447815 C133.83482402 258.43383637 133.8693438 261.54295283 133.89379883 264.65258789 C133.92592319 268.63214511 133.98921039 272.61045824 134.06249142 276.58944607 C134.11599966 279.65458159 134.15443322 282.71976242 134.18820381 285.78517342 C134.205878 287.25200235 134.22785305 288.71878614 134.25425529 290.18548393 C134.28865166 292.23898881 134.30309245 294.29170645 134.31225586 296.34545898 C134.32461777 297.51253891 134.33697968 298.67961884 134.34971619 299.88206482 C133.92785023 303.64325961 132.69444973 306.30555027 130 309 C122.74575684 309.59461009 122.74575684 309.59461009 119.89678955 307.32305908 C117.54835393 304.44685455 117.51280468 303.07868047 117.54589844 299.40527344 C117.54620056 298.28441345 117.54650269 297.16355347 117.54681396 296.00872803 C117.56745911 294.80444153 117.58810425 293.60015503 117.609375 292.359375 C117.61503479 291.12205627 117.62069458 289.88473755 117.62652588 288.60992432 C117.64511749 285.32822064 117.68102502 282.04730719 117.7253418 278.76586914 C117.76633835 275.41429933 117.78420499 272.06269556 117.8046875 268.7109375 C117.84880096 262.14031609 117.91574923 255.57022268 118 249 C116.94305687 249.17242973 116.94305687 249.17242973 115.86476135 249.3483429 C112.61983778 249.87640464 109.37437996 250.40111172 106.12890625 250.92578125 C105.02083618 251.10661255 103.91276611 251.28744385 102.77111816 251.47375488 C93.20819498 253.01570811 83.65186768 254.19531226 74 255 C72.95924316 255.08677002 72.95924316 255.08677002 71.89746094 255.17529297 C48.60919306 257.03416229 23.19087228 258.57202106 3.54296875 244.203125 C-14.79341215 228.31722818 -20.55093095 198.87771497 -25.8125 176.4375 C-26.10253906 175.20185303 -26.39257812 173.96620605 -26.69140625 172.69311523 C-28.29698449 165.64646334 -29.51035653 158.73197214 -30.1862793 151.53149414 C-30.74599866 148.77313598 -30.74599866 148.77313598 -33.41333008 147.73999023 C-34.26693115 147.49579346 -35.12053223 147.25159668 -36 147 C-41.68383713 143.44760179 -44.94058506 138.06459953 -46.61425781 131.64331055 C-47.51390498 124.98864376 -46.30256487 120.11343602 -44.06843567 113.82324219 C-39.22624353 101.59413344 -39.22624353 101.59413344 -40.17236328 89.07275391 C-43.89793527 83.94276742 -48.76936913 80.26448608 -53.88867188 76.59863281 C-61.1162966 71.12609734 -65.94986908 61.34041313 -67.4140625 52.5 C-67.81790103 45.69850899 -65.78594248 40.57595555 -62 35 C-56.08098093 28.76145114 -49.06310212 24.23570873 -41.75 19.8125 C-39.62985123 18.51751155 -37.5100669 17.22192627 -35.390625 15.92578125 C-34.32779297 15.27818848 -33.26496094 14.6305957 -32.16992188 13.96337891 C-29.09471073 12.05866171 -26.06697161 10.09617037 -23.046875 8.10546875 C-22.11133789 7.49791748 -21.17580078 6.89036621 -20.21191406 6.2644043 C-18.44797354 5.11676312 -16.6940111 3.95358648 -14.95214844 2.77270508 C-9.462688 -0.75093507 -6.38226946 -1.7237826 0 0 Z " fill="#010101" transform="translate(90,203)"/>
<path d="M0 0 C1.77514648 1.63037109 1.77514648 1.63037109 3 3 C1.11840566 4.23038864 -0.78092927 5.43368077 -2.6875 6.625 C-3.74324219 7.29789063 -4.79898438 7.97078125 -5.88671875 8.6640625 C-9 10 -9 10 -11.51953125 9.2109375 C-12.33808594 8.81132813 -13.15664063 8.41171875 -14 8 C-18.06617451 7.40757722 -19.50423003 7.64807692 -22.89453125 10.0546875 C-23.88321178 10.97792465 -24.85526899 11.91919415 -25.8125 12.875 C-26.33239502 13.37676758 -26.85229004 13.87853516 -27.38793945 14.39550781 C-28.94356783 15.91312406 -30.47348356 17.45317064 -32 19 C-33.21816406 20.20269531 -33.21816406 20.20269531 -34.4609375 21.4296875 C-48.12009524 35.66396767 -55.49490062 54.0785826 -60 73 C-60.57105469 72.81824219 -61.14210938 72.63648437 -61.73046875 72.44921875 C-66.51545926 70.96579562 -71.3186816 69.61855001 -76.1875 68.4375 C-77.27804687 68.169375 -78.36859375 67.90125 -79.4921875 67.625 C-83.04325896 66.88648521 -83.04325896 66.88648521 -86.8828125 67 C-91.13323134 66.93239891 -94.09296539 66.71186834 -98 65 C-101.5858209 60.50181847 -103.15462571 54.70129857 -105.06982422 49.35351562 C-109.05341046 39.27431055 -116.55207575 30.66942385 -124 23 C-124.82371094 22.08347656 -124.82371094 22.08347656 -125.6640625 21.1484375 C-136.6617423 9.2839455 -152.44728746 1.29742334 -167.76953125 -3.17578125 C-170 -4 -170 -4 -171 -6 C-119.21360197 -23.64787866 -49.4626022 -26.33039682 0 0 Z " fill="#DC626C" transform="translate(379,33)"/>
<path d="M0 0 C2.64 0 5.28 0 8 0 C7.37950301 5.13978338 5.01555387 9.36225513 2.75 13.9375 C-6.34070565 32.79528707 -12.0360494 52.32945432 -12.20532227 73.36547852 C-12.21535499 74.15953818 -12.22538771 74.95359785 -12.23572445 75.77171993 C-12.26676549 78.3074204 -12.29173647 80.84313669 -12.31640625 83.37890625 C-12.33484154 84.95829741 -12.35367983 86.53768392 -12.3729248 88.11706543 C-12.44098617 93.93215533 -12.50128532 99.747334 -12.5625 105.5625 C-12.706875 118.576875 -12.85125 131.59125 -13 145 C-65.8 145 -118.6 145 -173 145 C-173 123.88 -173 102.76 -173 81 C-172.67 81 -172.34 81 -172 81 C-172 97.17 -172 113.34 -172 130 C-153.31101161 129.91457494 -134.62212246 129.82099515 -115.9332552 129.71247292 C-107.25573299 129.66234676 -98.57822023 129.61590382 -89.90063477 129.578125 C-82.33743444 129.54518844 -74.77430743 129.50534799 -67.21118802 129.45720994 C-63.20641629 129.43196151 -59.2016931 129.41017533 -55.19686317 129.39665604 C-51.42693808 129.38382065 -47.65717955 129.36175036 -43.88734627 129.33261681 C-42.50427807 129.32355257 -41.12118306 129.31785348 -39.7380867 129.31578636 C-37.84804296 129.31245585 -35.95803682 129.29578798 -34.06806946 129.2784729 C-33.01077291 129.27294214 -31.95347635 129.26741138 -30.86414051 129.26171303 C-27.8584035 128.98706151 -25.68627468 128.36279011 -23 127 C-21.75248417 124.50496834 -21.85524115 122.78599755 -21.82641602 119.99389648 C-21.80618126 118.42471718 -21.80618126 118.42471718 -21.78553772 116.82383728 C-21.77509933 115.68443192 -21.76466095 114.54502655 -21.75390625 113.37109375 C-21.72091475 110.94856482 -21.68770417 108.52603886 -21.65429688 106.10351562 C-21.60728046 102.29274983 -21.56296432 98.48199106 -21.52319336 94.67114258 C-21.1419769 59.85261188 -15.42347386 31.2876184 0 0 Z " fill="#D8EEF2" transform="translate(396,360)"/>
<path d="M0 0 C3.50873745 2.81361022 4.89167956 5.64573833 6.4375 9.8125 C10.89695337 20.90050642 16.81000581 26.24642539 27.625 31.375 C35.74361466 34.3847045 45.25638534 34.3847045 53.375 31.375 C54.94037727 30.63131578 56.48356671 29.83898886 58 29 C58.79148437 28.56429687 59.58296875 28.12859375 60.3984375 27.6796875 C69.35055982 22.23703506 73.22531103 15.29564291 76.82421875 5.63671875 C77.96541213 3.07756416 78.76992603 1.66423431 81 0 C84.85016788 -0.49002137 87.10810967 -0.51283694 90.5 1.4375 C92.31616024 4.54010707 92.37869342 6.7259465 91.79296875 10.24609375 C87.81108893 24.07478966 79.25381915 35.1782032 66.90625 42.53125 C54.72001754 48.68988361 39.84444027 51.42389595 26.4375 47.875 C11.59520204 42.54699561 0.36313437 34.141893 -7 20 C-9.85558493 13.87617337 -12.11839457 8.63763631 -10 2 C-6.2794164 -0.48038907 -4.40203429 -0.46337203 0 0 Z " fill="#040302" transform="translate(140,136)"/>
<path d="M0 0 C4.22860649 2.90636851 8.49978188 5.89468004 10.875 10.5625 C11.00678855 14.51615636 10.80145064 16.49879742 8.1875 19.5 C4.95038005 20.98732538 3.42355304 21.24491405 -0.125 20.5625 C-2.18584032 18.97689656 -4.0257736 17.23231387 -5.9140625 15.4453125 C-16.54464127 6.39241679 -29.33192926 5.65706776 -42.62744141 6.31982422 C-51.48915155 7.18087406 -58.4615245 12.01969993 -65.125 17.5625 C-67.71251661 19.66734524 -68.76154181 20.50949568 -72.125 21 C-75.125 20.5625 -75.125 20.5625 -77.5 19 C-79.77470619 15.58794071 -79.76034983 13.58638226 -79.125 9.5625 C-77.1875 7.0625 -77.1875 7.0625 -74.125 4.5625 C-73.48175781 4.005625 -72.83851563 3.44875 -72.17578125 2.875 C-51.12235673 -14.66322078 -22.67697138 -13.40002854 0 0 Z " fill="#030404" transform="translate(448.125,165.4375)"/>
<path d="M0 0 C5.55528736 3.05322093 8.9441415 7.38828301 11.75 13 C12.3822028 20.89735299 12.89020446 28.54485951 7.75 35 C5.5935016 37.27412558 3.42950551 39.35872516 0.75 41 C-0.24 41 -1.23 41 -2.25 41 C-2.20875 41.9075 -2.1675 42.815 -2.125 43.75 C-2.24720095 46.92722465 -2.49397131 48.41216824 -4.25 51 C-7.74124017 53.32749345 -9.14222251 53.50299316 -13.25 53 C-15.64267922 51.34719085 -17.03299593 50.05386148 -17.63256836 47.14208984 C-17.78946948 44.91455761 -17.79548141 42.73237929 -17.75 40.5 C-17.76546875 39.74074219 -17.7809375 38.98148437 -17.796875 38.19921875 C-17.77113044 34.52418306 -17.67047434 32.58383744 -15.48046875 29.54296875 C-13.24721966 27.99807665 -11.70940166 27.31407048 -9.0625 26.8125 C-5.47887204 26.41026908 -5.47887204 26.41026908 -4.25 25 C-3.76550425 19.77964778 -3.76550425 19.77964778 -5.375 15 C-8.14815624 13.52098334 -10.16184125 13.61398016 -13.25 14 C-15.16325006 14.91015769 -15.16325006 14.91015769 -16.25 17 C-16.58994183 18.32660227 -16.8995489 19.66115042 -17.1875 21 C-17.8060788 23.73582818 -18.11297512 24.84340013 -20 27 C-23.01616732 28.34051881 -24.98241094 28.4765234 -28.25 28 C-30.625 26.625 -30.625 26.625 -32.25 24 C-33.4617747 17.69197657 -32.3022911 12.46559364 -28.94921875 7.046875 C-21.57765487 -1.83289391 -10.5358144 -4.74988304 0 0 Z " fill="#050404" transform="translate(415.25,247)"/>
<path d="M0 0 C7.65883348 11.48825021 6.63466923 31.41881048 4.30859375 44.5078125 C0.33061013 62.94016567 -7.99956058 78.40863152 -21 92 C-21.61359375 92.68835938 -22.2271875 93.37671875 -22.859375 94.0859375 C-37.10264042 109.48570738 -59.98393914 118.42002882 -80.6796875 119.23828125 C-92.38702518 119.48113009 -102.7660174 118.29804994 -114 115 C-114 114.67 -114 114.34 -114 114 C-113.16452637 113.98541748 -112.32905273 113.97083496 -111.46826172 113.95581055 C-108.29571833 113.89386562 -105.12374338 113.81956609 -101.95166016 113.73754883 C-99.93281767 113.68889344 -97.91366223 113.65381657 -95.89453125 113.61914062 C-68.64175727 112.88076498 -44.77913883 102.6605167 -26 83 C-16.8071358 73.11092197 -10.1926555 62.02104714 -5.625 49.375 C-5.38628174 48.71935059 -5.14756348 48.06370117 -4.90161133 47.38818359 C-1.18670875 36.43828992 -0.65174168 25.22324887 -0.375 13.75 C-0.33669011 12.4075304 -0.29763159 11.06508194 -0.2578125 9.72265625 C-0.16455333 6.48190024 -0.07875536 3.24113534 0 0 Z " fill="#F8BD4E" transform="translate(266,101)"/>
<path d="M0 0 C4.2939698 0.90833977 6.28550147 3.08487498 9.3203125 6.15625 C11.36165588 8.10189739 11.36165588 8.10189739 15.25 7.6875 C17.21623783 6.12253357 17.21623783 6.12253357 19.0625 4.125 C22.76759563 0.70331654 22.76759563 0.70331654 27.0625 0.5625 C31.875 2.26102941 31.875 2.26102941 33.25 4.6875 C33.875 7.875 33.875 7.875 33.25 11.6875 C31.57771864 13.95464762 29.78040166 15.90733962 27.78125 17.890625 C25.92569575 19.67459057 25.92569575 19.67459057 26.25 22.6875 C27.8017056 24.55905148 27.8017056 24.55905148 29.75 26.4375 C32.40002258 29.36760626 33.20092148 30.44210742 34 34.4375 C33.25 37.6875 33.25 37.6875 31.0625 40.125 C27.94644304 41.85614276 26.73747909 42.14938339 23.25 41.6875 C20.79296875 39.9375 20.79296875 39.9375 18.4375 37.6875 C17.64730469 36.945 16.85710937 36.2025 16.04296875 35.4375 C15.45128906 34.86 14.85960937 34.2825 14.25 33.6875 C11.24060684 35.03156448 9.25203067 36.54942145 6.9375 38.875 C4.05714014 41.41467213 3.57014261 41.68216429 -0.5 41.75 C-5.34559402 40.16586349 -5.34559402 40.16586349 -6.75 37.6875 C-7.4375 34.5625 -7.4375 34.5625 -6.75 30.6875 C-4.35511262 27.40561729 -1.64219261 24.5345021 1.25 21.6875 C-0.06336784 18.71010785 -1.39357919 16.95483822 -3.875 14.875 C-6.43931432 12.39239177 -6.72896734 11.80948945 -7.375 8.0625 C-6.75 4.6875 -6.75 4.6875 -5.125 2.25 C-2.75 0.6875 -2.75 0.6875 0 0 Z " fill="#050202" transform="translate(286.75,27.3125)"/>
<path d="M0 0 C-3.04259969 37.39389543 -22.15034222 71.00321601 -42 102 C-43.28740401 104.0293483 -44.57383299 106.05931541 -45.859375 108.08984375 C-54.86685748 122.30028623 -54.86685748 122.30028623 -58 127 C-59.80908203 127.40405273 -59.80908203 127.40405273 -62.0078125 127.43359375 C-63.2299646 127.450271 -63.2299646 127.450271 -64.47680664 127.46728516 C-65.35071045 127.45745605 -66.22461426 127.44762695 -67.125 127.4375 C-68.01630615 127.43282715 -68.9076123 127.4281543 -69.82592773 127.42333984 C-78.92720538 127.223882 -89.28297085 126.1446861 -97 121 C-95.88625 121.0721875 -94.7725 121.144375 -93.625 121.21875 C-83.40081447 121.85086021 -73.24246381 122.12558879 -63 122 C-62.73517822 121.28247559 -62.47035645 120.56495117 -62.19750977 119.82568359 C-60.97065523 116.9307571 -59.52316302 114.44260646 -57.83984375 111.7890625 C-57.21553467 110.79922363 -56.59122559 109.80938477 -55.94799805 108.78955078 C-55.28453369 107.74524902 -54.62106934 106.70094727 -53.9375 105.625 C-52.56681501 103.44847899 -51.19702024 101.27139709 -49.828125 99.09375 C-49.16619141 98.041875 -48.50425781 96.99 -47.82226562 95.90625 C-44.11551629 89.99452115 -40.51336171 84.0283737 -37 78 C-36.40759521 76.99356445 -36.40759521 76.99356445 -35.80322266 75.96679688 C-22.84843653 53.84517378 -13.31595948 30.32786746 -9 5 C-9.99 4.505 -9.99 4.505 -11 4 C-9.5437455 3.32880451 -8.08492133 2.66318193 -6.625 2 C-5.81289063 1.62875 -5.00078125 1.2575 -4.1640625 0.875 C-2 0 -2 0 0 0 Z " fill="#E1959B" transform="translate(472,218)"/>
<path d="M0 0 C1.98 0.99 3.96 1.98 6 3 C6.31354032 22.93220582 -5.81494918 42.9573849 -19 57 C-38.17044118 74.99972721 -61.57279203 83.71017338 -87.66015625 83.19140625 C-97.09342319 82.8654142 -105.98192884 80.66281629 -115 78 C-111.44897832 76.87311352 -108.27173017 76.97264541 -104.56640625 77.11328125 C-73.38497238 77.96202294 -48.23722582 70.36457305 -25.25 48.6875 C-12.18880587 35.05218745 -4.43799619 18.18708242 0 0 Z " fill="#5E7680" transform="translate(362,211)"/>
<path d="M0 0 C23.66380263 28.2145339 34.29371438 66.77424369 36 103 C36.12246094 104.29421875 36.24492187 105.5884375 36.37109375 106.921875 C37.09722344 116.46562421 37.09722344 116.46562421 34.51953125 120.0703125 C32.09939824 121.80481684 29.76112729 122.8801279 27 124 C25.88625 124.50660156 24.7725 125.01320313 23.625 125.53515625 C3.17116542 134.56101819 -19.29358374 137.59971931 -41 131 C-41.99 130.34 -42.98 129.68 -44 129 C-43.35675781 129.01571045 -42.71351563 129.0314209 -42.05078125 129.04760742 C-28.97762025 129.32385021 -16.71428629 129.25971158 -4 126 C-2.91074219 125.73316406 -1.82148438 125.46632813 -0.69921875 125.19140625 C7.26886792 123.00237145 14.37635599 119.51924436 21.6640625 115.70703125 C25 114 25 114 28 113 C27.01308764 71.59330136 17.46780511 37.80795258 -1 1 C-0.67 0.67 -0.34 0.34 0 0 Z " fill="#8FD0DD" transform="translate(438,81)"/>
<path d="M0 0 C1.875 1.875 1.875 1.875 3 4 C2.6875 6.25 2.6875 6.25 2 8 C1.01 7.505 1.01 7.505 0 7 C-6.9738747 6.5435282 -13.56496627 7.81627868 -20.41937256 9.02334595 C-40.71188082 12.55926872 -60.79083084 14.14382425 -81.375 14.3125 C-82.07582703 14.32221832 -82.77665405 14.33193665 -83.49871826 14.34194946 C-94.3509981 14.47023418 -105.26778936 14.16489078 -114 7 C-114.66 6.01 -115.32 5.02 -116 4 C-115.10414185 4.09087891 -115.10414185 4.09087891 -114.19018555 4.18359375 C-80.89550584 7.49427994 -48.26709238 5.23069392 -15.34521484 -0.54956055 C-13.41282959 -0.87500854 -13.41282959 -0.87500854 -11.44140625 -1.20703125 C-10.31420166 -1.4078833 -9.18699707 -1.60873535 -8.02563477 -1.81567383 C-4.70194192 -2.01815814 -2.92397544 -1.5404783 0 0 Z " fill="#D8EDF1" transform="translate(219,429)"/>
<path d="M0 0 C2.203125 1.359375 2.203125 1.359375 4 4 C4.49517414 7.59459748 4.37531411 11.13035006 4.25 14.75 C4.23195313 15.73355469 4.21390625 16.71710938 4.1953125 17.73046875 C4.14824126 20.15463783 4.08250742 22.57682059 4 25 C4.77730469 24.96648437 5.55460937 24.93296875 6.35546875 24.8984375 C9 25 9 25 11.3125 26.625 C13 29 13 29 13.5625 31.9375 C13 35 13 35 11.375 37.875 C6.02631403 41.24269117 0.15832418 40.88080918 -6 40 C-9.16650599 38.20547272 -9.83131888 37.50604337 -11 34 C-11.24946587 29.728112 -11.27069636 25.45421928 -11.29516602 21.17602539 C-11.30670816 19.76869673 -11.32719564 18.36141261 -11.35668945 16.9543457 C-11.39935657 14.91848076 -11.41552956 12.88391267 -11.42578125 10.84765625 C-11.44036377 9.63086182 -11.45494629 8.41406738 -11.4699707 7.16040039 C-11 4 -11 4 -9.19213867 1.60327148 C-5.99567703 -0.73453491 -3.8581595 -0.55116564 0 0 Z " fill="#020303" transform="translate(306,151)"/>
<path d="M0 0 C0.94875 0.66 1.8975 1.32 2.875 2 C7.1082096 4.70925414 9.03427897 4.63056775 14 4 C15.69774938 2.70647667 17.36739286 1.37482707 19 0 C22 -0.5625 22 -0.5625 25 0 C27.9375 2.0625 27.9375 2.0625 30 5 C30.1875 8.5 30.1875 8.5 29 12 C23.53488619 17.72535733 17.93058485 20.14736987 10.0625 20.375 C3.06577334 20.16536025 -2.16196749 18.89284688 -7.5 14.25 C-9.77241201 11.75407206 -10.01593792 10.90756009 -10.625 7.375 C-10 4 -10 4 -8.375 1.5625 C-5.24562501 -0.49629933 -3.69150037 -0.59064006 0 0 Z " fill="#040505" transform="translate(417,121)"/>
<path d="M0 0 C0.639375 0.515625 1.27875 1.03125 1.9375 1.5625 C4.57427056 3.40024918 6.82144371 3.46865878 9.98828125 3.375 C12.32206721 3.07774873 12.32206721 3.07774873 15.0625 0.9375 C18 -1 18 -1 21.6875 -0.9375 C26.48829953 0.42121685 26.48829953 0.42121685 28 3 C28.74203316 7.17393653 28.23298334 8.66050998 25.8125 12.1875 C20.2029027 17.7970973 15.51417497 19.13771407 7.75 19.3125 C0.2285847 19.23661128 -4.76821849 17.56833652 -10.0625 12.1875 C-12 9 -12 9 -12.0625 5.3125 C-11 2 -11 2 -9.375 0 C-5.90902058 -1.45935975 -3.60253592 -0.90063398 0 0 Z " fill="#040505" transform="translate(365,122)"/>
<path d="M0 0 C3.06248576 2.2358235 3.90779836 3.44337218 4.53344727 7.22045898 C4.54432373 8.46641846 4.5552002 9.71237793 4.56640625 10.99609375 C4.57570412 12.0019326 4.57570412 12.0019326 4.58518982 13.02809143 C4.59227528 14.4426224 4.58913597 15.85723699 4.57641602 17.27172852 C4.56255996 19.42816851 4.59661158 21.58025534 4.63476562 23.73632812 C4.63571707 25.11458439 4.63385665 26.49284605 4.62890625 27.87109375 C4.62963135 29.11818115 4.63035645 30.36526855 4.63110352 31.65014648 C3.83160439 35.89383218 2.39210574 37.40175857 -1 40 C-4.625 40.0625 -4.625 40.0625 -8 39 C-10.47287364 36.61066697 -10.97420278 35.20662718 -11.40405273 31.76367188 C-11.41380127 30.51134766 -11.4235498 29.25902344 -11.43359375 27.96875 C-11.4388356 27.29581909 -11.44407745 26.62288818 -11.44947815 25.92956543 C-11.4558841 24.51083757 -11.45457977 23.0920565 -11.44604492 21.67333984 C-11.43752565 19.50652353 -11.46632317 17.34233787 -11.49804688 15.17578125 C-11.49965892 13.79427162 -11.4990813 12.41275734 -11.49609375 11.03125 C-11.49794678 9.77892578 -11.4997998 8.52660156 -11.50170898 7.23632812 C-11 4 -11 4 -9.18774414 1.59179688 C-5.99251566 -0.73304295 -3.84984367 -0.54997767 0 0 Z " fill="#040302" transform="translate(199,95)"/>
<path d="M0 0 C3.06248576 2.2358235 3.90779836 3.44337218 4.53344727 7.22045898 C4.54432373 8.46641846 4.5552002 9.71237793 4.56640625 10.99609375 C4.57570412 12.0019326 4.57570412 12.0019326 4.58518982 13.02809143 C4.59227528 14.4426224 4.58913597 15.85723699 4.57641602 17.27172852 C4.56255996 19.42816851 4.59661158 21.58025534 4.63476562 23.73632812 C4.63571707 25.11458439 4.63385665 26.49284605 4.62890625 27.87109375 C4.62963135 29.11818115 4.63035645 30.36526855 4.63110352 31.65014648 C3.83160439 35.89383218 2.39210574 37.40175857 -1 40 C-4.625 40.0625 -4.625 40.0625 -8 39 C-10.47287364 36.61066697 -10.97420278 35.20662718 -11.40405273 31.76367188 C-11.41380127 30.51134766 -11.4235498 29.25902344 -11.43359375 27.96875 C-11.4388356 27.29581909 -11.44407745 26.62288818 -11.44947815 25.92956543 C-11.4558841 24.51083757 -11.45457977 23.0920565 -11.44604492 21.67333984 C-11.43752565 19.50652353 -11.46632317 17.34233787 -11.49804688 15.17578125 C-11.49965892 13.79427162 -11.4990813 12.41275734 -11.49609375 11.03125 C-11.49794678 9.77892578 -11.4997998 8.52660156 -11.50170898 7.23632812 C-11 4 -11 4 -9.18774414 1.59179688 C-5.99251566 -0.73304295 -3.84984367 -0.54997767 0 0 Z " fill="#040302" transform="translate(169,95)"/>
<path d="M0 0 C5.27360563 0.652869 10.28801147 1.7352512 15.41796875 3.109375 C16.19763504 3.31806213 16.97730133 3.52674927 17.78059387 3.74176025 C19.41750185 4.18298794 21.05370003 4.62685661 22.68920898 5.07324219 C24.35795221 5.52528521 26.02889743 5.96927475 27.7019043 6.40527344 C30.13321041 7.03900928 32.55700289 7.69636896 34.98046875 8.359375 C35.72532028 8.54916931 36.47017181 8.73896362 37.2375946 8.93450928 C41.97296977 10.26858332 44.44512324 11.76425075 47 16 C47.25 18.8125 47.25 18.8125 47 21 C45.68 21 44.36 21 43 21 C42.34 20.34 41.68 19.68 41 19 C39.17810819 18.38998511 37.32833875 17.86195657 35.46875 17.37890625 C34.34726563 17.08306641 33.22578125 16.78722656 32.0703125 16.48242188 C30.30300781 16.02706055 30.30300781 16.02706055 28.5 15.5625 C23.99697876 14.38614895 19.49641649 13.20136389 15 12 C14.0217627 11.7407373 13.04352539 11.48147461 12.03564453 11.21435547 C10.70702393 10.84334717 10.70702393 10.84334717 9.3515625 10.46484375 C8.58150879 10.25335693 7.81145508 10.04187012 7.01806641 9.82397461 C3.46811914 8.37453449 2.00880543 6.21408868 0 3 C0 2.01 0 1.02 0 0 Z " fill="#D7ECF0" transform="translate(59,329)"/>
<path d="M0 0 C4.95 0 9.9 0 15 0 C15 5.61 15 11.22 15 17 C10.05 17 5.1 17 0 17 C0 11.39 0 5.78 0 0 Z " fill="#ECF7F8" transform="translate(286,221)"/>
<path d="M0 0 C4.95 0 9.9 0 15 0 C15 5.61 15 11.22 15 17 C10.05 17 5.1 17 0 17 C0 11.39 0 5.78 0 0 Z " fill="#ECF7F8" transform="translate(256,221)"/>
<path d="M0 0 C8.21525886 -0.49046322 8.21525886 -0.49046322 12 1.875 C14.60613383 4.64401719 14.956466 5.52983285 15.3125 9.375 C15 13 15 13 13.6875 15.4375 C9.27648594 18.00204306 5.03163219 17.23960153 0 17 C0 11.39 0 5.78 0 0 Z " fill="#E7F2F3" transform="translate(316,221)"/>
<path d="M0 0 C0 5.61 0 11.22 0 17 C-10.19117647 17.60661765 -10.19117647 17.60661765 -13.75 14.9375 C-15.40903641 11.03876443 -15.22786768 9.04474058 -14 5 C-10.03168578 -0.82846151 -6.52373253 -0.48684571 0 0 Z " fill="#EAF5F6" transform="translate(241,221)"/>
<path d="M0 0 C3.31469389 1.22499557 4.84046741 2.16720362 6.875 5.0625 C7.51750722 8.83722994 7.14336859 10.56870179 5.3125 13.9375 C2.875 16.0625 2.875 16.0625 -0.5625 16.6875 C-5.03645674 15.90259531 -6.49288535 14.73150829 -9.125 11.0625 C-9.8125 8.0625 -9.8125 8.0625 -9.125 5.0625 C-6.16174116 1.74647225 -4.52716343 0.09054327 0 0 Z " fill="#080707" transform="translate(406.125,309.9375)"/>
</svg>
