<?xml version="1.0" encoding="UTF-8"?>
<svg version="1.1" xmlns="http://www.w3.org/2000/svg" width="500" height="500">
<path d="M0 0 C0.71542969 0.58394531 1.43085938 1.16789063 2.16796875 1.76953125 C2.16796875 2.42953125 2.16796875 3.08953125 2.16796875 3.76953125 C2.73902344 4.01832031 3.31007813 4.26710937 3.8984375 4.5234375 C16.33255252 11.35043008 24.7589591 27.8132886 28.81396484 40.84570312 C34.90511953 62.50528886 32.89885241 83.76613532 22.60546875 103.8125 C18.16486319 111.20995109 12.41580965 117.8325282 6.16796875 123.76953125 C5.50796875 123.76953125 4.84796875 123.76953125 4.16796875 123.76953125 C4.16796875 124.42953125 4.16796875 125.08953125 4.16796875 125.76953125 C-14.432796 139.90385097 -35.59263304 146.04190112 -58.80078125 143.30078125 C-79.81624059 140.12117948 -96.99250812 129.85573021 -110.83203125 113.76953125 C-113.42452635 110.2290342 -115.69152863 106.59773786 -117.83203125 102.76953125 C-118.41210938 101.77373047 -118.41210938 101.77373047 -119.00390625 100.7578125 C-127.78812536 84.64214898 -129.84020458 62.44168427 -124.83203125 44.76953125 C-124.66058594 44.01414063 -124.48914063 43.25875 -124.3125 42.48046875 C-121.66477766 31.99207185 -115.70874738 21.06204188 -108.83203125 12.76953125 C-108.17203125 12.76953125 -107.51203125 12.76953125 -106.83203125 12.76953125 C-106.56390625 12.17140625 -106.29578125 11.57328125 -106.01953125 10.95703125 C-104.83285719 8.77105271 -103.73604012 7.35620531 -101.83203125 5.76953125 C-101.17203125 5.76953125 -100.51203125 5.76953125 -99.83203125 5.76953125 C-99.83203125 5.10953125 -99.83203125 4.44953125 -99.83203125 3.76953125 C-71.81367848 -20.28162113 -29.80652799 -20.16664183 0 0 Z M-54.12890625 -2.1796875 C-69.13861614 -1.32128906 -83.96519579 6.58515406 -94.83203125 16.76953125 C-94.83203125 17.42953125 -94.83203125 18.08953125 -94.83203125 18.76953125 C-95.49203125 18.76953125 -96.15203125 18.76953125 -96.83203125 18.76953125 C-98.35690076 20.6329218 -99.727947 22.47375386 -101.08203125 24.45703125 C-101.48172119 25.0399292 -101.88141113 25.62282715 -102.29321289 26.22338867 C-113.1431758 42.47761452 -116.30308089 59.69785041 -113.51123047 78.98583984 C-112.70684674 82.76732299 -111.40315726 86.24733372 -109.83203125 89.76953125 C-109.45820313 90.65382813 -109.084375 91.538125 -108.69921875 92.44921875 C-101.68140228 107.73969305 -88.45756933 120.47435044 -72.83203125 126.76953125 C-53.09922664 133.08402873 -34.27671057 132.47867249 -15.71826172 123.10888672 C-9.49241532 119.79155301 -3.78984445 115.83238286 1.16796875 110.76953125 C1.16796875 110.10953125 1.16796875 109.44953125 1.16796875 108.76953125 C1.82796875 108.76953125 2.48796875 108.76953125 3.16796875 108.76953125 C15.58576421 94.59148128 20.4701171 76.44894638 19.37939453 58.00048828 C18.19101894 45.46079299 12.90158855 32.7127567 5.16796875 22.76953125 C4.50796875 22.76953125 3.84796875 22.76953125 3.16796875 22.76953125 C2.94109375 22.21265625 2.71421875 21.65578125 2.48046875 21.08203125 C0.79246839 18.10793537 -1.29879642 16.0494426 -3.83203125 13.76953125 C-4.49203125 13.76953125 -5.15203125 13.76953125 -5.83203125 13.76953125 C-5.83203125 13.10953125 -5.83203125 12.44953125 -5.83203125 11.76953125 C-8.03236825 10.19307957 -10.200459 8.77754161 -12.51953125 7.39453125 C-13.53587646 6.78834961 -13.53587646 6.78834961 -14.57275391 6.16992188 C-27.22672572 -1.12169672 -39.8573775 -2.4952145 -54.12890625 -2.1796875 Z " fill="#5C5C5C" transform="translate(367.83203125,190.23046875)"/>
<path d="M0 0 C1.98533121 0.00051955 3.97066294 -0.00000181 5.95599365 -0.00151062 C10.09802014 -0.00142133 14.23985023 0.00892303 18.38183594 0.02709961 C23.67989398 0.04984462 28.97766714 0.05031541 34.27576065 0.04358196 C38.36792516 0.04023561 42.46002517 0.04688368 46.55217743 0.0567112 C48.50573133 0.0605475 50.45929241 0.06171795 52.41284943 0.06012535 C55.14288447 0.05975298 57.87255848 0.07242105 60.60253906 0.08862305 C61.4016571 0.08614563 62.20077515 0.08366821 63.02410889 0.08111572 C74.30866613 0.18757238 74.30866613 0.18757238 77.484375 3.36328125 C77.55681553 5.38292324 77.56814688 7.40495249 77.546875 9.42578125 C77.53785156 10.53050781 77.52882812 11.63523437 77.51953125 12.7734375 C77.50212891 14.05541016 77.50212891 14.05541016 77.484375 15.36328125 C71.90892111 14.47627722 71.90892111 14.47627722 69.52191162 13.84095764 C66.06828833 13.03129646 62.53221642 13.12163574 59 13.046875 C58.2766748 13.02822388 57.55334961 13.00957275 56.80810547 12.99035645 C54.11698124 12.92227489 51.42566435 12.86198852 48.734375 12.80078125 C42.711875 12.65640625 36.689375 12.51203125 30.484375 12.36328125 C30.484375 31.50328125 30.484375 50.64328125 30.484375 70.36328125 C35.7025 70.26015625 40.920625 70.15703125 46.296875 70.05078125 C47.91956299 70.02588623 49.54225098 70.00099121 51.21411133 69.9753418 C62.86771113 69.68133716 73.79554486 68.95314977 82.484375 60.36328125 C83.45736837 59.09813583 84.39744177 57.80673826 85.296875 56.48828125 C86.01875 55.45703125 86.740625 54.42578125 87.484375 53.36328125 C88.474375 53.36328125 89.464375 53.36328125 90.484375 53.36328125 C93.22671888 56.39944769 95.37118473 59.81634753 95.671875 63.92578125 C91.70114561 72.0762258 84.76550196 76.88744591 76.42076111 79.91030884 C71.56029365 81.5039046 67.16824189 81.78904457 62.08422852 81.75146484 C61.19189514 81.7567218 60.29956177 81.76197876 59.38018799 81.76739502 C56.45770272 81.78049829 53.53577116 81.77189062 50.61328125 81.76171875 C48.56501665 81.76374244 46.51675275 81.76665634 44.4684906 81.77041626 C40.18587349 81.77482668 35.90344474 81.76845054 31.62084961 81.75439453 C26.15256764 81.73731441 20.68472786 81.74714473 15.21646214 81.76511192 C10.98948381 81.77599368 6.76260894 81.77248313 2.53562737 81.76472855 C0.52035405 81.76273811 -1.4949289 81.76514484 -3.51019096 81.77216721 C-6.33573876 81.77985305 -9.16058774 81.76807792 -11.98608398 81.75146484 C-12.8056105 81.75753754 -13.62513702 81.76361023 -14.46949768 81.76986694 C-26.08698455 81.6443936 -35.205086 77.39630132 -43.55859375 69.41015625 C-52.21693613 60.03182378 -54.99433924 49.83392068 -54.84375 37.171875 C-54.24803065 30.25727535 -51.63402365 24.47365698 -48.515625 18.36328125 C-47.855625 18.36328125 -47.195625 18.36328125 -46.515625 18.36328125 C-46.350625 17.68265625 -46.185625 17.00203125 -46.015625 16.30078125 C-42.35922915 9.14033937 -34.61136056 4.23144324 -27.12988281 1.80786133 C-18.2567049 -0.55207838 -9.11025647 -0.04726356 0 0 Z M-37.515625 24.36328125 C-41.55751335 31.16303265 -43.85161358 38.72462357 -41.984375 46.60546875 C-39.3402182 55.14149667 -34.77653465 61.16752163 -27.515625 66.36328125 C-24.85184576 67.69034518 -22.39125184 68.5005932 -19.515625 69.36328125 C-18.65179199 69.6425647 -18.65179199 69.6425647 -17.77050781 69.92749023 C-14.42068563 70.57489524 -11.08505496 70.48518953 -7.6875 70.4609375 C-6.56399139 70.45881508 -6.56399139 70.45881508 -5.41778564 70.45664978 C-3.03369088 70.45106784 -0.64969122 70.4385187 1.734375 70.42578125 C3.35416531 70.42076391 4.97395709 70.41620141 6.59375 70.41210938 C10.55732812 70.40110433 14.52083545 70.38385216 18.484375 70.36328125 C19.25808598 66.93344578 19.61054959 63.76678633 19.61376953 60.25341797 C19.61849777 58.76695267 19.61849777 58.76695267 19.62332153 57.25045776 C19.6212973 56.19198639 19.61927307 55.13351501 19.6171875 54.04296875 C19.61814423 52.94735626 19.61910095 51.85174377 19.62008667 50.72293091 C19.62076612 48.41147809 19.61892826 46.10002335 19.61474609 43.78857422 C19.60938429 40.24442281 19.61470436 36.70039753 19.62109375 33.15625 C19.62043313 30.91015597 19.6191523 28.66406202 19.6171875 26.41796875 C19.61921173 25.35544891 19.62123596 24.29292908 19.62332153 23.19821167 C19.62016937 22.21353912 19.61701721 21.22886658 19.61376953 20.21435547 C19.61297394 19.3478537 19.61217834 18.48135193 19.61135864 17.58859253 C19.57182384 15.18951597 19.57182384 15.18951597 18.484375 12.36328125 C13.39816856 12.26356675 8.31254508 12.19141844 3.22558594 12.14355469 C1.49924798 12.1235784 -0.22702353 12.09638753 -1.953125 12.06152344 C-16.36059875 11.77804305 -27.51310432 12.74810928 -37.515625 24.36328125 Z " fill="#5B5B5B" transform="translate(154.515625,246.63671875)"/>
<path d="M0 0 C0.99 0.66 1.98 1.32 3 2 C3.33 1.01 3.66 0.02 4 -1 C5.65 -1.33 7.3 -1.66 9 -2 C11.45087265 0.91546115 12.53649102 3.20308607 13.25 6.9375 C13.42015625 7.77152344 13.5903125 8.60554688 13.765625 9.46484375 C14.02014731 12.2179267 13.72178344 14.33958027 13 17 C12 18 12 18 9.0625 18.1875 C4.26570271 18.13753336 -0.33837253 17.0505076 -5 16 C-5.625 13.6875 -5.625 13.6875 -6 11 C-5.01 9.515 -5.01 9.515 -4 8 C-10.16618465 2.88569391 -16.74427953 -0.65193552 -24 -4 C-25.18529297 -4.57427734 -25.18529297 -4.57427734 -26.39453125 -5.16015625 C-46.61492832 -14.21972087 -72.13643704 -13.21124049 -92.5625 -5.4375 C-99.66012093 -2.45498908 -105.78914052 1.57928075 -112.05078125 6.0234375 C-115 8 -115 8 -117 8 C-117 8.66 -117 9.32 -117 10 C-117.66 10 -118.32 10 -119 10 C-119 10.66 -119 11.32 -119 12 C-119.66 12 -120.32 12 -121 12 C-121 12.66 -121 13.32 -121 14 C-121.66 14 -122.32 14 -123 14 C-123 14.66 -123 15.32 -123 16 C-124.66611905 16.042721 -126.33382885 16.04063832 -128 16 C-129 15 -129 15 -129.2734375 12.6796875 C-128.76556129 7.7025006 -124.63312684 5.10391524 -121 2 C-85.22194558 -26.69763384 -36.82778693 -25.43355451 0 0 Z " fill="#686868" transform="translate(380,177)"/>
<path d="M0 0 C3.0625 0.3125 3.0625 0.3125 4.7355957 1.34887695 C6.7859461 4.38309373 6.43056536 7.51108342 6.35546875 11.04296875 C6.35122391 11.79338943 6.34697906 12.54381012 6.34260559 13.31697083 C6.3258245 15.71168026 6.2881749 18.10554534 6.25 20.5 C6.23495235 22.1243368 6.22126409 23.7486868 6.20898438 25.37304688 C6.17592305 29.35318948 6.12414594 33.33270163 6.0625 37.3125 C7.21250488 37.2810791 7.21250488 37.2810791 8.38574219 37.24902344 C11.8611946 37.16584842 15.33643763 37.11383425 18.8125 37.0625 C20.0190625 37.02898437 21.225625 36.99546875 22.46875 36.9609375 C23.62890625 36.94804687 24.7890625 36.93515625 25.984375 36.921875 C27.05268555 36.90092773 28.12099609 36.87998047 29.22167969 36.85839844 C32.7740634 37.42624252 33.95838221 38.4335163 36.0625 41.3125 C35.9375 45 35.9375 45 35.0625 48.3125 C31.97174455 49.85787772 28.70848985 49.47540768 25.31640625 49.48046875 C24.16603127 49.48546135 24.16603127 49.48546135 22.99241638 49.49055481 C21.36921794 49.49562063 19.74600907 49.49796324 18.12280273 49.49780273 C15.63833467 49.49998827 13.15431128 49.51814457 10.66992188 49.53710938 C9.09375152 49.54004355 7.51757905 49.54202818 5.94140625 49.54296875 C5.19758194 49.55015427 4.45375763 49.55733978 3.68739319 49.56474304 C-0.07059384 49.54808426 -1.72958927 49.45110716 -4.9375 47.3125 C-5.3117218 45.3770752 -5.3117218 45.3770752 -5.30981445 42.98632812 C-5.31604324 42.09200073 -5.32227203 41.19767334 -5.32868958 40.27624512 C-5.31947983 39.30852173 -5.31027008 38.34079834 -5.30078125 37.34375 C-5.30127975 36.35250122 -5.30177826 35.36125244 -5.30229187 34.33996582 C-5.29994874 32.24176023 -5.29020623 30.14355198 -5.27368164 28.04541016 C-5.2500959 24.82559188 -5.25311806 21.60660138 -5.25976562 18.38671875 C-5.25418894 16.35155754 -5.24707911 14.31639983 -5.23828125 12.28125 C-5.23919266 11.31352661 -5.24010406 10.34580322 -5.24104309 9.34875488 C-5.23151108 8.45442749 -5.22197906 7.5601001 -5.2121582 6.63867188 C-5.20755081 5.84972534 -5.20294342 5.06077881 -5.19819641 4.2479248 C-4.73273836 0.79233809 -3.28566035 0.34953834 0 0 Z " fill="#5C5C5C" transform="translate(319.9375,211.6875)"/>
<path d="M0 0 C2 0.75 2 0.75 4 3.75 C4.66796875 6.0546875 4.66796875 6.0546875 5.1875 8.625 C5.45626953 9.88957031 5.45626953 9.88957031 5.73046875 11.1796875 C6.02221112 13.96181041 5.73554822 16.06079822 5 18.75 C4 19.75 4 19.75 1.0625 19.9375 C-3.73429729 19.88753336 -8.33837253 18.8005076 -13 17.75 C-14.125 13 -14.125 13 -13 10.75 C-10.67843403 10.34270772 -8.3431213 10.00561323 -6 9.75 C-6.33 8.1 -6.66 6.45 -7 4.75 C-6.34 4.75 -5.68 4.75 -5 4.75 C-4.87625 4.110625 -4.7525 3.47125 -4.625 2.8125 C-4.41875 2.131875 -4.2125 1.45125 -4 0.75 C-2 -0.25 -2 -0.25 0 0 Z " fill="#605F5F" transform="translate(388,175.25)"/>
<path d="M0 0 C1.86591797 0.07250977 1.86591797 0.07250977 3.76953125 0.14648438 C5.69732422 0.2305957 5.69732422 0.2305957 7.6640625 0.31640625 C8.97246094 0.36861328 10.28085937 0.42082031 11.62890625 0.47460938 C14.84922328 0.60389218 18.0691993 0.73884315 21.2890625 0.87890625 C20.9590625 1.53890625 20.6290625 2.19890625 20.2890625 2.87890625 C19.6290625 2.87890625 18.9690625 2.87890625 18.2890625 2.87890625 C18.2890625 3.53890625 18.2890625 4.19890625 18.2890625 4.87890625 C17.14566406 4.93949219 16.00226563 5.00007812 14.82421875 5.0625 C13.33331945 5.14689053 11.84243475 5.23153927 10.3515625 5.31640625 C9.21944336 5.37538086 9.21944336 5.37538086 8.06445312 5.43554688 C4.36962063 5.31928649 4.36962063 5.31928649 1.2890625 6.87890625 C-1.63626203 7.62208333 -4.61507058 8.10248145 -7.5859375 8.62890625 C-8.41480469 8.79261719 -9.24367188 8.95632812 -10.09765625 9.125 C-11.29455078 9.33576172 -11.29455078 9.33576172 -12.515625 9.55078125 C-13.24765137 9.68581055 -13.97967773 9.82083984 -14.73388672 9.95996094 C-16.7109375 9.87890625 -16.7109375 9.87890625 -18.47314453 8.39941406 C-18.88161621 7.89764648 -19.29008789 7.39587891 -19.7109375 6.87890625 C-18.7109375 3.87890625 -18.7109375 3.87890625 -16.0234375 2.25390625 C-10.64243778 0.02028373 -5.7790943 -0.23858646 0 0 Z " fill="#666667" transform="translate(309.7109375,159.12109375)"/>
<path d="M0 0 C14.71252569 -0.46479425 28.87857627 -0.64498212 43 4 C43.66 4.66 44.32 5.32 45 6 C39.25 6.125 39.25 6.125 37 5 C37.99 6.32 38.98 7.64 40 9 C34.45831229 10.25947448 30.10327957 9.59164806 24.5546875 8.546875 C17.75350093 7.5005386 10.86801986 7.30922364 4 7 C4 6.67 4 6.34 4 6 C9.28 6 14.56 6 20 6 C20 5.34 20 4.68 20 4 C20.66 3.67 21.32 3.34 22 3 C14.74 2.67 7.48 2.34 0 2 C0 1.34 0 0.68 0 0 Z " fill="#717071" transform="translate(308,158)"/>
<path d="M0 0 C1.0725 -0.01675781 2.145 -0.03351563 3.25 -0.05078125 C4.1575 0.06910156 5.065 0.18898437 6 0.3125 C8 3.3125 8 3.3125 7.75 5.875 C7 8.3125 7 8.3125 5 10.3125 C2.46875 10.578125 2.46875 10.578125 -0.5 10.5625 C-1.4796875 10.56765625 -2.459375 10.5728125 -3.46875 10.578125 C-6 10.3125 -6 10.3125 -8 8.3125 C-8.25 5.3125 -8.25 5.3125 -8 2.3125 C-5.29921247 -0.38828753 -3.75964828 0.01355642 0 0 Z " fill="#686768" transform="translate(377,249.6875)"/>
<path d="M0 0 C1.19754817 3.59264452 1.33094958 6.22717474 1 10 C-0.6875 12.5 -0.6875 12.5 -3 14 C-6.39154295 13.83849795 -7.58296757 13.41703243 -10 11 C-10.30078125 8.6875 -10.30078125 8.6875 -10.3125 6 C-10.32925781 5.113125 -10.34601563 4.22625 -10.36328125 3.3125 C-10.24339844 2.549375 -10.12351562 1.78625 -10 1 C-6.1496895 -1.56687367 -4.41430237 -0.83288724 0 0 Z " fill="#676567" transform="translate(325,192)"/>
<path d="M0 0 C0.9796875 0.01417969 1.959375 0.02835938 2.96875 0.04296875 C3.9484375 0.04941406 4.928125 0.05585938 5.9375 0.0625 C8.46875 0.23046875 8.46875 0.23046875 10.46875 1.23046875 C10.59375 4.60546875 10.59375 4.60546875 10.46875 8.23046875 C7.95862037 10.74059838 7.00069763 10.52768484 3.53125 10.54296875 C2.21833984 10.56810547 2.21833984 10.56810547 0.87890625 10.59375 C-1.53125 10.23046875 -1.53125 10.23046875 -3.328125 8.87109375 C-5.01685934 6.56827419 -4.88833213 5.01570937 -4.53125 2.23046875 C-2.53125 0.23046875 -2.53125 0.23046875 0 0 Z " fill="#595959" transform="translate(260.53125,249.76953125)"/>
<path d="M0 0 C3 0.1875 3 0.1875 5 1.1875 C6.17611086 6.18597118 5.96237913 9.45470327 4 14.1875 C0.625 14.3125 0.625 14.3125 -3 14.1875 C-5 12.1875 -5 12.1875 -5.265625 9.875 C-5.26046875 8.988125 -5.2553125 8.10125 -5.25 7.1875 C-5.25515625 6.300625 -5.2603125 5.41375 -5.265625 4.5 C-4.83723033 0.77044638 -3.64270373 0.22766898 0 0 Z " fill="#646264" transform="translate(320,303.8125)"/>
<path d="M0 0 C2 3 2 3 1.8125 5.125 C1.544375 5.74375 1.27625 6.3625 1 7 C0.01 7.33 -0.98 7.66 -2 8 C-2 8.66 -2 9.32 -2 10 C-2.66 10 -3.32 10 -4 10 C-4 10.66 -4 11.32 -4 12 C-4.66 12 -5.32 12 -6 12 C-6 12.66 -6 13.32 -6 14 C-6.66 14 -7.32 14 -8 14 C-8 14.66 -8 15.32 -8 16 C-9.66611905 16.042721 -11.33382885 16.04063832 -13 16 C-14 15 -14 15 -14.30078125 12.69921875 C-13.91015678 9.19374461 -12.73860966 8.18893908 -10.1875 5.8125 C-9.12595703 4.80123047 -9.12595703 4.80123047 -8.04296875 3.76953125 C-3.69094923 0 -3.69094923 0 0 0 Z " fill="#5A5A5A" transform="translate(265,177)"/>
<path d="M0 0 C1.6097168 0.07734375 1.6097168 0.07734375 3.25195312 0.15625 C4.37150391 0.22070312 5.49105469 0.28515625 6.64453125 0.3515625 C7.77568359 0.40828125 8.90683594 0.465 10.07226562 0.5234375 C12.86782172 0.66498464 15.66248966 0.81640415 18.45703125 0.9765625 C18.12703125 1.6365625 17.79703125 2.2965625 17.45703125 2.9765625 C16.79703125 2.9765625 16.13703125 2.9765625 15.45703125 2.9765625 C15.45703125 3.6365625 15.45703125 4.2965625 15.45703125 4.9765625 C5.06203125 5.4715625 5.06203125 5.4715625 -5.54296875 5.9765625 C-4.88296875 5.3165625 -4.22296875 4.6565625 -3.54296875 3.9765625 C-6.01796875 2.9865625 -6.01796875 2.9865625 -8.54296875 1.9765625 C-5.08517452 -0.32863365 -4.03567847 -0.21352796 0 0 Z " fill="#4F4D4E" transform="translate(312.54296875,159.0234375)"/>
<path d="M0 0 C0.99 0 1.98 0 3 0 C3.86625 1.423125 3.86625 1.423125 4.75 2.875 C7.51166892 6.71065128 9.45804187 7.12654651 14 8 C12.60399265 10.7920147 10.99583616 11.00162933 8.125 12.125 C6.79855469 12.65480469 6.79855469 12.65480469 5.4453125 13.1953125 C3 14 3 14 0 14 C0 9.8296392 0.09483043 6.07326306 1 2 C0.34 1.67 -0.32 1.34 -1 1 C-0.67 0.67 -0.34 0.34 0 0 Z " fill="#666666" transform="translate(123,250)"/>
<path d="M0 0 C0.99 0 1.98 0 3 0 C4.421875 1.609375 4.421875 1.609375 5.75 3.75 C6.19859375 4.44609375 6.6471875 5.1421875 7.109375 5.859375 C8.16007332 8.38473764 7.93134261 9.47856025 7 12 C7 11.01 7 10.02 7 9 C5.88625 9.020625 4.7725 9.04125 3.625 9.0625 C0 9 0 9 -2 8 C-2.33 8.66 -2.66 9.32 -3 10 C-3 9.34 -3 8.68 -3 8 C-3.66 7.67 -4.32 7.34 -5 7 C-4.24172908 5.82512964 -3.46792245 4.66027408 -2.6875 3.5 C-2.25824219 2.8503125 -1.82898438 2.200625 -1.38671875 1.53125 C-0.70029297 0.77328125 -0.70029297 0.77328125 0 0 Z " fill="#686868" transform="translate(242,300)"/>
<path d="M0 0 C3.0625 0.125 3.0625 0.125 5.0625 1.125 C4.7325 2.775 4.4025 4.425 4.0625 6.125 C1.7525 6.785 -0.5575 7.445 -2.9375 8.125 C-3.31813221 5.7989143 -3.65019945 3.46444736 -3.9375 1.125 C-2.9375 0.125 -2.9375 0.125 0 0 Z " fill="#514F51" transform="translate(319.9375,303.875)"/>
<path d="M0 0 C0.66 0.33 1.32 0.66 2 1 C0.68775452 4.93673644 -0.91910327 7.22719294 -4 10 C-3.34 11.32 -2.68 12.64 -2 14 C-3.66611905 14.042721 -5.33382885 14.04063832 -7 14 C-8 13 -8 13 -8.3125 10.70703125 C-7.90065777 7.13944794 -6.60752551 6.09131258 -4 3.6875 C-3.2575 2.99011719 -2.515 2.29273438 -1.75 1.57421875 C-1.1725 1.05472656 -0.595 0.53523437 0 0 Z " fill="#6E6E6E" transform="translate(259,179)"/>
<path d="M0 0 C0.66 1.32 1.32 2.64 2 4 C-0.28501857 6.28501857 -2.48473636 8.3938483 -5 10.4375 C-8.09217272 12.84315993 -8.09217272 12.84315993 -10 16 C-10.66 14.68 -11.32 13.36 -12 12 C-11.50628906 11.59007812 -11.01257813 11.18015625 -10.50390625 10.7578125 C-9.86324219 10.21898437 -9.22257812 9.68015625 -8.5625 9.125 C-7.92441406 8.59132813 -7.28632813 8.05765625 -6.62890625 7.5078125 C-4.89194996 6.0777243 -4.89194996 6.0777243 -4 4 C-3.34 4 -2.68 4 -2 4 C-1.34 2.68 -0.68 1.36 0 0 Z " fill="#6C6C6C" transform="translate(373,295)"/>
<path d="M0 0 C0 0.66 0 1.32 0 2 C-0.33 2.33 -0.66 2.66 -1 3 C-0.34 3.33 0.32 3.66 1 4 C0.34 5.32 -0.32 6.64 -1 8 C1.97 8 4.94 8 8 8 C8 8.33 8 8.66 8 9 C6.39667209 9.08121924 4.79215974 9.13929134 3.1875 9.1875 C2.29417969 9.22230469 1.40085937 9.25710938 0.48046875 9.29296875 C-2 9 -2 9 -3.8125 7.65625 C-5.43567041 5.39235443 -5.2202914 3.71692729 -5 1 C-2 0 -2 0 0 0 Z " fill="#7D7D7E" transform="translate(261,251)"/>
<path d="M0 0 C3.96 0.33 7.92 0.66 12 1 C12 1.66 12 2.32 12 3 C8.35206816 4.27253436 4.8063457 5.32829194 1 6 C0.67 4.02 0.34 2.04 0 0 Z " fill="#5C5B5D" transform="translate(345,163)"/>
<path d="M0 0 C3.19902639 -0.08886184 5.92677456 0.08941469 9 1 C8.67 1.66 8.34 2.32 8 3 C8.99 4.485 8.99 4.485 10 6 C9.01 6.33 8.02 6.66 7 7 C5.17578125 5.8203125 5.17578125 5.8203125 3.3125 4.125 C2.68988281 3.57070313 2.06726563 3.01640625 1.42578125 2.4453125 C0 1 0 1 0 0 Z " fill="#6C6C6C" transform="translate(110,314)"/>
<path d="M0 0 C0.33 0 0.66 0 1 0 C1.02710123 2.5625718 1.04688771 5.12485365 1.0625 7.6875 C1.07087891 8.40873047 1.07925781 9.12996094 1.08789062 9.87304688 C1.10543632 13.71555382 0.93524221 17.26639526 0 21 C-0.66 21 -1.32 21 -2 21 C-2 18.03 -2 15.06 -2 12 C-1.67 12 -1.34 12 -1 12 C-0.67 8.04 -0.34 4.08 0 0 Z " fill="#A7A6A7" transform="translate(399,247)"/>
<path d="M0 0 C1.3921875 0.3403125 1.3921875 0.3403125 2.8125 0.6875 C1.8225 1.1825 1.8225 1.1825 0.8125 1.6875 C0.8125 2.3475 0.8125 3.0075 0.8125 3.6875 C0.1525 3.6875 -0.5075 3.6875 -1.1875 3.6875 C-1.1875 4.3475 -1.1875 5.0075 -1.1875 5.6875 C-2.1775 6.0175 -3.1675 6.3475 -4.1875 6.6875 C-4.8475 5.3675 -5.5075 4.0475 -6.1875 2.6875 C-4.14987265 -0.14253799 -3.59070275 -0.35202968 0 0 Z " fill="#646464" transform="translate(260.1875,185.3125)"/>
<path d="M0 0 C1.32 0.99 2.64 1.98 4 3 C3.34 3 2.68 3 2 3 C2.33 4.65 2.66 6.3 3 8 C1.35 8.33 -0.3 8.66 -2 9 C-2.66 8.01 -3.32 7.02 -4 6 C-2.68 5.67 -1.36 5.34 0 5 C0 3.35 0 1.7 0 0 Z " fill="#6A6869" transform="translate(379,177)"/>
<path d="M0 0 C-0.91265625 0.44666016 -0.91265625 0.44666016 -1.84375 0.90234375 C-4.09591808 2.00917991 -4.09591808 2.00917991 -6.5 3.5625 C-8.7421556 4.85173947 -10.48078813 5.53347928 -13 6 C-12.01 4.68 -11.02 3.36 -10 2 C-11.98 2 -13.96 2 -16 2 C-16 1.67 -16 1.34 -16 1 C-10.61509359 0.08342019 -5.45769811 -0.11138159 0 0 Z " fill="#6E6E6E" transform="translate(318,176)"/>
<path d="M0 0 C0.66 0.33 1.32 0.66 2 1 C2.36923077 5.55384615 2.36923077 5.55384615 0.5 7.8125 C0.005 8.204375 -0.49 8.59625 -1 9 C-1.33 8.01 -1.66 7.02 -2 6 C-3.65 6.33 -5.3 6.66 -7 7 C-6.67 6.01 -6.34 5.02 -6 4 C-4.34795544 3.29788106 -2.68076231 2.63028587 -1 2 C-0.67 1.34 -0.34 0.68 0 0 Z " fill="#515151" transform="translate(361,308)"/>
<path d="M0 0 C3.3 0.33 6.6 0.66 10 1 C9.01 1.66 8.02 2.32 7 3 C6.67 3.99 6.34 4.98 6 6 C4.68 6 3.36 6 2 6 C2.33 4.35 2.66 2.7 3 1 C2.01 0.67 1.02 0.34 0 0 Z " fill="#787678" transform="translate(334,159)"/>
<path d="M0 0 C1.93833996 0.08715017 3.8757429 0.19532964 5.8125 0.3125 C7.43091797 0.39951172 7.43091797 0.39951172 9.08203125 0.48828125 C12.17497517 1.03068507 13.13022903 1.55289624 15 4 C9.72684667 3.5547115 4.98229776 2.91626837 0 1 C0 0.67 0 0.34 0 0 Z " fill="#797979" transform="translate(294,329)"/>
<path d="M0 0 C3.3 0.99 6.6 1.98 10 3 C10 3.66 10 4.32 10 5 C5.6822542 4.49202991 1.96697886 3.80317221 -2 2 C-1.34 1.34 -0.68 0.68 0 0 Z " fill="#717171" transform="translate(123,322)"/>
<path d="M0 0 C1.125 4.75 1.125 4.75 0 7 C-2.475 6.01 -2.475 6.01 -5 5 C-4.625 3.0625 -4.625 3.0625 -4 1 C-2 0 -2 0 0 0 Z " fill="#515153" transform="translate(295,162)"/>
<path d="M0 0 C0.99 0 1.98 0 3 0 C3.66 1.98 4.32 3.96 5 6 C4.01 5.67 3.02 5.34 2 5 C1.01 5.33 0.02 5.66 -1 6 C-0.67 4.02 -0.34 2.04 0 0 Z " fill="#4F4D4E" transform="translate(317,192)"/>
<path d="M0 0 C2.31 0.33 4.62 0.66 7 1 C6.67 2.32 6.34 3.64 6 5 C5.01 5 4.02 5 3 5 C2.87625 4.360625 2.7525 3.72125 2.625 3.0625 C2.315625 2.0415625 2.315625 2.0415625 2 1 C1.34 0.67 0.68 0.34 0 0 Z " fill="#6D6B6C" transform="translate(318,191)"/>
<path d="M0 0 C2.64 0 5.28 0 8 0 C8 0.66 8 1.32 8 2 C4.37 2.33 0.74 2.66 -3 3 C-2.01 2.67 -1.02 2.34 0 2 C0 1.34 0 0.68 0 0 Z " fill="#6C6C6C" transform="translate(332,330)"/>
<path d="M0 0 C1.76923828 0.01353516 1.76923828 0.01353516 3.57421875 0.02734375 C4.47785156 0.03894531 5.38148438 0.05054688 6.3125 0.0625 C6.3125 0.3925 6.3125 0.7225 6.3125 1.0625 C5.31669922 1.15337891 5.31669922 1.15337891 4.30078125 1.24609375 C-2.23658081 1.86113507 -2.23658081 1.86113507 -8.6875 3.0625 C-9.0175 2.4025 -9.3475 1.7425 -9.6875 1.0625 C-6.26517028 -0.07827657 -3.60076783 -0.03565117 0 0 Z " fill="#919191" transform="translate(309.6875,187.9375)"/>
<path d="M0 0 C0.66 0 1.32 0 2 0 C2 0.66 2 1.32 2 2 C2.99 2.33 3.98 2.66 5 3 C5.33 3.66 5.66 4.32 6 5 C4.02 5 2.04 5 0 5 C-0.33 4.01 -0.66 3.02 -1 2 C-0.67 1.34 -0.34 0.68 0 0 Z " fill="#535253" transform="translate(377,187)"/>
<path d="M0 0 C0.33 0 0.66 0 1 0 C1.99 3.96 2.98 7.92 4 12 C0 8 0 8 -0.390625 5.859375 C-0.26041667 3.90625 -0.13020833 1.953125 0 0 Z " fill="#8B8B8B" transform="translate(255,270)"/>
<path d="M0 0 C0.598125 0.309375 1.19625 0.61875 1.8125 0.9375 C4.08956772 2.10209704 4.08956772 2.10209704 7 3 C6.01 4.485 6.01 4.485 5 6 C2.525 5.01 2.525 5.01 0 4 C0 2.68 0 1.36 0 0 Z " fill="#515051" transform="translate(251,217)"/>
<path d="M0 0 C3.79588866 0.54226981 5.47211993 2.20127563 8 5 C5.6875 5.6875 5.6875 5.6875 3 6 C1.1875 4.75 1.1875 4.75 0 3 C0 2.01 0 1.02 0 0 Z " fill="#5D5C5C" transform="translate(303,159)"/>
<path d="M0 0 C2.29633824 3.44450737 2.54016485 5.93812283 3 10 C2.01 10 1.02 10 0 10 C0 6.7 0 3.4 0 0 Z " fill="#706F71" transform="translate(315,306)"/>
<path d="M0 0 C1.98 0 3.96 0 6 0 C5.34 1.65 4.68 3.3 4 5 C3.01 4.67 2.02 4.34 1 4 C0.3125 1.9375 0.3125 1.9375 0 0 Z " fill="#4D4D4D" transform="translate(302,178)"/>
<path d="M0 0 C0.66 1.32 1.32 2.64 2 4 C-0.31 5.32 -2.62 6.64 -5 8 C-5 7.34 -5 6.68 -5 6 C-4.34 6 -3.68 6 -3 6 C-2.690625 5.195625 -2.38125 4.39125 -2.0625 3.5625 C-1 1 -1 1 0 0 Z " fill="#797979" transform="translate(111,259)"/>
<path d="M0 0 C5.75 -0.125 5.75 -0.125 8 1 C7.67 1.66 7.34 2.32 7 3 C6.34 2.67 5.68 2.34 5 2 C4.67 2.66 4.34 3.32 4 4 C4 3.34 4 2.68 4 2 C2.35 2 0.7 2 -1 2 C-0.67 1.34 -0.34 0.68 0 0 Z " fill="#7D7C7D" transform="translate(317,304)"/>
<path d="" fill="#FFFFFF" transform="translate(0,0)"/>
<path d="" fill="#FFFFFF" transform="translate(0,0)"/>
<path d="" fill="#FFFFFF" transform="translate(0,0)"/>
<path d="" fill="#FFFFFF" transform="translate(0,0)"/>
<path d="" fill="#FFFFFF" transform="translate(0,0)"/>
<path d="" fill="#FFFFFF" transform="translate(0,0)"/>
<path d="" fill="#FFFFFF" transform="translate(0,0)"/>
<path d="" fill="#FFFFFF" transform="translate(0,0)"/>
<path d="" fill="#FFFFFF" transform="translate(0,0)"/>
<path d="" fill="#FFFFFF" transform="translate(0,0)"/>
<path d="" fill="#FFFFFF" transform="translate(0,0)"/>
<path d="" fill="#FFFFFF" transform="translate(0,0)"/>
<path d="" fill="#FFFFFF" transform="translate(0,0)"/>
<path d="" fill="#FFFFFF" transform="translate(0,0)"/>
<path d="" fill="#FFFFFF" transform="translate(0,0)"/>
<path d="" fill="#FFFFFF" transform="translate(0,0)"/>
<path d="" fill="#FFFFFF" transform="translate(0,0)"/>
<path d="" fill="#FFFFFF" transform="translate(0,0)"/>
<path d="" fill="#FFFFFF" transform="translate(0,0)"/>
<path d="" fill="#FFFFFF" transform="translate(0,0)"/>
<path d="" fill="#FFFFFF" transform="translate(0,0)"/>
<path d="" fill="#FFFFFF" transform="translate(0,0)"/>
<path d="" fill="#FFFFFF" transform="translate(0,0)"/>
<path d="" fill="#FFFFFF" transform="translate(0,0)"/>
<path d="" fill="#FFFFFF" transform="translate(0,0)"/>
<path d="" fill="#FFFFFF" transform="translate(0,0)"/>
<path d="" fill="#FFFFFF" transform="translate(0,0)"/>
<path d="" fill="#FFFFFF" transform="translate(0,0)"/>
<path d="" fill="#FFFFFF" transform="translate(0,0)"/>
<path d="" fill="#FFFFFF" transform="translate(0,0)"/>
<path d="" fill="#FFFFFF" transform="translate(0,0)"/>
<path d="" fill="#FFFFFF" transform="translate(0,0)"/>
<path d="" fill="#FFFFFF" transform="translate(0,0)"/>
<path d="" fill="#FFFFFF" transform="translate(0,0)"/>
<path d="" fill="#FFFFFF" transform="translate(0,0)"/>
<path d="" fill="#FFFFFF" transform="translate(0,0)"/>
<path d="" fill="#FFFFFF" transform="translate(0,0)"/>
<path d="" fill="#FFFFFF" transform="translate(0,0)"/>
<path d="" fill="#FFFFFF" transform="translate(0,0)"/>
<path d="" fill="#FFFFFF" transform="translate(0,0)"/>
<path d="" fill="#FFFFFF" transform="translate(0,0)"/>
<path d="" fill="#FFFFFF" transform="translate(0,0)"/>
<path d="" fill="#FFFFFF" transform="translate(0,0)"/>
<path d="" fill="#FFFFFF" transform="translate(0,0)"/>
<path d="" fill="#FFFFFF" transform="translate(0,0)"/>
<path d="" fill="#FFFFFF" transform="translate(0,0)"/>
<path d="" fill="#FFFFFF" transform="translate(0,0)"/>
<path d="" fill="#FFFFFF" transform="translate(0,0)"/>
<path d="" fill="#FFFFFF" transform="translate(0,0)"/>
<path d="" fill="#FFFFFF" transform="translate(0,0)"/>
<path d="" fill="#FFFFFF" transform="translate(0,0)"/>
<path d="" fill="#FFFFFF" transform="translate(0,0)"/>
<path d="" fill="#FFFFFF" transform="translate(0,0)"/>
<path d="" fill="#FFFFFF" transform="translate(0,0)"/>
<path d="" fill="#FFFFFF" transform="translate(0,0)"/>
<path d="" fill="#FFFFFF" transform="translate(0,0)"/>
<path d="" fill="#FFFFFF" transform="translate(0,0)"/>
<path d="" fill="#FFFFFF" transform="translate(0,0)"/>
<path d="" fill="#FFFFFF" transform="translate(0,0)"/>
<path d="" fill="#FFFFFF" transform="translate(0,0)"/>
<path d="" fill="#FFFFFF" transform="translate(0,0)"/>
<path d="" fill="#FFFFFF" transform="translate(0,0)"/>
<path d="" fill="#FFFFFF" transform="translate(0,0)"/>
<path d="" fill="#FFFFFF" transform="translate(0,0)"/>
<path d="" fill="#FFFFFF" transform="translate(0,0)"/>
<path d="" fill="#FFFFFF" transform="translate(0,0)"/>
<path d="" fill="#FFFFFF" transform="translate(0,0)"/>
<path d="" fill="#FFFFFF" transform="translate(0,0)"/>
<path d="" fill="#FFFFFF" transform="translate(0,0)"/>
<path d="" fill="#FFFFFF" transform="translate(0,0)"/>
<path d="" fill="#FFFFFF" transform="translate(0,0)"/>
<path d="" fill="#FFFFFF" transform="translate(0,0)"/>
<path d="" fill="#FFFFFF" transform="translate(0,0)"/>
<path d="" fill="#FFFFFF" transform="translate(0,0)"/>
<path d="" fill="#FFFFFF" transform="translate(0,0)"/>
<path d="" fill="#FFFFFF" transform="translate(0,0)"/>
<path d="" fill="#FFFFFF" transform="translate(0,0)"/>
<path d="" fill="#FFFFFF" transform="translate(0,0)"/>
</svg>
