<?xml version="1.0" standalone="no"?>
<!DOCTYPE svg PUBLIC "-//W3C//DTD SVG 20010904//EN"
 "http://www.w3.org/TR/2001/REC-SVG-20010904/DTD/svg10.dtd">
<svg version="1.0" xmlns="http://www.w3.org/2000/svg"
 width="500.000000pt" height="500.000000pt" viewBox="0 0 500.000000 500.000000"
 preserveAspectRatio="xMidYMid meet">

<g transform="translate(0.000000,500.000000) scale(0.100000,-0.100000)"
fill="#000000" stroke="none">
<path d="M3095 3401 c-189 -21 -384 -108 -517 -230 -44 -41 -60 -62 -55 -74
10 -26 21 -21 79 31 245 222 583 290 902 182 46 -15 94 -33 107 -40 52 -26
169 -106 169 -114 0 -5 -7 -17 -16 -27 -9 -10 -14 -24 -11 -31 5 -15 141 -43
158 -33 12 8 4 99 -12 142 -11 28 -42 30 -60 3 -14 -20 -15 -20 -64 16 -185
133 -445 200 -680 175z"/>
<path d="M3075 3223 c-154 -34 -251 -78 -355 -159 -92 -72 -161 -158 -215
-269 -74 -150 -98 -290 -76 -443 52 -356 309 -615 663 -668 162 -24 307 0 466
78 88 43 116 63 190 137 48 47 102 112 121 143 95 163 132 341 106 514 -51
334 -299 598 -621 660 -70 13 -233 17 -279 7z m338 -127 c243 -92 395 -259
453 -496 17 -71 17 -229 0 -300 -50 -205 -181 -367 -367 -455 -106 -50 -178
-66 -295 -66 -203 0 -373 74 -510 224 -247 270 -226 684 48 942 81 76 195 141
288 163 25 6 54 14 65 16 11 3 72 3 135 2 95 -3 127 -8 183 -30z"/>
<path d="M3172 3068 c-17 -17 -15 -83 2 -98 24 -19 58 -8 68 22 18 53 -35 111
-70 76z"/>
<path d="M3178 2859 c-16 -9 -18 -31 -18 -224 0 -202 1 -215 19 -225 11 -6 87
-10 175 -10 143 0 158 2 176 20 11 11 20 25 20 30 0 6 -9 19 -20 30 -18 18
-33 20 -150 20 l-130 0 0 168 c0 92 -4 172 -8 178 -11 17 -45 24 -64 13z"/>
<path d="M2579 2468 c-10 -18 -8 -24 11 -40 38 -31 110 -17 110 20 0 29 -21
42 -67 42 -33 0 -45 -5 -54 -22z"/>
<path d="M3711 2471 c-14 -25 -14 -27 5 -45 19 -20 88 -21 104 -2 6 8 10 25 8
38 -3 20 -9 23 -55 26 -43 3 -54 0 -62 -17z"/>
<path d="M3172 1938 c-16 -16 -16 -80 0 -96 17 -17 55 -15 62 4 12 32 6 92
-10 98 -24 9 -39 7 -52 -6z"/>
<path d="M1317 2509 c-194 -47 -333 -255 -298 -446 21 -116 84 -211 179 -271
94 -60 112 -62 594 -62 417 0 442 1 500 21 73 24 138 67 173 113 l25 33 -27
48 c-24 43 -28 47 -37 30 -27 -46 -82 -97 -133 -122 -52 -25 -66 -27 -218 -31
-90 -3 -179 -2 -199 2 l-36 7 0 294 0 295 200 0 c161 0 207 -3 230 -15 l30
-16 0 55 c0 41 -4 56 -17 62 -24 12 -919 15 -966 3z m431 -386 l-3 -298 -200
0 c-228 1 -255 8 -338 85 -67 61 -90 117 -90 215 -1 98 27 161 98 223 73 64
101 70 333 71 l202 1 -2 -297z"/>
</g>
</svg>
