<?xml version="1.0" encoding="UTF-8"?>
<!DOCTYPE svg PUBLIC "-//W3C//DTD SVG 1.1//EN" "http://www.w3.org/Graphics/SVG/1.1/DTD/svg11.dtd">
<svg xmlns="http://www.w3.org/2000/svg" version="1.1" width="500px" height="500px" style="shape-rendering:geometricPrecision; text-rendering:geometricPrecision; image-rendering:optimizeQuality; fill-rule:evenodd; clip-rule:evenodd" xmlns:xlink="http://www.w3.org/1999/xlink">
<g><path style="opacity:0.004" fill="#fefffe" d="M 314.5,4.5 C 315.833,5.16667 315.833,5.16667 314.5,4.5 Z"/></g>
<g><path style="opacity:0.004" fill="#fefffe" d="M 419.5,5.5 C 420.833,6.16667 420.833,6.16667 419.5,5.5 Z"/></g>
<g><path style="opacity:0.004" fill="#fefffe" d="M 234.5,17.5 C 235.833,18.1667 235.833,18.1667 234.5,17.5 Z"/></g>
<g><path style="opacity:0.004" fill="#fefffe" d="M 318.5,25.5 C 319.833,26.1667 319.833,26.1667 318.5,25.5 Z"/></g>
<g><path style="opacity:0.004" fill="#fefffe" d="M 54.5,35.5 C 55.8333,36.1667 55.8333,36.1667 54.5,35.5 Z"/></g>
<g><path style="opacity:0.004" fill="#fefffe" d="M 469.5,35.5 C 470.833,36.1667 470.833,36.1667 469.5,35.5 Z"/></g>
<g><path style="opacity:0.004" fill="#fefffe" d="M 480.5,41.5 C 481.833,42.1667 481.833,42.1667 480.5,41.5 Z"/></g>
<g><path style="opacity:0.004" fill="#fefffe" d="M 137.5,52.5 C 138.833,53.1667 138.833,53.1667 137.5,52.5 Z"/></g>
<g><path style="opacity:0.004" fill="#fefffe" d="M 282.5,54.5 C 283.833,55.1667 283.833,55.1667 282.5,54.5 Z"/></g>
<g><path style="opacity:0.004" fill="#fefffe" d="M 301.5,60.5 C 302.833,61.1667 302.833,61.1667 301.5,60.5 Z"/></g>
<g><path style="opacity:0.004" fill="#fefffe" d="M 187.5,69.5 C 188.833,70.1667 188.833,70.1667 187.5,69.5 Z"/></g>
<g><path style="opacity:0.004" fill="#fefffe" d="M 352.5,71.5 C 353.833,72.1667 353.833,72.1667 352.5,71.5 Z"/></g>
<g><path style="opacity:0.004" fill="#fefffe" d="M 56.5,82.5 C 57.8333,83.1667 57.8333,83.1667 56.5,82.5 Z"/></g>
<g><path style="opacity:0.004" fill="#fefffe" d="M 85.5,92.5 C 86.8333,93.1667 86.8333,93.1667 85.5,92.5 Z"/></g>
<g><path style="opacity:0.004" fill="#fefffe" d="M 402.5,96.5 C 403.833,97.1667 403.833,97.1667 402.5,96.5 Z"/></g>
<g><path style="opacity:0.004" fill="#fefffe" d="M 252.5,103.5 C 253.833,104.167 253.833,104.167 252.5,103.5 Z"/></g>
<g><path style="opacity:0.004" fill="#fefffe" d="M 63.5,105.5 C 64.8333,106.167 64.8333,106.167 63.5,105.5 Z"/></g>
<g><path style="opacity:0.004" fill="#fefffe" d="M 329.5,112.5 C 330.833,113.167 330.833,113.167 329.5,112.5 Z"/></g>
<g><path style="opacity:0.004" fill="#fefffe" d="M 357.5,120.5 C 358.833,121.167 358.833,121.167 357.5,120.5 Z"/></g>
<g><path style="opacity:0.004" fill="#fefffe" d="M 52.5,132.5 C 53.8333,133.167 53.8333,133.167 52.5,132.5 Z"/></g>
<g><path style="opacity:0.004" fill="#fefffe" d="M 414.5,136.5 C 415.833,137.167 415.833,137.167 414.5,136.5 Z"/></g>
<g><path style="opacity:0.004" fill="#fefffe" d="M 284.5,141.5 C 285.833,142.167 285.833,142.167 284.5,141.5 Z"/></g>
<g><path style="opacity:0.004" fill="#fefffe" d="M 330.5,141.5 C 331.833,142.167 331.833,142.167 330.5,141.5 Z"/></g>
<g><path style="opacity:0.004" fill="#fefffe" d="M 45.5,143.5 C 46.8333,144.167 46.8333,144.167 45.5,143.5 Z"/></g>
<g><path style="opacity:0.004" fill="#fefffe" d="M 380.5,150.5 C 381.833,151.167 381.833,151.167 380.5,150.5 Z"/></g>
<g><path style="opacity:0.004" fill="#fefffe" d="M 60.5,158.5 C 61.8333,159.167 61.8333,159.167 60.5,158.5 Z"/></g>
<g><path style="opacity:0.004" fill="#fefffe" d="M 371.5,159.5 C 372.833,160.167 372.833,160.167 371.5,159.5 Z"/></g>
<g><path style="opacity:0.004" fill="#fefffe" d="M 73.5,162.5 C 74.8333,163.167 74.8333,163.167 73.5,162.5 Z"/></g>
<g><path style="opacity:0.004" fill="#fefffe" d="M 105.5,162.5 C 106.833,163.167 106.833,163.167 105.5,162.5 Z"/></g>
<g><path style="opacity:0.004" fill="#fefffe" d="M 453.5,163.5 C 454.833,164.167 454.833,164.167 453.5,163.5 Z"/></g>
<g><path style="opacity:0.004" fill="#fefffe" d="M 79.5,165.5 C 80.8333,166.167 80.8333,166.167 79.5,165.5 Z"/></g>
<g><path style="opacity:0.004" fill="#fefffe" d="M 260.5,166.5 C 261.833,167.167 261.833,167.167 260.5,166.5 Z"/></g>
<g><path style="opacity:0.004" fill="#fefffe" d="M 464.5,168.5 C 465.833,169.167 465.833,169.167 464.5,168.5 Z"/></g>
<g><path style="opacity:0.941" fill="#5f5f5f" d="M 307.5,157.5 C 334.985,155.199 359.651,162.199 381.5,178.5C 384.871,173.401 388.037,173.401 391,178.5C 391.702,183.233 392.369,187.899 393,192.5C 391.701,193.98 390.034,194.646 388,194.5C 383.392,193.945 378.892,192.945 374.5,191.5C 373.04,188.712 373.707,186.545 376.5,185C 350.006,164.348 320.672,159.348 288.5,170C 276.375,174.951 265.709,182.118 256.5,191.5C 251.383,193.552 249.55,191.885 251,186.5C 266.729,170.553 285.563,160.886 307.5,157.5 Z"/></g>
<g><path style="opacity:0.004" fill="#fefffe" d="M 305.5,173.5 C 306.833,174.167 306.833,174.167 305.5,173.5 Z"/></g>
<g><path style="opacity:0.004" fill="#fefffe" d="M 76.5,176.5 C 77.8333,177.167 77.8333,177.167 76.5,176.5 Z"/></g>
<g><path style="opacity:0.004" fill="#fefffe" d="M 287.5,176.5 C 288.833,177.167 288.833,177.167 287.5,176.5 Z"/></g>
<g><path style="opacity:0.997" fill="#5a5a5a" d="M 334.5,176.5 C 335.842,177.793 337.509,178.626 339.5,179C 338.584,179.374 337.75,179.874 337,180.5C 334.816,178.129 332.65,178.296 330.5,181C 331.715,183.096 332.549,182.929 333,180.5C 333.333,182.167 333.667,183.833 334,185.5C 334.308,184.692 334.808,184.025 335.5,183.5C 337.101,184.035 337.601,185.035 337,186.5C 333.201,187.291 329.035,187.624 324.5,187.5C 297.963,187.1 277.297,197.766 262.5,219.5C 262.379,215.873 260.545,213.54 257,212.5C 255.662,215.082 253.829,215.749 251.5,214.5C 264.087,192.451 283.087,179.617 308.5,176C 317.194,175.289 325.861,175.456 334.5,176.5 Z"/></g>
<g><path style="opacity:0.004" fill="#fefffe" d="M 436.5,181.5 C 437.833,182.167 437.833,182.167 436.5,181.5 Z"/></g>
<g><path style="opacity:0.004" fill="#fefffe" d="M 8.5,182.5 C 9.83333,183.167 9.83333,183.167 8.5,182.5 Z"/></g>
<g><path style="opacity:0.993" fill="#5b5b5b" d="M 334.5,176.5 C 371.354,185.527 392.854,208.86 399,246.5C 401.248,279.651 388.415,304.984 360.5,322.5C 360.532,318.966 360.198,315.799 359.5,313C 358.833,312.833 358.167,312.667 357.5,312.5C 355.964,313.249 354.631,314.249 353.5,315.5C 352.482,314.807 351.482,314.141 350.5,313.5C 378.093,296.974 389.593,272.64 385,240.5C 376.393,209.472 356.226,191.805 324.5,187.5C 329.035,187.624 333.201,187.291 337,186.5C 337.601,185.035 337.101,184.035 335.5,183.5C 334.808,184.025 334.308,184.692 334,185.5C 333.667,183.833 333.333,182.167 333,180.5C 332.549,182.929 331.715,183.096 330.5,181C 332.65,178.296 334.816,178.129 337,180.5C 337.75,179.874 338.584,179.374 339.5,179C 337.509,178.626 335.842,177.793 334.5,176.5 Z"/></g>
<g><path style="opacity:0.004" fill="#fefffe" d="M 165.5,190.5 C 166.833,191.167 166.833,191.167 165.5,190.5 Z"/></g>
<g><path style="opacity:0.98" fill="#5c5a5b" d="M 317.5,190.5 C 323.131,189.769 325.798,192.269 325.5,198C 325.748,202.353 323.748,204.853 319.5,205.5C 317.617,205.124 316.117,204.124 315,202.5C 314.333,199.167 314.333,195.833 315,192.5C 315.995,191.934 316.828,191.267 317.5,190.5 Z"/></g>
<g><path style="opacity:0.004" fill="#fefffe" d="M 78.5,204.5 C 79.8333,205.167 79.8333,205.167 78.5,204.5 Z"/></g>
<g><path style="opacity:0.004" fill="#fefffe" d="M 254.5,204.5 C 255.833,205.167 255.833,205.167 254.5,204.5 Z"/></g>
<g><path style="opacity:0.004" fill="#fefffe" d="M 151.5,209.5 C 152.833,210.167 152.833,210.167 151.5,209.5 Z"/></g>
<g><path style="opacity:0.176" fill="#a3a3a3" d="M 322.5,212.5 C 320.097,212.448 317.764,212.781 315.5,213.5C 316.312,212.007 317.645,211.34 319.5,211.5C 320.726,211.52 321.726,211.853 322.5,212.5 Z"/></g>
<g><path style="opacity:0.976" fill="#5a5a5a" d="M 322.5,212.5 C 323.75,212.577 324.583,213.244 325,214.5C 325.5,225.828 325.667,237.162 325.5,248.5C 334.173,248.334 342.84,248.5 351.5,249C 354.991,250.821 356.157,253.654 355,257.5C 354.5,258.667 353.667,259.5 352.5,260C 340.071,260.959 327.737,260.626 315.5,259C 314.17,243.735 314.17,228.569 315.5,213.5C 317.764,212.781 320.097,212.448 322.5,212.5 Z"/></g>
<g><path style="opacity:0.004" fill="#fefffe" d="M 420.5,216.5 C 421.833,217.167 421.833,217.167 420.5,216.5 Z"/></g>
<g><path style="opacity:0.004" fill="#fefffe" d="M 42.5,218.5 C 43.8333,219.167 43.8333,219.167 42.5,218.5 Z"/></g>
<g><path style="opacity:0.996" fill="#5a5a5a" d="M 262.5,219.5 C 246.106,252.152 251.106,280.986 277.5,306C 300.306,322.272 324.639,324.772 350.5,313.5C 351.482,314.141 352.482,314.807 353.5,315.5C 354.631,314.249 355.964,313.249 357.5,312.5C 358.167,312.667 358.833,312.833 359.5,313C 360.198,315.799 360.532,318.966 360.5,322.5C 328.77,338.796 298.437,336.629 269.5,316C 241.844,290.683 234.011,260.183 246,224.5C 247.608,220.944 249.441,217.611 251.5,214.5C 253.829,215.749 255.662,215.082 257,212.5C 260.545,213.54 262.379,215.873 262.5,219.5 Z"/></g>
<g><path style="opacity:0.004" fill="#fefffe" d="M 96.5,222.5 C 97.8333,223.167 97.8333,223.167 96.5,222.5 Z"/></g>
<g><path style="opacity:0.004" fill="#fefffe" d="M 211.5,236.5 C 212.833,237.167 212.833,237.167 211.5,236.5 Z"/></g>
<g><path style="opacity:0.004" fill="#fefffe" d="M 113.5,242.5 C 114.833,243.167 114.833,243.167 113.5,242.5 Z"/></g>
<g><path style="opacity:0.004" fill="#fefffe" d="M 496.5,244.5 C 497.833,245.167 497.833,245.167 496.5,244.5 Z"/></g>
<g><path style="opacity:0.989" fill="#595858" d="M 147.5,327.5 C 148.658,326.427 148.658,325.261 147.5,324C 147.759,322.739 148.426,321.739 149.5,321C 147.009,320.374 147.009,319.541 149.5,318.5C 144.868,317.672 140.202,317.172 135.5,317C 136.448,316.517 137.448,316.351 138.5,316.5C 149.833,316.5 161.167,316.5 172.5,316.5C 173.433,298.19 173.766,279.857 173.5,261.5C 173.5,260.167 173.5,258.833 173.5,257.5C 161.322,257.172 149.322,257.505 137.5,258.5C 137.167,258.5 136.833,258.5 136.5,258.5C 134.097,257.869 131.764,256.869 129.5,255.5C 128.792,253.255 127.792,251.255 126.5,249.5C 128.476,247.989 130.809,247.156 133.5,247C 163.5,246.333 193.5,246.333 223.5,247C 226.334,247.045 228.834,247.879 231,249.5C 231.499,253.486 231.666,257.486 231.5,261.5C 228.11,260.977 224.777,260.143 221.5,259C 209.171,258.5 196.838,258.333 184.5,258.5C 184.5,277.833 184.5,297.167 184.5,316.5C 195.505,316.667 206.505,316.5 217.5,316C 228.538,314.399 237.038,308.899 243,299.5C 246.648,302.795 248.648,306.795 249,311.5C 243.937,318.225 237.437,323.059 229.5,326C 202.218,327.465 174.884,327.965 147.5,327.5 Z"/></g>
<g><path style="opacity:0.993" fill="#555556" d="M 258.5,249.5 C 262.24,249.241 265.906,249.574 269.5,250.5C 269.833,251.667 270.167,252.833 270.5,254C 270.693,256.008 270.026,257.508 268.5,258.5C 265.482,258.665 262.482,258.498 259.5,258C 259.833,257.667 260.167,257.333 260.5,257C 259.552,256.517 258.552,256.351 257.5,256.5C 257.993,254.194 258.326,251.861 258.5,249.5 Z"/></g>
<g><path style="opacity:0.995" fill="#656365" d="M 370.5,249.5 C 374.514,249.334 378.514,249.501 382.5,250C 385.197,253.271 384.864,256.271 381.5,259C 377.833,259.667 374.167,259.667 370.5,259C 367.888,255.836 367.888,252.669 370.5,249.5 Z"/></g>
<g><path style="opacity:0.612" fill="#7a7a7c" d="M 258.5,249.5 C 258.326,251.861 257.993,254.194 257.5,256.5C 258.552,256.351 259.552,256.517 260.5,257C 260.167,257.333 259.833,257.667 259.5,258C 262.482,258.498 265.482,258.665 268.5,258.5C 264.966,259.793 261.299,259.793 257.5,258.5C 254.597,255.041 254.93,252.041 258.5,249.5 Z"/></g>
<g><path style="opacity:0.094" fill="#a5a2a3" d="M 137.5,258.5 C 149.322,257.505 161.322,257.172 173.5,257.5C 173.5,258.833 173.5,260.167 173.5,261.5C 172.596,260.791 172.263,259.791 172.5,258.5C 160.833,258.5 149.167,258.5 137.5,258.5 Z"/></g>
<g><path style="opacity:0.995" fill="#5b5b5b" d="M 126.5,249.5 C 127.792,251.255 128.792,253.255 129.5,255.5C 131.764,256.869 134.097,257.869 136.5,258.5C 117.532,263.77 109.699,276.104 113,295.5C 117.794,307.138 126.294,314.138 138.5,316.5C 137.448,316.351 136.448,316.517 135.5,317C 140.202,317.172 144.868,317.672 149.5,318.5C 147.009,319.541 147.009,320.374 149.5,321C 148.426,321.739 147.759,322.739 147.5,324C 148.658,325.261 148.658,326.427 147.5,327.5C 122.747,329.236 106.913,318.236 100,294.5C 97.808,274.73 105.308,259.897 122.5,250C 123.793,249.51 125.127,249.343 126.5,249.5 Z"/></g>
<g><path style="opacity:0.004" fill="#fefffe" d="M 499.5,270.5 C 499.5,270.833 499.5,271.167 499.5,271.5C 498.83,271.019 498.83,270.685 499.5,270.5 Z"/></g>
<g><path style="opacity:0.004" fill="#fefffe" d="M 56.5,272.5 C 57.8333,273.167 57.8333,273.167 56.5,272.5 Z"/></g>
<g><path style="opacity:0.004" fill="#fefffe" d="M 71.5,291.5 C 72.8333,292.167 72.8333,292.167 71.5,291.5 Z"/></g>
<g><path style="opacity:0.004" fill="#fefffe" d="M 466.5,300.5 C 467.833,301.167 467.833,301.167 466.5,300.5 Z"/></g>
<g><path style="opacity:0.004" fill="#fefffe" d="M 31.5,302.5 C 32.8333,303.167 32.8333,303.167 31.5,302.5 Z"/></g>
<g><path style="opacity:0.998" fill="#5d5c5e" d="M 316.5,303.5 C 321.76,302.288 324.76,304.288 325.5,309.5C 324.988,311.884 324.321,314.217 323.5,316.5C 320.388,317.983 317.555,317.65 315,315.5C 313.994,311.198 314.494,307.198 316.5,303.5 Z"/></g>
<g><path style="opacity:0.004" fill="#fefffe" d="M 243.5,320.5 C 244.833,321.167 244.833,321.167 243.5,320.5 Z"/></g>
<g><path style="opacity:0.004" fill="#fefffe" d="M 481.5,324.5 C 482.833,325.167 482.833,325.167 481.5,324.5 Z"/></g>
<g><path style="opacity:0.004" fill="#fefffe" d="M 272.5,328.5 C 273.833,329.167 273.833,329.167 272.5,328.5 Z"/></g>
<g><path style="opacity:0.004" fill="#fefffe" d="M 156.5,334.5 C 157.833,335.167 157.833,335.167 156.5,334.5 Z"/></g>
<g><path style="opacity:0.004" fill="#fefffe" d="M 333.5,345.5 C 334.833,346.167 334.833,346.167 333.5,345.5 Z"/></g>
<g><path style="opacity:0.004" fill="#fefffe" d="M 449.5,371.5 C 450.833,372.167 450.833,372.167 449.5,371.5 Z"/></g>
<g><path style="opacity:0.004" fill="#fefffe" d="M 25.5,392.5 C 26.8333,393.167 26.8333,393.167 25.5,392.5 Z"/></g>
<g><path style="opacity:0.004" fill="#fefffe" d="M 61.5,392.5 C 62.8333,393.167 62.8333,393.167 61.5,392.5 Z"/></g>
<g><path style="opacity:0.004" fill="#fefffe" d="M 410.5,392.5 C 411.833,393.167 411.833,393.167 410.5,392.5 Z"/></g>
<g><path style="opacity:0.004" fill="#fefffe" d="M 97.5,401.5 C 98.8333,402.167 98.8333,402.167 97.5,401.5 Z"/></g>
<g><path style="opacity:0.004" fill="#fefffe" d="M 370.5,401.5 C 371.833,402.167 371.833,402.167 370.5,401.5 Z"/></g>
<g><path style="opacity:0.004" fill="#fefffe" d="M 96.5,403.5 C 97.8333,404.167 97.8333,404.167 96.5,403.5 Z"/></g>
<g><path style="opacity:0.004" fill="#fefffe" d="M 303.5,419.5 C 304.833,420.167 304.833,420.167 303.5,419.5 Z"/></g>
<g><path style="opacity:0.004" fill="#fefffe" d="M 130.5,426.5 C 131.833,427.167 131.833,427.167 130.5,426.5 Z"/></g>
<g><path style="opacity:0.004" fill="#fefffe" d="M 333.5,428.5 C 334.833,429.167 334.833,429.167 333.5,428.5 Z"/></g>
<g><path style="opacity:0.004" fill="#fefffe" d="M 252.5,434.5 C 253.833,435.167 253.833,435.167 252.5,434.5 Z"/></g>
<g><path style="opacity:0.004" fill="#fefffe" d="M 323.5,438.5 C 324.833,439.167 324.833,439.167 323.5,438.5 Z"/></g>
<g><path style="opacity:0.004" fill="#fefffe" d="M 499.5,441.5 C 499.5,441.833 499.5,442.167 499.5,442.5C 498.83,442.019 498.83,441.685 499.5,441.5 Z"/></g>
<g><path style="opacity:0.004" fill="#fefffe" d="M 262.5,445.5 C 263.833,446.167 263.833,446.167 262.5,445.5 Z"/></g>
<g><path style="opacity:0.004" fill="#fefffe" d="M 105.5,452.5 C 106.833,453.167 106.833,453.167 105.5,452.5 Z"/></g>
<g><path style="opacity:0.004" fill="#fefffe" d="M 8.5,469.5 C 9.83333,470.167 9.83333,470.167 8.5,469.5 Z"/></g>
<g><path style="opacity:0.004" fill="#fefffe" d="M 32.5,489.5 C 33.8333,490.167 33.8333,490.167 32.5,489.5 Z"/></g>
<g><path style="opacity:0.004" fill="#fefffe" d="M 304.5,491.5 C 305.833,492.167 305.833,492.167 304.5,491.5 Z"/></g>
<g><path style="opacity:0.004" fill="#fefffe" d="M 208.5,499.5 C 207.833,498.167 207.833,498.167 208.5,499.5 Z"/></g>
</svg>
